<?xml version="1.0" encoding="utf-8"?>
<!-- Generator: Adobe Illustrator 27.2.0, SVG Export Plug-In . SVG Version: 6.00 Build 0)  -->
<svg version="1.1" id="Layer_1" xmlns="http://www.w3.org/2000/svg" xmlns:xlink="http://www.w3.org/1999/xlink" x="0px" y="0px"
	 viewBox="0 0 40 40" style="enable-background:new 0 0 40 40;" xml:space="preserve">
<style type="text/css">
	.st0{fill:#6B57FF;}
	.st1{fill:#B74AF7;}
	.st2{fill:url(#SVGID_1_);}
	.st3{fill:#3BEA62;}
	.st4{fill:#FFFFFF;}
</style>
<g>
	<polygon points="35.3,31.2 35.3,13.7 20.1,5 5,13.7 5,31.2 20.1,40 	"/>
	<g>
		<circle class="st0" cx="20.1" cy="12.7" r="11.2"/>
		<path class="st1" d="M28.1,14.9c0-0.4-0.2-0.7-0.4-1c1.3-1.1,2.2-2.4,2.1-3.7C29.8,8.9,29,8,28,7.4c0.2-0.7,0.3-1.5,0.4-2.3
			C28.3,5.1,28.2,5,28.1,5c-0.1,0.8-0.2,1.6-0.4,2.4c-0.4-0.2-0.9-0.4-1.4-0.5c0-0.2,0.1-0.3,0.1-0.5c0.2-0.8,0.3-1.7,0.2-2.7
			c-0.1-0.1-0.2-0.1-0.3-0.2c0.2,1,0,2.2-0.2,3.3c-2.1-0.5-4.7-0.5-6.8-0.6c0,0,0,0-0.1,0c1.7-1.5,3.9-2.8,6.5-3.2
			c-0.1-0.1-0.2-0.1-0.3-0.2c-2.5,0.4-4.8,1.8-6.5,3.3c-0.2,0-0.4,0-0.5,0c-0.7,0-1.4,0-2,0.1c0,0-0.1,0-0.1,0
			c0.6-0.7,1.2-1.5,1.8-2.2c0.8-0.9,1.8-1.8,2.7-2.5c-0.1,0-0.2,0-0.4,0C19.6,2.2,18.8,3,17.9,4c-0.7,0.7-1.3,1.5-1.9,2.3
			c-0.1,0-0.2,0-0.2,0c-1.4-0.1-2.7,0.8-4,2.7c-0.9,1.3-2.1,3.1-2.8,4.8c0,0.2,0,0.3,0,0.5c0.7-1.8,2-3.7,2.9-5.1
			c1.2-1.7,2.3-2.6,3.5-2.6c0.1,0,0.2,0,0.3,0c0,0,0.1,0,0.1,0c0,0,0,0,0,0c-0.8,0.2-1.4,0.5-1.9,1c-0.8,0.7-1.3,1.8-1.3,3.1
			c0,0.4,0,0.7,0.1,1.1c-0.4,0.9-0.8,2-0.6,2.8c0.1,0.3,0.3,0.6,0.6,0.7c0.6,0.3,1.3,0.4,2,0.2c0.2,0.2,0.5,0.4,0.7,0.6
			c-0.2,0.4-0.3,0.8-0.4,1.2c0,0.1,0,0.2-0.1,0.3c-0.2,0.9-0.5,2-0.4,2.9c-0.9,0.2-1.7,0.2-2.5,0c0.1,0.1,0.2,0.2,0.3,0.3
			c0.7,0.1,1.5,0.1,2.3-0.1c0.1,0.4,0.3,0.8,0.6,1c0.9,0.8,2,1.2,3.4,1.2c1.2,0,2.4-0.3,3.8-0.9c1.6-0.7,3-1.8,4.1-3
			C27.6,17.6,28.1,16.2,28.1,14.9z M27.9,7.7c1,0.5,1.6,1.3,1.7,2.5c0,0.9-0.6,2.3-2.1,3.5c0,0,0,0-0.1,0c-0.4-0.3-0.9-0.4-1.4-0.5
			c0.1-0.3,0.3-0.6,0.4-0.9c0.2-0.4,0.3-0.9,0.5-1.2C27.3,9.9,27.6,8.8,27.9,7.7z M19.8,14.6c-0.9,0.2-2.2,0.4-3.1,0
			c0.4-0.3,0.7-0.5,1.2-0.6c0.7-0.2,1.6-0.2,2.6,0.1l0.2,0.1c0.1,0,0.1,0,0.2,0.1C20.6,14.4,20.2,14.5,19.8,14.6z M21.2,14.3
			c1.1,0.3,2.5,0.7,3.4,1.3c-0.4,0.2-0.8,0.5-1.3,0.7c-1,0.6-2.1,1.2-3.1,1.8c-0.4-0.1-0.8-0.3-1.1-0.4c0.2-0.9,0.6-1.9,1-2.4
			C20.4,14.9,20.8,14.6,21.2,14.3z M17.3,15c0.7,0.1,1.7,0,2.5-0.2c0.2,0,0.3-0.1,0.5-0.2c-0.2,0.2-0.3,0.3-0.4,0.5
			c-0.3,0.5-0.8,1.5-1,2.4c-1-0.4-2.2-1-3.2-1.8c0.2-0.4,0.5-0.7,0.8-1C16.8,14.9,17,15,17.3,15z M19.1,18c0.2,0.1,0.5,0.2,0.8,0.3
			c-0.3,0.1-0.5,0.3-0.8,0.4C19.1,18.5,19.1,18.2,19.1,18z M20.2,18.4c0.7,0.2,1.5,0.5,2.2,0.6c-0.3,0.3-0.6,0.5-0.9,0.6
			c-0.6,0.2-1.2,0.2-1.8,0c-0.3-0.1-0.5-0.3-0.6-0.7C19.5,18.8,19.9,18.6,20.2,18.4z M20.5,18.2c1-0.5,2-1.1,3-1.7
			c0.4-0.2,0.8-0.4,1.1-0.6c-0.6,1.1-1.2,2.2-1.9,2.9C21.9,18.7,21.2,18.5,20.5,18.2z M24.9,15.8c0.6,0.5,1,1,1,1.8
			c0,0.5-0.2,0.8-0.5,1c-0.5,0.3-1.4,0.4-2.3,0.2C23.6,18.1,24.3,17,24.9,15.8z M24.8,15.5c-0.9-0.6-2.2-1-3.3-1.3c0,0,0,0,0,0
			c0.4-0.2,0.9-0.4,1.4-0.6c0.8-0.2,1.9-0.3,2.8-0.2C25.4,14,25.1,14.8,24.8,15.5z M25.9,13.4c0.6,0.1,1,0.2,1.4,0.5c0,0,0,0,0,0
			c-0.5,0.4-1.2,0.9-1.9,1.3c-0.1,0.1-0.2,0.1-0.3,0.2C25.4,14.7,25.7,14,25.9,13.4z M26.3,7.1c0.5,0.1,1,0.3,1.4,0.5
			c-0.3,1.2-0.6,2.3-1,3.3c-0.2,0.4-0.3,0.8-0.5,1.2c-0.1,0.3-0.3,0.7-0.4,1c-1-0.1-2.1,0-2.9,0.2c-0.2,0-0.3,0.1-0.5,0.2
			c0.5-0.4,0.9-0.9,1.3-1.3C24.8,10.7,25.8,8.8,26.3,7.1z M19,6.4c0.1,0,0.2,0,0.3,0c2.1,0,4.7,0,6.8,0.5c-0.5,1.9-1.6,3.8-2.7,5.1
			c-0.5,0.6-1.2,1.3-2.1,1.9c-0.1,0-0.1,0.1-0.2,0.1C21,14,20.9,14,20.8,14l-0.2-0.1c-1.1-0.3-2-0.3-2.7-0.1
			c-0.5,0.1-0.9,0.4-1.3,0.7c-0.1,0-0.1-0.1-0.2-0.1c1.3-1.1,2.3-3,2.3-4.6c0-0.8-0.2-1.6-0.7-2.2C18.2,7.2,18.6,6.8,19,6.4z
			 M16.1,14.3c-0.2-0.2-0.3-0.4-0.4-0.6c-0.4-1.4,0.1-3.4,1.6-5.4c0.1-0.2,0.3-0.4,0.4-0.6c0.4,0.6,0.6,1.4,0.6,2.1
			C18.3,11.4,17.4,13.2,16.1,14.3z M18.4,6.4c0.1,0,0.2,0,0.3,0c-0.3,0.3-0.7,0.7-0.9,1c-0.3-0.4-0.6-0.7-1-0.9
			C17.2,6.5,17.8,6.4,18.4,6.4z M14.1,7.6C14.5,7.3,15,7,15.6,6.8c-1,1.4-1.9,2.8-2.7,4.3c0,0.1-0.1,0.1-0.1,0.2
			C12.7,9.8,13.2,8.4,14.1,7.6z M12.8,15c-0.3-0.1-0.4-0.3-0.5-0.6c-0.2-0.6,0.1-1.5,0.4-2.4c0.2,0.7,0.4,1.3,0.8,1.9
			c0.3,0.5,0.6,0.9,1,1.3C14,15.3,13.4,15.3,12.8,15z M13.7,13.8c-0.4-0.7-0.7-1.4-0.8-2.1c0.1-0.2,0.2-0.3,0.2-0.5
			C14,9.6,14.9,8.1,16,6.7c0.1,0,0.3-0.1,0.4-0.1c0.5,0.2,0.9,0.6,1.2,1c-0.2,0.2-0.3,0.4-0.5,0.6c-1.5,2-2.1,4-1.6,5.5
			c0.1,0.3,0.2,0.5,0.4,0.7c-0.1,0.1-0.2,0.2-0.4,0.3c-0.2,0.1-0.5,0.3-0.8,0.4C14.4,14.7,14,14.3,13.7,13.8z M14.9,15.2
			c0.2-0.1,0.5-0.2,0.7-0.4c0.1-0.1,0.3-0.2,0.4-0.3c0.1,0,0.1,0.1,0.2,0.1c-0.3,0.3-0.6,0.6-0.8,1C15.3,15.6,15.1,15.4,14.9,15.2z
			 M15.1,17.4c0-0.1,0-0.2,0.1-0.3c0.1-0.4,0.2-0.8,0.4-1.1c1.1,0.8,2.2,1.4,3.3,1.8c0,0.3,0,0.6,0,0.9c-1.4,0.7-2.8,1.2-4.1,1.5
			C14.6,19.4,14.9,18.4,15.1,17.4z M22.3,21.7c-2.8,1.3-5.4,1.2-6.9-0.3c-0.3-0.3-0.4-0.6-0.5-0.9c1.3-0.3,2.7-0.8,4.1-1.5
			c0.1,0.4,0.4,0.6,0.7,0.8c0.7,0.3,1.3,0.3,1.9,0c0.4-0.2,0.7-0.4,1.1-0.7c1.1,0.2,2,0.1,2.7-0.2c0.4-0.3,0.6-0.7,0.7-1.2
			c0-0.8-0.4-1.4-1-1.9c0.2-0.1,0.3-0.2,0.5-0.3c0.7-0.4,1.4-0.8,2-1.4c0.2,0.2,0.4,0.5,0.4,0.9C27.9,17,26.2,20,22.3,21.7z"/>
		<g>
			<path d="M16.4,9.2l0,1.7c0,0.4-0.3,0.8-0.8,0.8l0,0c-0.4,0-0.8-0.3-0.8-0.8l0-1.7c0-0.4,0.3-0.8,0.8-0.8l0,0
				C16.1,8.5,16.4,8.8,16.4,9.2z"/>
			<path d="M26.1,9.2l0,1.7c0,0.4-0.3,0.8-0.8,0.8l0,0c-0.4,0-0.8-0.3-0.8-0.8l0-1.7c0-0.4,0.3-0.8,0.8-0.8l0,0
				C25.7,8.5,26.1,8.8,26.1,9.2z"/>
		</g>
		<g>
			<g>
				<path d="M20.5,15.5c-1.8,0-3.2-1.4-3.2-3.2c0-0.8,0.4-0.9,0.9-0.9c0.2,0,0.4,0,0.7,0c0.3,0,0.6,0.1,1,0.1c0,0,0,0,0,0
					c0.2,0,0.5,0,0.7,0c0.4-0.1,0.7-0.1,1-0.2c0.5-0.1,0.9-0.2,1.2-0.2c0.7,0,1,0.4,1,1.2C23.7,14.1,22.3,15.5,20.5,15.5z"/>
				<path d="M22.7,11.2c0.6,0,0.9,0.3,0.9,1.1c0,1.7-1.4,3.1-3.1,3.1s-3.1-1.4-3.1-3.1c0-0.7,0.3-0.8,0.8-0.8c0.4,0,1,0.1,1.6,0.1
					c0.2,0,0.4,0,0.7,0C21.4,11.4,22.2,11.2,22.7,11.2 M22.7,11.1v0.1V11.1L22.7,11.1c-0.3,0-0.7,0.1-1.2,0.2
					c-0.3,0.1-0.7,0.1-1,0.2c-0.2,0-0.4,0-0.7,0c-0.3,0-0.7,0-1-0.1c-0.2,0-0.5,0-0.7,0c-0.5,0-0.9,0.1-0.9,1c0,1.8,1.5,3.2,3.2,3.2
					s3.2-1.5,3.2-3.2C23.8,11.5,23.4,11.1,22.7,11.1L22.7,11.1z"/>
			</g>
			<path class="st1" d="M17.5,13.2c0.4,1.3,1.6,2.3,3,2.3c0.5,0,1-0.1,1.4-0.4c-0.1-1.4-1.3-2.5-2.8-2.5
				C18.5,12.6,18,12.8,17.5,13.2z"/>
		</g>
	</g>
	<linearGradient id="SVGID_1_" gradientUnits="userSpaceOnUse" x1="20.4975" y1="23.0012" x2="28.5261" y2="27.299">
		<stop  offset="0.1102" style="stop-color:#AF1DF5"/>
		<stop  offset="0.7666" style="stop-color:#21D789"/>
	</linearGradient>
	<polygon class="st2" points="35.3,13.7 20.1,22.5 20.1,40 35.3,31.2 	"/>
	<polygon class="st3" points="5,13.7 20.1,22.5 20.1,40 5,31.2 	"/>
	<g>
		<path d="M7.5,27.4c-0.5-0.6-0.9-1.3-1.1-2.1C6.1,24.6,6,23.8,6,23.1c0-0.7,0.1-1.3,0.4-1.8c0.3-0.4,0.7-0.7,1.1-0.7
			c0.5,0,1,0.1,1.6,0.5c0.5,0.3,1,0.7,1.4,1.3c0.4,0.5,0.8,1.1,1.1,1.7c0.3,0.6,0.4,1.2,0.4,1.7L10.8,25c0-0.3-0.1-0.6-0.3-0.9
			c-0.2-0.3-0.3-0.6-0.6-0.9c-0.2-0.3-0.5-0.5-0.7-0.6c-0.3-0.2-0.7-0.3-0.9-0.3c-0.3,0-0.5,0.2-0.6,0.5c-0.2,0.3-0.2,0.7-0.2,1.1
			c0,0.5,0.1,0.9,0.2,1.4c0.2,0.5,0.4,0.9,0.6,1.3c0.3,0.4,0.6,0.7,0.9,0.9c0.3,0.2,0.5,0.2,0.7,0.3c0.2,0,0.4,0,0.6-0.2
			c0.2-0.1,0.3-0.3,0.3-0.5l1.3,0.8c0,0.5-0.2,0.9-0.4,1.2c-0.3,0.3-0.6,0.4-1.1,0.4c-0.4,0-0.9-0.2-1.4-0.5
			C8.5,28.6,8,28.1,7.5,27.4z"/>
		<path d="M14.3,28.3v-1.5l1,0.6v1.5l1.2,0.7v1.2L15.3,30v1.5l-1-0.6v-1.5L13,28.6v-1.2L14.3,28.3z"/>
		<path d="M16.9,29.9v-1.5l1,0.6v1.5l1.2,0.7v1.2l-1.2-0.7v1.5l-1-0.6V31l-1.3-0.8v-1.2L16.9,29.9z"/>
	</g>
	<polygon points="35.3,13.7 20.1,40 35.3,31.2 	"/>
	<polygon class="st4" points="32.9,29 29.2,31 29.2,31.8 32.9,29.7 	"/>
	<path class="st3" d="M34.8,2.8C34.9,2.8,34.9,2.8,34.8,2.8c0.1,0-1.3-0.1-2-0.7C32.1,1.4,32.1,0,32.1,0s0,0.3-0.1,0.7
		c-0.1,0.5-0.3,1-0.7,1.5c-0.5,0.5-1.7,0.6-2,0.6c-0.1,0-0.1,0-0.1,0s1.4,0.1,2,0.7c0.7,0.7,0.8,2.1,0.8,2.1s0-0.3,0.1-0.7
		c0.1-0.5,0.3-1,0.7-1.5C33.4,3,34.5,2.8,34.8,2.8z"/>
	<path d="M32.1,11.9C32.1,11.9,32.1,11.9,32.1,11.9l0,0.6l2.3,1.3l-14.2,8.2L5.9,13.7l2.3-1.3l0-0.5c0,0,0,0,0-0.1L5,13.7l15.2,8.8
		l15.2-8.8L32.1,11.9z"/>
	<path class="st3" d="M12.6,8.4c0,0-2.1-0.1-3.2-1.1C8.4,6.2,8.2,4.1,8.2,4c0,0,0,0,0,0s0,0,0,0c0,0,0,0,0,0s0,0.4-0.1,1
		C8,5.7,7.7,6.7,7,7.4c-0.9,0.9-3.2,1-3.2,1S5.9,8.5,7,9.5c1.1,1.1,1.2,3.1,1.2,3.2c0,0,0,0,0,0s0,0,0,0c0,0,0,0,0,0s0-0.4,0.1-1
		c0.1-0.7,0.4-1.7,1.1-2.4C10.4,8.4,12.6,8.4,12.6,8.4z"/>
	<circle class="st3" cx="35.3" cy="7.1" r="0.9"/>
	<circle class="st3" cx="5.5" cy="5" r="0.9"/>
	<circle class="st3" cx="34.4" cy="10.2" r="0.4"/>
	<circle class="st3" cx="6.8" cy="2" r="0.4"/>
</g>
</svg>
