<svg width="787" height="476" viewBox="0 0 787 476" fill="none" xmlns="http://www.w3.org/2000/svg">
<rect width="787" height="476" fill="white"/>
<rect x="61" y="63" width="294" height="349" rx="8" fill="#FF7936"/>
<path d="M136.372 94H139.542L143.832 104.11L144.072 104.89L144.302 104.11L148.502 94H151.712V108H149.262V98.04L149.292 97.51L144.942 108H143.112L138.782 97.58L138.812 98.04V108H136.372V94ZM159.428 108.24C158.428 108.24 157.528 108.01 156.728 107.55C155.935 107.09 155.315 106.453 154.868 105.64C154.421 104.82 154.198 103.897 154.198 102.87C154.198 101.857 154.425 100.943 154.878 100.13C155.331 99.3167 155.955 98.68 156.748 98.22C157.548 97.7533 158.441 97.52 159.428 97.52C160.441 97.52 161.328 97.75 162.088 98.21C162.855 98.67 163.445 99.3067 163.858 100.12C164.271 100.927 164.478 101.843 164.478 102.87V103.52H156.668C156.735 104.053 156.898 104.523 157.158 104.93C157.418 105.337 157.751 105.653 158.158 105.88C158.565 106.1 159.018 106.21 159.518 106.21C160.105 106.21 160.601 106.123 161.008 105.95C161.415 105.777 161.728 105.527 161.948 105.2H164.298C164.191 105.7 163.928 106.183 163.508 106.65C163.088 107.117 162.528 107.5 161.828 107.8C161.128 108.093 160.328 108.24 159.428 108.24ZM162.038 101.87C161.918 101.137 161.635 100.557 161.188 100.13C160.748 99.7033 160.165 99.49 159.438 99.49C158.718 99.49 158.111 99.7033 157.618 100.13C157.131 100.557 156.821 101.137 156.688 101.87H162.038ZM166.628 97.76H168.938V99.3C169.244 98.7267 169.654 98.2867 170.168 97.98C170.681 97.6733 171.278 97.52 171.958 97.52C172.691 97.52 173.324 97.69 173.858 98.03C174.391 98.3633 174.798 98.84 175.078 99.46C175.411 98.8467 175.861 98.37 176.428 98.03C176.994 97.69 177.651 97.52 178.398 97.52C179.124 97.52 179.758 97.6867 180.298 98.02C180.844 98.3467 181.268 98.8133 181.568 99.42C181.868 100.027 182.018 100.733 182.018 101.54V108H179.638V101.82C179.638 101.133 179.464 100.593 179.118 100.2C178.778 99.8 178.298 99.6 177.678 99.6C177.238 99.6 176.851 99.7 176.518 99.9C176.191 100.1 175.938 100.387 175.758 100.76C175.578 101.127 175.488 101.56 175.488 102.06V108H173.158V101.82C173.158 101.133 172.984 100.593 172.638 100.2C172.291 99.8 171.811 99.6 171.198 99.6C170.524 99.6 169.991 99.8233 169.598 100.27C169.204 100.71 169.008 101.307 169.008 102.06V108H166.628V97.76ZM189.335 108.24C188.315 108.24 187.395 108.01 186.575 107.55C185.755 107.09 185.108 106.453 184.635 105.64C184.168 104.827 183.935 103.907 183.935 102.88C183.935 101.853 184.168 100.933 184.635 100.12C185.108 99.3067 185.755 98.67 186.575 98.21C187.401 97.75 188.325 97.52 189.345 97.52C190.365 97.52 191.285 97.75 192.105 98.21C192.925 98.67 193.568 99.3067 194.035 100.12C194.501 100.933 194.735 101.853 194.735 102.88C194.735 103.907 194.501 104.827 194.035 105.64C193.568 106.453 192.925 107.09 192.105 107.55C191.285 108.01 190.361 108.24 189.335 108.24ZM186.405 102.88C186.405 103.513 186.531 104.073 186.785 104.56C187.045 105.047 187.398 105.427 187.845 105.7C188.291 105.967 188.795 106.1 189.355 106.1C189.908 106.1 190.405 105.967 190.845 105.7C191.291 105.427 191.638 105.047 191.885 104.56C192.138 104.073 192.265 103.513 192.265 102.88C192.265 102.247 192.138 101.687 191.885 101.2C191.631 100.707 191.281 100.327 190.835 100.06C190.395 99.7867 189.898 99.65 189.345 99.65C188.791 99.65 188.291 99.7867 187.845 100.06C187.398 100.327 187.045 100.707 186.785 101.2C186.531 101.687 186.405 102.247 186.405 102.88ZM196.901 97.76H199.261V99.3C199.588 98.78 199.995 98.3833 200.481 98.11C200.968 97.83 201.525 97.69 202.151 97.69H202.531V100.09H201.851C201.058 100.083 200.431 100.293 199.971 100.72C199.511 101.147 199.281 101.73 199.281 102.47V108H196.901V97.76ZM203.904 109.25H205.334C205.601 109.25 205.834 109.177 206.034 109.03C206.241 108.89 206.394 108.7 206.494 108.46L206.984 107.4L203.044 97.76H205.514L208.164 104.64L210.594 97.76H213.004L208.754 108.69C208.454 109.47 208.041 110.083 207.514 110.53C206.994 110.977 206.321 111.2 205.494 111.2H203.904V109.25ZM221.546 94V105.71H228.326V108H219.106V94H221.546ZM234.233 97.52C235.067 97.52 235.803 97.67 236.443 97.97C237.083 98.2633 237.58 98.69 237.933 99.25C238.287 99.8033 238.463 100.46 238.463 101.22V108H236.163V106.51C235.843 107.07 235.407 107.5 234.853 107.8C234.307 108.093 233.66 108.24 232.913 108.24C232.253 108.24 231.66 108.117 231.133 107.87C230.613 107.617 230.207 107.267 229.913 106.82C229.62 106.367 229.473 105.853 229.473 105.28C229.473 104.733 229.613 104.23 229.893 103.77C230.18 103.303 230.577 102.923 231.083 102.63C231.59 102.337 232.16 102.157 232.793 102.09L235.463 101.81C235.67 101.79 235.833 101.717 235.953 101.59C236.073 101.457 236.133 101.263 236.133 101.01C236.127 100.523 235.943 100.13 235.583 99.83C235.223 99.53 234.753 99.38 234.173 99.38C233.8 99.38 233.457 99.4467 233.143 99.58C232.837 99.7067 232.59 99.88 232.403 100.1C232.217 100.32 232.107 100.563 232.073 100.83H229.723C229.79 100.19 230.027 99.62 230.433 99.12C230.84 98.62 231.373 98.23 232.033 97.95C232.693 97.6633 233.427 97.52 234.233 97.52ZM231.893 105.01C231.893 105.437 232.06 105.783 232.393 106.05C232.727 106.317 233.157 106.45 233.683 106.45C234.163 106.45 234.587 106.353 234.953 106.16C235.327 105.967 235.617 105.7 235.823 105.36C236.03 105.013 236.133 104.617 236.133 104.17V103.26L233.363 103.58C232.923 103.627 232.567 103.777 232.293 104.03C232.027 104.283 231.893 104.61 231.893 105.01ZM240.584 109.25H242.014C242.28 109.25 242.514 109.177 242.714 109.03C242.92 108.89 243.074 108.7 243.174 108.46L243.664 107.4L239.724 97.76H242.194L244.844 104.64L247.274 97.76H249.684L245.434 108.69C245.134 109.47 244.72 110.083 244.194 110.53C243.674 110.977 243 111.2 242.174 111.2H240.584V109.25ZM255.546 108.24C254.526 108.24 253.606 108.01 252.786 107.55C251.966 107.09 251.319 106.453 250.846 105.64C250.379 104.827 250.146 103.907 250.146 102.88C250.146 101.853 250.379 100.933 250.846 100.12C251.319 99.3067 251.966 98.67 252.786 98.21C253.612 97.75 254.536 97.52 255.556 97.52C256.576 97.52 257.496 97.75 258.316 98.21C259.136 98.67 259.779 99.3067 260.246 100.12C260.712 100.933 260.946 101.853 260.946 102.88C260.946 103.907 260.712 104.827 260.246 105.64C259.779 106.453 259.136 107.09 258.316 107.55C257.496 108.01 256.572 108.24 255.546 108.24ZM252.616 102.88C252.616 103.513 252.742 104.073 252.996 104.56C253.256 105.047 253.609 105.427 254.056 105.7C254.502 105.967 255.006 106.1 255.566 106.1C256.119 106.1 256.616 105.967 257.056 105.7C257.502 105.427 257.849 105.047 258.096 104.56C258.349 104.073 258.476 103.513 258.476 102.88C258.476 102.247 258.349 101.687 258.096 101.2C257.842 100.707 257.492 100.327 257.046 100.06C256.606 99.7867 256.109 99.65 255.556 99.65C255.002 99.65 254.502 99.7867 254.056 100.06C253.609 100.327 253.256 100.707 252.996 101.2C252.742 101.687 252.616 102.247 252.616 102.88ZM272.092 108H269.782V106.53C269.449 107.083 269.009 107.507 268.462 107.8C267.922 108.093 267.299 108.24 266.592 108.24C265.859 108.24 265.209 108.08 264.642 107.76C264.082 107.44 263.645 106.977 263.332 106.37C263.019 105.763 262.862 105.04 262.862 104.2V97.76H265.242V103.84C265.242 104.567 265.429 105.133 265.802 105.54C266.182 105.947 266.702 106.15 267.362 106.15C267.829 106.15 268.239 106.047 268.592 105.84C268.952 105.633 269.229 105.343 269.422 104.97C269.622 104.597 269.722 104.17 269.722 103.69V97.76H272.092V108ZM278.597 108C278.05 108 277.557 107.883 277.117 107.65C276.684 107.417 276.344 107.093 276.097 106.68C275.857 106.267 275.737 105.797 275.737 105.27L275.727 99.81H273.927L273.937 97.76H275.057C275.31 97.76 275.514 97.6833 275.667 97.53C275.82 97.37 275.897 97.1667 275.897 96.92V95.27H278.107V97.76H280.567L280.557 99.81H278.097L278.107 104.98C278.107 105.26 278.197 105.493 278.377 105.68C278.564 105.86 278.797 105.95 279.077 105.95H280.557V108H278.597Z" fill="white"/>
<rect x="85" y="139" width="246" height="48" rx="6" fill="white"/>
<path d="M191.48 169.192C190.68 169.192 189.971 169.048 189.352 168.76C188.734 168.467 188.248 168.059 187.896 167.536C187.55 167.008 187.374 166.405 187.368 165.728H189.36C189.36 166.075 189.451 166.381 189.632 166.648C189.814 166.915 190.064 167.123 190.384 167.272C190.71 167.421 191.083 167.496 191.504 167.496C191.915 167.496 192.275 167.429 192.584 167.296C192.894 167.157 193.131 166.968 193.296 166.728C193.467 166.483 193.552 166.2 193.552 165.88C193.552 165.48 193.43 165.136 193.184 164.848C192.944 164.56 192.624 164.381 192.224 164.312L190.304 163.992C189.766 163.901 189.296 163.712 188.896 163.424C188.496 163.131 188.187 162.765 187.968 162.328C187.755 161.891 187.648 161.411 187.648 160.888C187.648 160.259 187.811 159.696 188.136 159.2C188.462 158.699 188.912 158.309 189.488 158.032C190.07 157.749 190.728 157.608 191.464 157.608C192.216 157.608 192.883 157.744 193.464 158.016C194.051 158.288 194.507 158.669 194.832 159.16C195.158 159.651 195.323 160.211 195.328 160.84H193.344C193.344 160.541 193.267 160.277 193.112 160.048C192.958 159.813 192.739 159.632 192.456 159.504C192.179 159.371 191.856 159.304 191.488 159.304C191.126 159.304 190.803 159.368 190.52 159.496C190.243 159.619 190.027 159.795 189.872 160.024C189.718 160.248 189.64 160.507 189.64 160.8C189.64 161.147 189.752 161.448 189.976 161.704C190.2 161.955 190.496 162.112 190.864 162.176L192.728 162.48C193.283 162.571 193.774 162.776 194.2 163.096C194.632 163.416 194.966 163.811 195.2 164.28C195.44 164.749 195.56 165.251 195.56 165.784C195.56 166.429 195.387 167.011 195.04 167.528C194.699 168.045 194.219 168.453 193.6 168.752C192.982 169.045 192.275 169.192 191.48 169.192ZM200.392 169C199.954 169 199.56 168.907 199.208 168.72C198.861 168.533 198.589 168.275 198.392 167.944C198.2 167.613 198.104 167.237 198.104 166.816L198.096 162.448H196.656L196.664 160.808H197.56C197.762 160.808 197.925 160.747 198.048 160.624C198.17 160.496 198.232 160.333 198.232 160.136V158.816H200V160.808H201.968L201.96 162.448H199.992L200 166.584C200 166.808 200.072 166.995 200.216 167.144C200.365 167.288 200.552 167.36 200.776 167.36H201.96V169H200.392ZM207.073 160.616C207.739 160.616 208.329 160.736 208.841 160.976C209.353 161.211 209.75 161.552 210.033 162C210.315 162.443 210.457 162.968 210.457 163.576V169H208.617V167.808C208.361 168.256 208.011 168.6 207.569 168.84C207.131 169.075 206.614 169.192 206.017 169.192C205.489 169.192 205.014 169.093 204.593 168.896C204.177 168.693 203.851 168.413 203.617 168.056C203.382 167.693 203.265 167.283 203.265 166.824C203.265 166.387 203.377 165.984 203.601 165.616C203.83 165.243 204.147 164.939 204.553 164.704C204.958 164.469 205.414 164.325 205.921 164.272L208.057 164.048C208.222 164.032 208.353 163.973 208.449 163.872C208.545 163.765 208.593 163.611 208.593 163.408C208.587 163.019 208.441 162.704 208.153 162.464C207.865 162.224 207.489 162.104 207.025 162.104C206.726 162.104 206.451 162.157 206.201 162.264C205.955 162.365 205.758 162.504 205.609 162.68C205.459 162.856 205.371 163.051 205.345 163.264H203.465C203.518 162.752 203.707 162.296 204.033 161.896C204.358 161.496 204.785 161.184 205.313 160.96C205.841 160.731 206.427 160.616 207.073 160.616ZM205.201 166.608C205.201 166.949 205.334 167.227 205.601 167.44C205.867 167.653 206.211 167.76 206.633 167.76C207.017 167.76 207.355 167.683 207.649 167.528C207.947 167.373 208.179 167.16 208.345 166.888C208.51 166.611 208.593 166.293 208.593 165.936V165.208L206.377 165.464C206.025 165.501 205.739 165.621 205.521 165.824C205.307 166.027 205.201 166.288 205.201 166.608ZM216.27 169.192C215.47 169.192 214.744 169.005 214.094 168.632C213.443 168.259 212.931 167.747 212.558 167.096C212.19 166.44 212.006 165.709 212.006 164.904C212.006 164.099 212.19 163.371 212.558 162.72C212.931 162.064 213.443 161.549 214.094 161.176C214.744 160.803 215.47 160.616 216.27 160.616C216.968 160.616 217.603 160.744 218.174 161C218.744 161.251 219.211 161.616 219.574 162.096C219.942 162.571 220.174 163.139 220.27 163.8H218.366C218.222 163.315 217.96 162.947 217.582 162.696C217.203 162.445 216.768 162.32 216.278 162.32C215.84 162.32 215.446 162.432 215.094 162.656C214.747 162.875 214.475 163.181 214.278 163.576C214.08 163.965 213.982 164.408 213.982 164.904C213.982 165.4 214.08 165.845 214.278 166.24C214.475 166.629 214.747 166.936 215.094 167.16C215.446 167.379 215.84 167.488 216.278 167.488C216.768 167.488 217.203 167.363 217.582 167.112C217.96 166.861 218.222 166.493 218.366 166.008H220.27C220.174 166.659 219.939 167.224 219.566 167.704C219.192 168.184 218.72 168.552 218.15 168.808C217.579 169.064 216.952 169.192 216.27 169.192ZM221.988 157.8H223.892V164.464L227.1 160.808H229.284L225.964 164.704L229.428 169H227.132L223.892 165.024V169H221.988V157.8Z" fill="#FF7936"/>
<path d="M208 263L213.774 253L202.226 253L208 263ZM209 254.467L209 245.933L207 245.933L207 254.467L209 254.467ZM209 241.667L209 233.133L207 233.133L207 241.667L209 241.667ZM209 228.867L209 220.333L207 220.333L207 228.867L209 228.867ZM209 216.067L209 207.533L207 207.533L207 216.067L209 216.067ZM209 203.267L209 199L207 199L207 203.267L209 203.267Z" fill="white"/>
<rect x="85" y="275" width="246" height="48" rx="6" fill="white"/>
<path d="M189.299 293.8H191.259V298.376H196.363V293.8H198.323V305H196.363V300.208H191.259V305H189.299V293.8ZM204.494 305.192C203.694 305.192 202.974 305.008 202.334 304.64C201.699 304.272 201.203 303.763 200.846 303.112C200.489 302.456 200.31 301.717 200.31 300.896C200.31 300.085 200.491 299.355 200.854 298.704C201.217 298.053 201.715 297.544 202.35 297.176C202.99 296.803 203.705 296.616 204.494 296.616C205.305 296.616 206.014 296.8 206.622 297.168C207.235 297.536 207.707 298.045 208.038 298.696C208.369 299.341 208.534 300.075 208.534 300.896V301.416H202.286C202.339 301.843 202.47 302.219 202.678 302.544C202.886 302.869 203.153 303.123 203.478 303.304C203.803 303.48 204.166 303.568 204.566 303.568C205.035 303.568 205.433 303.499 205.758 303.36C206.083 303.221 206.334 303.021 206.51 302.76H208.39C208.305 303.16 208.094 303.547 207.758 303.92C207.422 304.293 206.974 304.6 206.414 304.84C205.854 305.075 205.214 305.192 204.494 305.192ZM206.582 300.096C206.486 299.509 206.259 299.045 205.902 298.704C205.55 298.363 205.083 298.192 204.502 298.192C203.926 298.192 203.441 298.363 203.046 298.704C202.657 299.045 202.409 299.509 202.302 300.096H206.582ZM213.526 296.616C214.192 296.616 214.782 296.736 215.294 296.976C215.806 297.211 216.203 297.552 216.486 298C216.768 298.443 216.91 298.968 216.91 299.576V305H215.07V303.808C214.814 304.256 214.464 304.6 214.022 304.84C213.584 305.075 213.067 305.192 212.47 305.192C211.942 305.192 211.467 305.093 211.046 304.896C210.63 304.693 210.304 304.413 210.07 304.056C209.835 303.693 209.718 303.283 209.718 302.824C209.718 302.387 209.83 301.984 210.054 301.616C210.283 301.243 210.6 300.939 211.006 300.704C211.411 300.469 211.867 300.325 212.374 300.272L214.51 300.048C214.675 300.032 214.806 299.973 214.902 299.872C214.998 299.765 215.046 299.611 215.046 299.408C215.04 299.019 214.894 298.704 214.606 298.464C214.318 298.224 213.942 298.104 213.478 298.104C213.179 298.104 212.904 298.157 212.654 298.264C212.408 298.365 212.211 298.504 212.062 298.68C211.912 298.856 211.824 299.051 211.798 299.264H209.918C209.971 298.752 210.16 298.296 210.486 297.896C210.811 297.496 211.238 297.184 211.766 296.96C212.294 296.731 212.88 296.616 213.526 296.616ZM211.654 302.608C211.654 302.949 211.787 303.227 212.054 303.44C212.32 303.653 212.664 303.76 213.086 303.76C213.47 303.76 213.808 303.683 214.102 303.528C214.4 303.373 214.632 303.16 214.798 302.888C214.963 302.611 215.046 302.293 215.046 301.936V301.208L212.83 301.464C212.478 301.501 212.192 301.621 211.974 301.824C211.76 302.027 211.654 302.288 211.654 302.608ZM220.907 296.808V298.088C221.2 297.619 221.592 297.256 222.083 297C222.573 296.744 223.131 296.616 223.755 296.616C224.491 296.616 225.147 296.797 225.723 297.16C226.304 297.517 226.755 298.021 227.075 298.672C227.4 299.323 227.563 300.067 227.563 300.904C227.563 301.741 227.4 302.485 227.075 303.136C226.755 303.787 226.304 304.293 225.723 304.656C225.147 305.013 224.491 305.192 223.755 305.192C223.147 305.192 222.6 305.069 222.115 304.824C221.635 304.579 221.245 304.232 220.947 303.784V307.576H219.051V296.808H220.907ZM220.947 300.904C220.947 301.411 221.045 301.861 221.243 302.256C221.44 302.645 221.715 302.949 222.067 303.168C222.419 303.381 222.821 303.488 223.275 303.488C223.728 303.488 224.128 303.381 224.475 303.168C224.827 302.949 225.099 302.645 225.291 302.256C225.488 301.861 225.587 301.411 225.587 300.904C225.587 300.397 225.488 299.949 225.291 299.56C225.099 299.165 224.827 298.861 224.475 298.648C224.128 298.429 223.728 298.32 223.275 298.32C222.821 298.32 222.419 298.429 222.067 298.648C221.715 298.861 221.44 299.165 221.243 299.56C221.045 299.949 220.947 300.397 220.947 300.904Z" fill="#FF7936"/>
<rect x="85" y="335" width="246" height="48" rx="6" fill="white"/>
<path d="M157.418 365.192C156.618 365.192 155.908 365.048 155.29 364.76C154.671 364.467 154.186 364.059 153.834 363.536C153.487 363.008 153.311 362.405 153.306 361.728H155.298C155.298 362.075 155.388 362.381 155.57 362.648C155.751 362.915 156.002 363.123 156.322 363.272C156.647 363.421 157.02 363.496 157.442 363.496C157.852 363.496 158.212 363.429 158.522 363.296C158.831 363.157 159.068 362.968 159.234 362.728C159.404 362.483 159.49 362.2 159.49 361.88C159.49 361.48 159.367 361.136 159.122 360.848C158.882 360.56 158.562 360.381 158.162 360.312L156.242 359.992C155.703 359.901 155.234 359.712 154.834 359.424C154.434 359.131 154.124 358.765 153.906 358.328C153.692 357.891 153.586 357.411 153.586 356.888C153.586 356.259 153.748 355.696 154.074 355.2C154.399 354.699 154.85 354.309 155.426 354.032C156.007 353.749 156.666 353.608 157.402 353.608C158.154 353.608 158.82 353.744 159.402 354.016C159.988 354.288 160.444 354.669 160.77 355.16C161.095 355.651 161.26 356.211 161.266 356.84H159.282C159.282 356.541 159.204 356.277 159.05 356.048C158.895 355.813 158.676 355.632 158.394 355.504C158.116 355.371 157.794 355.304 157.426 355.304C157.063 355.304 156.74 355.368 156.458 355.496C156.18 355.619 155.964 355.795 155.81 356.024C155.655 356.248 155.578 356.507 155.578 356.8C155.578 357.147 155.69 357.448 155.914 357.704C156.138 357.955 156.434 358.112 156.802 358.176L158.666 358.48C159.22 358.571 159.711 358.776 160.138 359.096C160.57 359.416 160.903 359.811 161.138 360.28C161.378 360.749 161.498 361.251 161.498 361.784C161.498 362.429 161.324 363.011 160.978 363.528C160.636 364.045 160.156 364.453 159.538 364.752C158.919 365.045 158.212 365.192 157.418 365.192ZM166.329 365C165.892 365 165.497 364.907 165.145 364.72C164.799 364.533 164.527 364.275 164.329 363.944C164.137 363.613 164.041 363.237 164.041 362.816L164.033 358.448H162.593L162.601 356.808H163.497C163.7 356.808 163.863 356.747 163.985 356.624C164.108 356.496 164.169 356.333 164.169 356.136V354.816H165.937V356.808H167.905L167.897 358.448H165.929L165.937 362.584C165.937 362.808 166.009 362.995 166.153 363.144C166.303 363.288 166.489 363.36 166.713 363.36H167.897V365H166.329ZM173.01 356.616C173.677 356.616 174.266 356.736 174.778 356.976C175.29 357.211 175.687 357.552 175.97 358C176.253 358.443 176.394 358.968 176.394 359.576V365H174.554V363.808C174.298 364.256 173.949 364.6 173.506 364.84C173.069 365.075 172.551 365.192 171.954 365.192C171.426 365.192 170.951 365.093 170.53 364.896C170.114 364.693 169.789 364.413 169.554 364.056C169.319 363.693 169.202 363.283 169.202 362.824C169.202 362.387 169.314 361.984 169.538 361.616C169.767 361.243 170.085 360.939 170.49 360.704C170.895 360.469 171.351 360.325 171.858 360.272L173.994 360.048C174.159 360.032 174.29 359.973 174.386 359.872C174.482 359.765 174.53 359.611 174.53 359.408C174.525 359.019 174.378 358.704 174.09 358.464C173.802 358.224 173.426 358.104 172.962 358.104C172.663 358.104 172.389 358.157 172.138 358.264C171.893 358.365 171.695 358.504 171.546 358.68C171.397 358.856 171.309 359.051 171.282 359.264H169.402C169.455 358.752 169.645 358.296 169.97 357.896C170.295 357.496 170.722 357.184 171.25 356.96C171.778 356.731 172.365 356.616 173.01 356.616ZM171.138 362.608C171.138 362.949 171.271 363.227 171.538 363.44C171.805 363.653 172.149 363.76 172.57 363.76C172.954 363.76 173.293 363.683 173.586 363.528C173.885 363.373 174.117 363.16 174.282 362.888C174.447 362.611 174.53 362.293 174.53 361.936V361.208L172.314 361.464C171.962 361.501 171.677 361.621 171.458 361.824C171.245 362.027 171.138 362.288 171.138 362.608ZM181.423 365C180.986 365 180.591 364.907 180.239 364.72C179.892 364.533 179.62 364.275 179.423 363.944C179.231 363.613 179.135 363.237 179.135 362.816L179.127 358.448H177.687L177.695 356.808H178.591C178.794 356.808 178.956 356.747 179.079 356.624C179.202 356.496 179.263 356.333 179.263 356.136V354.816H181.031V356.808H182.999L182.991 358.448H181.023L181.031 362.584C181.031 362.808 181.103 362.995 181.247 363.144C181.396 363.288 181.583 363.36 181.807 363.36H182.991V365H181.423ZM184.832 356.808H186.736V365H184.832V356.808ZM186.808 353.8V355.608H184.744V353.8H186.808ZM192.723 365.192C191.923 365.192 191.197 365.005 190.547 364.632C189.896 364.259 189.384 363.747 189.011 363.096C188.643 362.44 188.459 361.709 188.459 360.904C188.459 360.099 188.643 359.371 189.011 358.72C189.384 358.064 189.896 357.549 190.547 357.176C191.197 356.803 191.923 356.616 192.723 356.616C193.421 356.616 194.056 356.744 194.627 357C195.197 357.251 195.664 357.616 196.027 358.096C196.395 358.571 196.627 359.139 196.723 359.8H194.819C194.675 359.315 194.413 358.947 194.035 358.696C193.656 358.445 193.221 358.32 192.731 358.32C192.293 358.32 191.899 358.432 191.547 358.656C191.2 358.875 190.928 359.181 190.731 359.576C190.533 359.965 190.435 360.408 190.435 360.904C190.435 361.4 190.533 361.845 190.731 362.24C190.928 362.629 191.2 362.936 191.547 363.16C191.899 363.379 192.293 363.488 192.731 363.488C193.221 363.488 193.656 363.363 194.035 363.112C194.413 362.861 194.675 362.493 194.819 362.008H196.723C196.627 362.659 196.392 363.224 196.019 363.704C195.645 364.184 195.173 364.552 194.603 364.808C194.032 365.064 193.405 365.192 192.723 365.192ZM202.065 353.8H204.601L208.033 361.888L208.225 362.512L208.409 361.888L211.769 353.8H214.337V365H212.377V357.032L212.401 356.608L208.921 365H207.457L203.993 356.664L204.017 357.032V365H202.065V353.8ZM220.51 365.192C219.71 365.192 218.99 365.008 218.35 364.64C217.715 364.272 217.219 363.763 216.862 363.112C216.504 362.456 216.326 361.717 216.326 360.896C216.326 360.085 216.507 359.355 216.87 358.704C217.232 358.053 217.731 357.544 218.366 357.176C219.006 356.803 219.72 356.616 220.51 356.616C221.32 356.616 222.03 356.8 222.638 357.168C223.251 357.536 223.723 358.045 224.054 358.696C224.384 359.341 224.55 360.075 224.55 360.896V361.416H218.302C218.355 361.843 218.486 362.219 218.694 362.544C218.902 362.869 219.168 363.123 219.494 363.304C219.819 363.48 220.182 363.568 220.582 363.568C221.051 363.568 221.448 363.499 221.774 363.36C222.099 363.221 222.35 363.021 222.526 362.76H224.406C224.32 363.16 224.11 363.547 223.774 363.92C223.438 364.293 222.99 364.6 222.43 364.84C221.87 365.075 221.23 365.192 220.51 365.192ZM222.598 360.096C222.502 359.509 222.275 359.045 221.918 358.704C221.566 358.363 221.099 358.192 220.518 358.192C219.942 358.192 219.456 358.363 219.062 358.704C218.672 359.045 218.424 359.509 218.318 360.096H222.598ZM226.269 356.808H228.117V358.04C228.363 357.581 228.691 357.229 229.101 356.984C229.512 356.739 229.989 356.616 230.533 356.616C231.12 356.616 231.627 356.752 232.053 357.024C232.48 357.291 232.805 357.672 233.029 358.168C233.296 357.677 233.656 357.296 234.109 357.024C234.563 356.752 235.088 356.616 235.685 356.616C236.267 356.616 236.773 356.749 237.205 357.016C237.643 357.277 237.981 357.651 238.221 358.136C238.461 358.621 238.581 359.187 238.581 359.832V365H236.677V360.056C236.677 359.507 236.539 359.075 236.261 358.76C235.989 358.44 235.605 358.28 235.109 358.28C234.757 358.28 234.448 358.36 234.181 358.52C233.92 358.68 233.717 358.909 233.573 359.208C233.429 359.501 233.357 359.848 233.357 360.248V365H231.493V360.056C231.493 359.507 231.355 359.075 231.077 358.76C230.8 358.44 230.416 358.28 229.925 358.28C229.387 358.28 228.96 358.459 228.645 358.816C228.331 359.168 228.173 359.645 228.173 360.248V365H226.269V356.808ZM244.435 365.192C243.619 365.192 242.883 365.008 242.227 364.64C241.571 364.272 241.054 363.763 240.675 363.112C240.302 362.461 240.115 361.725 240.115 360.904C240.115 360.083 240.302 359.347 240.675 358.696C241.054 358.045 241.571 357.536 242.227 357.168C242.888 356.8 243.627 356.616 244.443 356.616C245.259 356.616 245.995 356.8 246.651 357.168C247.307 357.536 247.822 358.045 248.195 358.696C248.568 359.347 248.755 360.083 248.755 360.904C248.755 361.725 248.568 362.461 248.195 363.112C247.822 363.763 247.307 364.272 246.651 364.64C245.995 365.008 245.256 365.192 244.435 365.192ZM242.091 360.904C242.091 361.411 242.192 361.859 242.395 362.248C242.603 362.637 242.886 362.941 243.243 363.16C243.6 363.373 244.003 363.48 244.451 363.48C244.894 363.48 245.291 363.373 245.643 363.16C246 362.941 246.278 362.637 246.475 362.248C246.678 361.859 246.779 361.411 246.779 360.904C246.779 360.397 246.678 359.949 246.475 359.56C246.272 359.165 245.992 358.861 245.635 358.648C245.283 358.429 244.886 358.32 244.443 358.32C244 358.32 243.6 358.429 243.243 358.648C242.886 358.861 242.603 359.165 242.395 359.56C242.192 359.949 242.091 360.397 242.091 360.904ZM250.488 356.808H252.376V358.04C252.637 357.624 252.963 357.307 253.352 357.088C253.741 356.864 254.187 356.752 254.688 356.752H254.992V358.672H254.448C253.813 358.667 253.312 358.835 252.944 359.176C252.576 359.517 252.392 359.984 252.392 360.576V365H250.488V356.808ZM256.09 366H257.234C257.448 366 257.634 365.941 257.794 365.824C257.96 365.712 258.082 365.56 258.162 365.368L258.554 364.52L255.402 356.808H257.378L259.498 362.312L261.442 356.808H263.37L259.97 365.552C259.73 366.176 259.4 366.667 258.978 367.024C258.562 367.381 258.024 367.56 257.362 367.56H256.09V366Z" fill="#FF7936"/>
<rect x="432" y="63" width="294" height="349" rx="8" fill="#8473FF"/>
<path d="M538.092 95.5H542.379V105.51H553.544V95.5H557.832V120H553.544V109.517H542.379V120H538.092V95.5ZM571.331 120.42C569.581 120.42 568.006 120.017 566.606 119.212C565.217 118.407 564.132 117.293 563.351 115.87C562.569 114.435 562.178 112.819 562.178 111.022C562.178 109.249 562.575 107.651 563.368 106.227C564.161 104.804 565.252 103.69 566.641 102.885C568.041 102.068 569.604 101.66 571.331 101.66C573.104 101.66 574.656 102.062 575.986 102.867C577.327 103.672 578.36 104.787 579.083 106.21C579.806 107.622 580.168 109.226 580.168 111.022V112.16H566.501C566.617 113.093 566.903 113.916 567.358 114.627C567.813 115.339 568.396 115.893 569.108 116.29C569.82 116.675 570.613 116.867 571.488 116.867C572.515 116.867 573.384 116.716 574.096 116.412C574.807 116.109 575.356 115.672 575.741 115.1H579.853C579.666 115.975 579.206 116.821 578.471 117.637C577.736 118.454 576.756 119.125 575.531 119.65C574.306 120.163 572.906 120.42 571.331 120.42ZM575.898 109.272C575.688 107.989 575.192 106.974 574.411 106.227C573.641 105.481 572.62 105.107 571.348 105.107C570.088 105.107 569.026 105.481 568.163 106.227C567.311 106.974 566.769 107.989 566.536 109.272H575.898ZM591.088 101.66C592.546 101.66 593.835 101.922 594.955 102.447C596.075 102.961 596.944 103.707 597.563 104.687C598.181 105.656 598.49 106.805 598.49 108.135V120H594.465V117.392C593.905 118.372 593.141 119.125 592.173 119.65C591.216 120.163 590.084 120.42 588.778 120.42C587.623 120.42 586.584 120.204 585.663 119.772C584.753 119.329 584.041 118.717 583.528 117.935C583.014 117.142 582.758 116.243 582.758 115.24C582.758 114.283 583.003 113.402 583.493 112.597C583.994 111.781 584.688 111.116 585.575 110.602C586.462 110.089 587.459 109.774 588.568 109.657L593.24 109.167C593.602 109.132 593.888 109.004 594.098 108.782C594.308 108.549 594.413 108.211 594.413 107.767C594.401 106.916 594.08 106.227 593.45 105.702C592.82 105.177 591.998 104.915 590.983 104.915C590.329 104.915 589.728 105.032 589.18 105.265C588.643 105.487 588.212 105.79 587.885 106.175C587.558 106.56 587.366 106.986 587.308 107.452H583.195C583.312 106.332 583.726 105.335 584.438 104.46C585.149 103.585 586.083 102.902 587.238 102.413C588.393 101.911 589.676 101.66 591.088 101.66ZM586.993 114.767C586.993 115.514 587.284 116.121 587.868 116.587C588.451 117.054 589.203 117.287 590.125 117.287C590.965 117.287 591.706 117.118 592.348 116.78C593.001 116.442 593.508 115.975 593.87 115.38C594.232 114.773 594.413 114.079 594.413 113.297V111.705L589.565 112.265C588.795 112.347 588.171 112.609 587.693 113.052C587.226 113.496 586.993 114.067 586.993 114.767ZM607.233 102.08V104.88C607.875 103.853 608.732 103.06 609.806 102.5C610.879 101.94 612.098 101.66 613.463 101.66C615.073 101.66 616.508 102.057 617.768 102.85C619.04 103.632 620.026 104.734 620.726 106.157C621.437 107.581 621.793 109.208 621.793 111.04C621.793 112.872 621.437 114.499 620.726 115.922C620.026 117.346 619.04 118.454 617.768 119.247C616.508 120.029 615.073 120.42 613.463 120.42C612.133 120.42 610.937 120.152 609.876 119.615C608.826 119.078 607.974 118.32 607.321 117.34V125.635H603.173V102.08H607.233ZM607.321 111.04C607.321 112.148 607.537 113.134 607.968 113.997C608.4 114.849 609.001 115.514 609.771 115.992C610.541 116.459 611.422 116.692 612.413 116.692C613.405 116.692 614.28 116.459 615.038 115.992C615.808 115.514 616.403 114.849 616.823 113.997C617.255 113.134 617.471 112.148 617.471 111.04C617.471 109.932 617.255 108.952 616.823 108.1C616.403 107.237 615.808 106.572 615.038 106.105C614.28 105.627 613.405 105.387 612.413 105.387C611.422 105.387 610.541 105.627 609.771 106.105C609.001 106.572 608.4 107.237 607.968 108.1C607.537 108.952 607.321 109.932 607.321 111.04Z" fill="white"/>
<rect x="447.5" y="153.5" width="78" height="39" fill="white"/>
<path d="M482.935 181.88V170.2H484.887V171.88H484.919C485.015 171.293 485.266 170.84 485.671 170.52C486.087 170.2 486.615 170.04 487.255 170.04C488.14 170.04 488.85 170.344 489.383 170.952C489.916 171.56 490.183 172.376 490.183 173.4V175.784C490.183 176.819 489.916 177.64 489.383 178.248C488.85 178.856 488.14 179.16 487.255 179.16C486.615 179.16 486.087 179 485.671 178.68C485.266 178.349 485.015 177.896 484.919 177.32H484.871L484.935 179.416V181.88H482.935ZM486.551 177.432C487.063 177.432 487.463 177.283 487.751 176.984C488.039 176.685 488.183 176.259 488.183 175.704V173.496C488.183 172.941 488.039 172.515 487.751 172.216C487.463 171.917 487.063 171.768 486.551 171.768C486.05 171.768 485.655 171.923 485.367 172.232C485.079 172.531 484.935 172.952 484.935 173.496V175.704C484.935 176.248 485.079 176.675 485.367 176.984C485.655 177.283 486.05 177.432 486.551 177.432Z" fill="#8473FF"/>
<rect x="447.5" y="153.5" width="78" height="39" stroke="#8473FF"/>
<rect x="525.5" y="153.5" width="185" height="39" fill="#D2D2D2"/>
<rect x="525.5" y="153.5" width="185" height="39" stroke="#8473FF"/>
<rect x="447.5" y="192.5" width="263" height="39" fill="#D2D2D2"/>
<rect x="447.5" y="192.5" width="263" height="39" stroke="#8473FF"/>
<rect x="447.5" y="231.5" width="263" height="39" fill="white"/>
<path d="M580.571 259.88V257.416L580.635 255.32H580.571C580.475 255.896 580.224 256.349 579.819 256.68C579.424 257 578.902 257.16 578.251 257.16C577.366 257.16 576.662 256.856 576.139 256.248C575.616 255.64 575.355 254.819 575.355 253.784V251.4C575.355 250.376 575.616 249.56 576.139 248.952C576.662 248.344 577.366 248.04 578.251 248.04C578.902 248.04 579.43 248.2 579.835 248.52C580.24 248.84 580.486 249.293 580.571 249.88H580.619V248.2H582.571V259.88H580.571ZM578.955 255.432C579.467 255.432 579.862 255.283 580.139 254.984C580.427 254.675 580.571 254.248 580.571 253.704V251.496C580.571 250.952 580.427 250.531 580.139 250.232C579.862 249.923 579.467 249.768 578.955 249.768C578.443 249.768 578.048 249.917 577.771 250.216C577.494 250.515 577.355 250.941 577.355 251.496V253.704C577.355 254.259 577.494 254.685 577.771 254.984C578.048 255.283 578.443 255.432 578.955 255.432Z" fill="#8473FF"/>
<rect x="447.5" y="231.5" width="263" height="39" stroke="#8473FF"/>
<rect x="447.5" y="270.5" width="263" height="39" fill="#D2D2D2"/>
<rect x="447.5" y="270.5" width="263" height="39" stroke="#8473FF"/>
<rect x="447.5" y="309.5" width="131" height="39" fill="white"/>
<rect x="447.5" y="309.5" width="131" height="39" stroke="#8473FF"/>
<rect x="578.5" y="309.5" width="132" height="39" fill="#D2D2D2"/>
<rect x="578.5" y="309.5" width="132" height="39" stroke="#8473FF"/>
<rect x="447.5" y="348.5" width="66" height="39" fill="white"/>
<rect x="447.5" y="348.5" width="66" height="39" stroke="#8473FF"/>
<rect x="513.5" y="348.5" width="65" height="39" fill="#D2D2D2"/>
<rect x="513.5" y="348.5" width="65" height="39" stroke="#8473FF"/>
<rect x="578.5" y="348.5" width="65" height="39" fill="white"/>
<rect x="578.5" y="348.5" width="65" height="39" stroke="#8473FF"/>
<rect x="643.5" y="348.5" width="67" height="39" fill="#D2D2D2"/>
<path d="M683.5 361C683.5 362.381 682.381 363.5 681 363.5C679.619 363.5 678.5 362.381 678.5 361C678.5 359.619 679.619 358.5 681 358.5C682.381 358.5 683.5 359.619 683.5 361Z" fill="white"/>
<path d="M686.866 366.781C687.521 367.343 687.929 368.14 688 369V377H674V369C674.071 368.14 674.479 367.343 675.134 366.781C675.789 366.22 676.639 365.939 677.5 366H684.5C685.361 365.939 686.211 366.22 686.866 366.781Z" fill="white"/>
<rect x="643.5" y="348.5" width="67" height="39" stroke="#8473FF"/>
<path d="M431.5 120L404 120C401.791 120 400 121.791 400 124L400 297C400 299.209 398.209 301 396 301L332 301" stroke="#8473FF" stroke-width="2"/>
<circle cx="4" cy="4" r="4" transform="matrix(1.19249e-08 1 1 -1.19249e-08 428 116)" fill="#8473FF"/>
<circle cx="4" cy="4" r="4" transform="matrix(1.19249e-08 1 1 -1.19249e-08 327 297)" fill="#8473FF"/>
</svg>
