<?xml version="1.0" encoding="utf-8"?>
<!-- Generator: Adobe Illustrator 27.2.0, SVG Export Plug-In . SVG Version: 6.00 Build 0)  -->
<svg version="1.1" id="Layer_1" xmlns="http://www.w3.org/2000/svg" xmlns:xlink="http://www.w3.org/1999/xlink" x="0px" y="0px"
	 viewBox="0 0 352 405" style="enable-background:new 0 0 352 405;" xml:space="preserve">
<style type="text/css">
	.st0{fill:#FF7936;}
	.st1{fill:#FFFFFF;}
</style>
<g>
	<path class="st0" d="M37,31h278c4.4,0,8,3.6,8,8v328c0,4.4-3.6,8-8,8H37c-4.4,0-8-3.6-8-8V39C29,34.6,32.6,31,37,31z"/>
	<path class="st1" d="M104.4,62h3.2l4.3,10.1l0.2,0.8l0.2-0.8l4.2-10.1h3.2v14h-2.5V66l0-0.5L112.9,76h-1.8l-4.3-10.4l0,0.5v10h-2.4
		V62z M127.4,76.2c-1,0-1.9-0.2-2.7-0.7c-0.8-0.5-1.4-1.1-1.9-1.9c-0.4-0.8-0.7-1.7-0.7-2.8c0-1,0.2-1.9,0.7-2.7
		c0.5-0.8,1.1-1.4,1.9-1.9c0.8-0.5,1.7-0.7,2.7-0.7c1,0,1.9,0.2,2.7,0.7c0.8,0.5,1.4,1.1,1.8,1.9c0.4,0.8,0.6,1.7,0.6,2.8v0.6h-7.8
		c0.1,0.5,0.2,1,0.5,1.4c0.3,0.4,0.6,0.7,1,0.9c0.4,0.2,0.9,0.3,1.4,0.3c0.6,0,1.1-0.1,1.5-0.3c0.4-0.2,0.7-0.4,0.9-0.8h2.4
		c-0.1,0.5-0.4,1-0.8,1.5c-0.4,0.5-1,0.8-1.7,1.2C129.1,76.1,128.3,76.2,127.4,76.2z M130,69.9c-0.1-0.7-0.4-1.3-0.9-1.7
		c-0.4-0.4-1-0.6-1.8-0.6c-0.7,0-1.3,0.2-1.8,0.6c-0.5,0.4-0.8,1-0.9,1.7H130z M134.6,65.8h2.3v1.5c0.3-0.6,0.7-1,1.2-1.3
		c0.5-0.3,1.1-0.5,1.8-0.5c0.7,0,1.4,0.2,1.9,0.5c0.5,0.3,0.9,0.8,1.2,1.4c0.3-0.6,0.8-1.1,1.3-1.4c0.6-0.3,1.2-0.5,2-0.5
		c0.7,0,1.4,0.2,1.9,0.5c0.5,0.3,1,0.8,1.3,1.4c0.3,0.6,0.5,1.3,0.5,2.1V76h-2.4v-6.2c0-0.7-0.2-1.2-0.5-1.6
		c-0.3-0.4-0.8-0.6-1.4-0.6c-0.4,0-0.8,0.1-1.2,0.3c-0.3,0.2-0.6,0.5-0.8,0.9c-0.2,0.4-0.3,0.8-0.3,1.3V76h-2.3v-6.2
		c0-0.7-0.2-1.2-0.5-1.6c-0.3-0.4-0.8-0.6-1.4-0.6c-0.7,0-1.2,0.2-1.6,0.7c-0.4,0.4-0.6,1-0.6,1.8V76h-2.4V65.8z M157.3,76.2
		c-1,0-1.9-0.2-2.8-0.7c-0.8-0.5-1.5-1.1-1.9-1.9c-0.5-0.8-0.7-1.7-0.7-2.8c0-1,0.2-1.9,0.7-2.8c0.5-0.8,1.1-1.5,1.9-1.9
		c0.8-0.5,1.8-0.7,2.8-0.7c1,0,1.9,0.2,2.8,0.7s1.5,1.1,1.9,1.9c0.5,0.8,0.7,1.7,0.7,2.8c0,1-0.2,1.9-0.7,2.8
		c-0.5,0.8-1.1,1.4-1.9,1.9C159.3,76,158.4,76.2,157.3,76.2z M154.4,70.9c0,0.6,0.1,1.2,0.4,1.7c0.3,0.5,0.6,0.9,1.1,1.1
		c0.4,0.3,1,0.4,1.5,0.4c0.6,0,1.1-0.1,1.5-0.4c0.4-0.3,0.8-0.7,1-1.1c0.3-0.5,0.4-1,0.4-1.7s-0.1-1.2-0.4-1.7
		c-0.3-0.5-0.6-0.9-1-1.1c-0.4-0.3-0.9-0.4-1.5-0.4c-0.6,0-1.1,0.1-1.5,0.4c-0.4,0.3-0.8,0.6-1.1,1.1
		C154.5,69.7,154.4,70.2,154.4,70.9z M164.9,65.8h2.4v1.5c0.3-0.5,0.7-0.9,1.2-1.2c0.5-0.3,1-0.4,1.7-0.4h0.4v2.4h-0.7
		c-0.8,0-1.4,0.2-1.9,0.6c-0.5,0.4-0.7,1-0.7,1.8V76h-2.4V65.8z M171.9,77.2h1.4c0.3,0,0.5-0.1,0.7-0.2c0.2-0.1,0.4-0.3,0.5-0.6
		l0.5-1.1l-3.9-9.6h2.5l2.7,6.9l2.4-6.9h2.4l-4.2,10.9c-0.3,0.8-0.7,1.4-1.2,1.8c-0.5,0.4-1.2,0.7-2,0.7h-1.6V77.2z M189.5,62v11.7
		h6.8V76h-9.2V62H189.5z M202.2,65.5c0.8,0,1.6,0.2,2.2,0.5c0.6,0.3,1.1,0.7,1.5,1.3c0.4,0.6,0.5,1.2,0.5,2V76h-2.3v-1.5
		c-0.3,0.6-0.8,1-1.3,1.3c-0.5,0.3-1.2,0.4-1.9,0.4c-0.7,0-1.3-0.1-1.8-0.4c-0.5-0.3-0.9-0.6-1.2-1.1c-0.3-0.5-0.4-1-0.4-1.5
		c0-0.5,0.1-1,0.4-1.5c0.3-0.5,0.7-0.8,1.2-1.1c0.5-0.3,1.1-0.5,1.7-0.5l2.7-0.3c0.2,0,0.4-0.1,0.5-0.2c0.1-0.1,0.2-0.3,0.2-0.6
		c0-0.5-0.2-0.9-0.5-1.2c-0.4-0.3-0.8-0.5-1.4-0.5c-0.4,0-0.7,0.1-1,0.2c-0.3,0.1-0.6,0.3-0.7,0.5c-0.2,0.2-0.3,0.5-0.3,0.7h-2.3
		c0.1-0.6,0.3-1.2,0.7-1.7c0.4-0.5,0.9-0.9,1.6-1.2C200.7,65.7,201.4,65.5,202.2,65.5z M199.9,73c0,0.4,0.2,0.8,0.5,1
		c0.3,0.3,0.8,0.4,1.3,0.4c0.5,0,0.9-0.1,1.3-0.3c0.4-0.2,0.7-0.5,0.9-0.8c0.2-0.3,0.3-0.7,0.3-1.2v-0.9l-2.8,0.3
		c-0.4,0-0.8,0.2-1.1,0.4C200,72.3,199.9,72.6,199.9,73z M208.6,77.2h1.4c0.3,0,0.5-0.1,0.7-0.2c0.2-0.1,0.4-0.3,0.5-0.6l0.5-1.1
		l-3.9-9.6h2.5l2.7,6.9l2.4-6.9h2.4l-4.2,10.9c-0.3,0.8-0.7,1.4-1.2,1.8c-0.5,0.4-1.2,0.7-2,0.7h-1.6V77.2z M223.5,76.2
		c-1,0-1.9-0.2-2.8-0.7c-0.8-0.5-1.5-1.1-1.9-1.9c-0.5-0.8-0.7-1.7-0.7-2.8c0-1,0.2-1.9,0.7-2.8c0.5-0.8,1.1-1.5,1.9-1.9
		c0.8-0.5,1.8-0.7,2.8-0.7c1,0,1.9,0.2,2.8,0.7s1.5,1.1,1.9,1.9c0.5,0.8,0.7,1.7,0.7,2.8c0,1-0.2,1.9-0.7,2.8
		c-0.5,0.8-1.1,1.4-1.9,1.9C225.5,76,224.6,76.2,223.5,76.2z M220.6,70.9c0,0.6,0.1,1.2,0.4,1.7c0.3,0.5,0.6,0.9,1.1,1.1
		c0.4,0.3,0.9,0.4,1.5,0.4c0.6,0,1.1-0.1,1.5-0.4c0.4-0.3,0.8-0.7,1-1.1c0.3-0.5,0.4-1,0.4-1.7s-0.1-1.2-0.4-1.7
		c-0.3-0.5-0.6-0.9-1-1.1c-0.4-0.3-0.9-0.4-1.5-0.4c-0.6,0-1.1,0.1-1.5,0.4c-0.4,0.3-0.8,0.6-1.1,1.1
		C220.7,69.7,220.6,70.2,220.6,70.9z M240.1,76h-2.3v-1.5c-0.3,0.6-0.8,1-1.3,1.3c-0.5,0.3-1.2,0.4-1.9,0.4c-0.7,0-1.4-0.2-1.9-0.5
		c-0.6-0.3-1-0.8-1.3-1.4c-0.3-0.6-0.5-1.3-0.5-2.2v-6.4h2.4v6.1c0,0.7,0.2,1.3,0.6,1.7c0.4,0.4,0.9,0.6,1.6,0.6
		c0.5,0,0.9-0.1,1.2-0.3c0.4-0.2,0.6-0.5,0.8-0.9c0.2-0.4,0.3-0.8,0.3-1.3v-5.9h2.4V76z M246.6,76c-0.5,0-1-0.1-1.5-0.3
		c-0.4-0.2-0.8-0.6-1-1c-0.2-0.4-0.4-0.9-0.4-1.4l0-5.5h-1.8l0-2h1.1c0.3,0,0.5-0.1,0.6-0.2c0.2-0.2,0.2-0.4,0.2-0.6v-1.6h2.2v2.5
		h2.5l0,2h-2.5l0,5.2c0,0.3,0.1,0.5,0.3,0.7c0.2,0.2,0.4,0.3,0.7,0.3h1.5V76H246.6z"/>
	<path class="st1" d="M59,107h234c3.3,0,6,2.7,6,6v36c0,3.3-2.7,6-6,6H59c-3.3,0-6-2.7-6-6v-36C53,109.7,55.7,107,59,107z"/>
	<path class="st0" d="M159.5,137.2c-0.8,0-1.5-0.1-2.1-0.4c-0.6-0.3-1.1-0.7-1.5-1.2c-0.3-0.5-0.5-1.1-0.5-1.8h2
		c0,0.3,0.1,0.7,0.3,0.9c0.2,0.3,0.4,0.5,0.8,0.6c0.3,0.1,0.7,0.2,1.1,0.2c0.4,0,0.8-0.1,1.1-0.2c0.3-0.1,0.5-0.3,0.7-0.6
		c0.2-0.2,0.3-0.5,0.3-0.8c0-0.4-0.1-0.7-0.4-1c-0.2-0.3-0.6-0.5-1-0.5l-1.9-0.3c-0.5-0.1-1-0.3-1.4-0.6c-0.4-0.3-0.7-0.7-0.9-1.1
		c-0.2-0.4-0.3-0.9-0.3-1.4c0-0.6,0.2-1.2,0.5-1.7c0.3-0.5,0.8-0.9,1.4-1.2c0.6-0.3,1.2-0.4,2-0.4c0.8,0,1.4,0.1,2,0.4
		c0.6,0.3,1,0.7,1.4,1.1c0.3,0.5,0.5,1.1,0.5,1.7h-2c0-0.3-0.1-0.6-0.2-0.8c-0.2-0.2-0.4-0.4-0.7-0.5c-0.3-0.1-0.6-0.2-1-0.2
		c-0.4,0-0.7,0.1-1,0.2c-0.3,0.1-0.5,0.3-0.6,0.5c-0.2,0.2-0.2,0.5-0.2,0.8c0,0.3,0.1,0.6,0.3,0.9c0.2,0.3,0.5,0.4,0.9,0.5l1.9,0.3
		c0.6,0.1,1,0.3,1.5,0.6c0.4,0.3,0.8,0.7,1,1.2c0.2,0.5,0.4,1,0.4,1.5c0,0.6-0.2,1.2-0.5,1.7c-0.3,0.5-0.8,0.9-1.4,1.2
		C161,137,160.3,137.2,159.5,137.2z M168.4,137c-0.4,0-0.8-0.1-1.2-0.3c-0.3-0.2-0.6-0.4-0.8-0.8c-0.2-0.3-0.3-0.7-0.3-1.1l0-4.4
		h-1.4l0-1.6h0.9c0.2,0,0.4-0.1,0.5-0.2c0.1-0.1,0.2-0.3,0.2-0.5v-1.3h1.8v2h2l0,1.6h-2l0,4.1c0,0.2,0.1,0.4,0.2,0.6
		c0.1,0.1,0.3,0.2,0.6,0.2h1.2v1.6H168.4z M175.1,128.6c0.7,0,1.3,0.1,1.8,0.4c0.5,0.2,0.9,0.6,1.2,1c0.3,0.4,0.4,1,0.4,1.6v5.4
		h-1.8v-1.2c-0.3,0.4-0.6,0.8-1,1c-0.4,0.2-1,0.4-1.6,0.4c-0.5,0-1-0.1-1.4-0.3c-0.4-0.2-0.7-0.5-1-0.8c-0.2-0.4-0.4-0.8-0.4-1.2
		c0-0.4,0.1-0.8,0.3-1.2c0.2-0.4,0.5-0.7,1-0.9c0.4-0.2,0.9-0.4,1.4-0.4l2.1-0.2c0.2,0,0.3-0.1,0.4-0.2c0.1-0.1,0.1-0.3,0.1-0.5
		c0-0.4-0.2-0.7-0.4-0.9c-0.3-0.2-0.7-0.4-1.1-0.4c-0.3,0-0.6,0.1-0.8,0.2c-0.2,0.1-0.4,0.2-0.6,0.4c-0.2,0.2-0.2,0.4-0.3,0.6h-1.9
		c0.1-0.5,0.2-1,0.6-1.4c0.3-0.4,0.8-0.7,1.3-0.9C173.8,128.7,174.4,128.6,175.1,128.6z M173.2,134.6c0,0.3,0.1,0.6,0.4,0.8
		c0.3,0.2,0.6,0.3,1,0.3c0.4,0,0.7-0.1,1-0.2c0.3-0.2,0.5-0.4,0.7-0.6c0.2-0.3,0.2-0.6,0.2-1v-0.7l-2.2,0.3c-0.4,0-0.6,0.2-0.9,0.4
		C173.3,134,173.2,134.3,173.2,134.6z M184.3,137.2c-0.8,0-1.5-0.2-2.2-0.6c-0.7-0.4-1.2-0.9-1.5-1.5c-0.4-0.7-0.6-1.4-0.6-2.2
		c0-0.8,0.2-1.5,0.6-2.2c0.4-0.7,0.9-1.2,1.5-1.5c0.7-0.4,1.4-0.6,2.2-0.6c0.7,0,1.3,0.1,1.9,0.4c0.6,0.3,1,0.6,1.4,1.1
		c0.4,0.5,0.6,1,0.7,1.7h-1.9c-0.1-0.5-0.4-0.9-0.8-1.1c-0.4-0.3-0.8-0.4-1.3-0.4c-0.4,0-0.8,0.1-1.2,0.3c-0.3,0.2-0.6,0.5-0.8,0.9
		c-0.2,0.4-0.3,0.8-0.3,1.3c0,0.5,0.1,0.9,0.3,1.3c0.2,0.4,0.5,0.7,0.8,0.9c0.4,0.2,0.7,0.3,1.2,0.3c0.5,0,0.9-0.1,1.3-0.4
		c0.4-0.3,0.6-0.6,0.8-1.1h1.9c-0.1,0.7-0.3,1.2-0.7,1.7c-0.4,0.5-0.8,0.8-1.4,1.1C185.6,137.1,185,137.2,184.3,137.2z M190,125.8
		h1.9v6.7l3.2-3.7h2.2l-3.3,3.9l3.5,4.3h-2.3l-3.2-4v4H190V125.8z"/>
	<path class="st1" d="M176,231l5.8-10h-11.5L176,231z M177,222.5v-8.5h-2v8.5H177z M177,209.7v-8.5h-2v8.5H177z M177,196.9v-8.5h-2
		v8.5H177z M177,184.1v-8.5h-2v8.5H177z M177,171.3V167h-2v4.3H177z"/>
	<path class="st1" d="M59,243h234c3.3,0,6,2.7,6,6v36c0,3.3-2.7,6-6,6H59c-3.3,0-6-2.7-6-6v-36C53,245.7,55.7,243,59,243z"/>
	<path class="st0" d="M157.3,261.8h2v4.6h5.1v-4.6h2V273h-2v-4.8h-5.1v4.8h-2V261.8z M172.5,273.2c-0.8,0-1.5-0.2-2.2-0.6
		c-0.6-0.4-1.1-0.9-1.5-1.5c-0.4-0.7-0.5-1.4-0.5-2.2c0-0.8,0.2-1.5,0.5-2.2s0.9-1.2,1.5-1.5c0.6-0.4,1.4-0.6,2.1-0.6
		c0.8,0,1.5,0.2,2.1,0.6c0.6,0.4,1.1,0.9,1.4,1.5c0.3,0.6,0.5,1.4,0.5,2.2v0.5h-6.2c0.1,0.4,0.2,0.8,0.4,1.1
		c0.2,0.3,0.5,0.6,0.8,0.8c0.3,0.2,0.7,0.3,1.1,0.3c0.5,0,0.9-0.1,1.2-0.2c0.3-0.1,0.6-0.3,0.8-0.6h1.9c-0.1,0.4-0.3,0.8-0.6,1.2
		c-0.3,0.4-0.8,0.7-1.3,0.9C173.9,273.1,173.2,273.2,172.5,273.2z M174.6,268.1c-0.1-0.6-0.3-1.1-0.7-1.4c-0.4-0.3-0.8-0.5-1.4-0.5
		c-0.6,0-1.1,0.2-1.5,0.5c-0.4,0.3-0.6,0.8-0.7,1.4H174.6z M181.5,264.6c0.7,0,1.3,0.1,1.8,0.4c0.5,0.2,0.9,0.6,1.2,1
		c0.3,0.4,0.4,1,0.4,1.6v5.4h-1.8v-1.2c-0.3,0.4-0.6,0.8-1,1c-0.4,0.2-1,0.4-1.6,0.4c-0.5,0-1-0.1-1.4-0.3c-0.4-0.2-0.7-0.5-1-0.8
		c-0.2-0.4-0.4-0.8-0.4-1.2c0-0.4,0.1-0.8,0.3-1.2c0.2-0.4,0.5-0.7,1-0.9c0.4-0.2,0.9-0.4,1.4-0.4l2.1-0.2c0.2,0,0.3-0.1,0.4-0.2
		c0.1-0.1,0.1-0.3,0.1-0.5c0-0.4-0.2-0.7-0.4-0.9c-0.3-0.2-0.7-0.4-1.1-0.4c-0.3,0-0.6,0.1-0.8,0.2c-0.2,0.1-0.4,0.2-0.6,0.4
		c-0.2,0.2-0.2,0.4-0.3,0.6h-1.9c0.1-0.5,0.2-1,0.6-1.4c0.3-0.4,0.8-0.7,1.3-0.9C180.3,264.7,180.9,264.6,181.5,264.6z M179.7,270.6
		c0,0.3,0.1,0.6,0.4,0.8c0.3,0.2,0.6,0.3,1,0.3c0.4,0,0.7-0.1,1-0.2c0.3-0.2,0.5-0.4,0.7-0.6c0.2-0.3,0.2-0.6,0.2-1v-0.7l-2.2,0.3
		c-0.4,0-0.6,0.2-0.9,0.4C179.8,270,179.7,270.3,179.7,270.6z M188.9,264.8v1.3c0.3-0.5,0.7-0.8,1.2-1.1c0.5-0.3,1-0.4,1.7-0.4
		c0.7,0,1.4,0.2,2,0.5c0.6,0.4,1,0.9,1.4,1.5c0.3,0.7,0.5,1.4,0.5,2.2s-0.2,1.6-0.5,2.2c-0.3,0.7-0.8,1.2-1.4,1.5
		c-0.6,0.4-1.2,0.5-2,0.5c-0.6,0-1.2-0.1-1.6-0.4c-0.5-0.2-0.9-0.6-1.2-1v3.8h-1.9v-10.8H188.9z M188.9,268.9c0,0.5,0.1,1,0.3,1.4
		c0.2,0.4,0.5,0.7,0.8,0.9c0.4,0.2,0.8,0.3,1.2,0.3c0.5,0,0.9-0.1,1.2-0.3c0.4-0.2,0.6-0.5,0.8-0.9c0.2-0.4,0.3-0.8,0.3-1.4
		c0-0.5-0.1-1-0.3-1.3c-0.2-0.4-0.5-0.7-0.8-0.9c-0.3-0.2-0.7-0.3-1.2-0.3c-0.5,0-0.9,0.1-1.2,0.3c-0.4,0.2-0.6,0.5-0.8,0.9
		C189,267.9,188.9,268.4,188.9,268.9z"/>
	<path class="st1" d="M59,303h234c3.3,0,6,2.7,6,6v36c0,3.3-2.7,6-6,6H59c-3.3,0-6-2.7-6-6v-36C53,305.7,55.7,303,59,303z"/>
	<path class="st0" d="M125.4,333.2c-0.8,0-1.5-0.1-2.1-0.4c-0.6-0.3-1.1-0.7-1.5-1.2c-0.3-0.5-0.5-1.1-0.5-1.8h2
		c0,0.3,0.1,0.7,0.3,0.9c0.2,0.3,0.4,0.5,0.8,0.6c0.3,0.1,0.7,0.2,1.1,0.2c0.4,0,0.8-0.1,1.1-0.2c0.3-0.1,0.5-0.3,0.7-0.6
		c0.2-0.2,0.3-0.5,0.3-0.8c0-0.4-0.1-0.7-0.4-1c-0.2-0.3-0.6-0.5-1-0.5l-1.9-0.3c-0.5-0.1-1-0.3-1.4-0.6c-0.4-0.3-0.7-0.7-0.9-1.1
		c-0.2-0.4-0.3-0.9-0.3-1.4c0-0.6,0.2-1.2,0.5-1.7c0.3-0.5,0.8-0.9,1.4-1.2c0.6-0.3,1.2-0.4,2-0.4c0.8,0,1.4,0.1,2,0.4
		c0.6,0.3,1,0.7,1.4,1.1c0.3,0.5,0.5,1.1,0.5,1.7h-2c0-0.3-0.1-0.6-0.2-0.8c-0.2-0.2-0.4-0.4-0.7-0.5c-0.3-0.1-0.6-0.2-1-0.2
		c-0.4,0-0.7,0.1-1,0.2c-0.3,0.1-0.5,0.3-0.6,0.5c-0.2,0.2-0.2,0.5-0.2,0.8c0,0.3,0.1,0.6,0.3,0.9c0.2,0.3,0.5,0.4,0.9,0.5l1.9,0.3
		c0.6,0.1,1,0.3,1.5,0.6c0.4,0.3,0.8,0.7,1,1.2c0.2,0.5,0.4,1,0.4,1.5c0,0.6-0.2,1.2-0.5,1.7c-0.3,0.5-0.8,0.9-1.4,1.2
		C126.9,333,126.2,333.2,125.4,333.2z M134.3,333c-0.4,0-0.8-0.1-1.2-0.3c-0.3-0.2-0.6-0.4-0.8-0.8c-0.2-0.3-0.3-0.7-0.3-1.1l0-4.4
		h-1.4l0-1.6h0.9c0.2,0,0.4-0.1,0.5-0.2c0.1-0.1,0.2-0.3,0.2-0.5v-1.3h1.8v2h2l0,1.6h-2l0,4.1c0,0.2,0.1,0.4,0.2,0.6
		c0.1,0.1,0.3,0.2,0.6,0.2h1.2v1.6H134.3z M141,324.6c0.7,0,1.3,0.1,1.8,0.4c0.5,0.2,0.9,0.6,1.2,1c0.3,0.4,0.4,1,0.4,1.6v5.4h-1.8
		v-1.2c-0.3,0.4-0.6,0.8-1,1c-0.4,0.2-1,0.4-1.6,0.4c-0.5,0-1-0.1-1.4-0.3c-0.4-0.2-0.7-0.5-1-0.8c-0.2-0.4-0.4-0.8-0.4-1.2
		c0-0.4,0.1-0.8,0.3-1.2c0.2-0.4,0.5-0.7,1-0.9c0.4-0.2,0.9-0.4,1.4-0.4l2.1-0.2c0.2,0,0.3-0.1,0.4-0.2c0.1-0.1,0.1-0.3,0.1-0.5
		c0-0.4-0.2-0.7-0.4-0.9c-0.3-0.2-0.7-0.4-1.1-0.4c-0.3,0-0.6,0.1-0.8,0.2c-0.2,0.1-0.4,0.2-0.6,0.4c-0.1,0.2-0.2,0.4-0.3,0.6h-1.9
		c0.1-0.5,0.2-1,0.6-1.4s0.8-0.7,1.3-0.9C139.8,324.7,140.4,324.6,141,324.6z M139.1,330.6c0,0.3,0.1,0.6,0.4,0.8s0.6,0.3,1,0.3
		c0.4,0,0.7-0.1,1-0.2c0.3-0.2,0.5-0.4,0.7-0.6c0.2-0.3,0.2-0.6,0.2-1v-0.7l-2.2,0.3c-0.4,0-0.6,0.2-0.9,0.4
		C139.2,330,139.1,330.3,139.1,330.6z M149.4,333c-0.4,0-0.8-0.1-1.2-0.3c-0.3-0.2-0.6-0.4-0.8-0.8c-0.2-0.3-0.3-0.7-0.3-1.1l0-4.4
		h-1.4l0-1.6h0.9c0.2,0,0.4-0.1,0.5-0.2c0.1-0.1,0.2-0.3,0.2-0.5v-1.3h1.8v2h2l0,1.6h-2l0,4.1c0,0.2,0.1,0.4,0.2,0.6
		c0.1,0.1,0.3,0.2,0.6,0.2h1.2v1.6H149.4z M152.8,324.8h1.9v8.2h-1.9V324.8z M154.8,321.8v1.8h-2.1v-1.8H154.8z M160.7,333.2
		c-0.8,0-1.5-0.2-2.2-0.6c-0.7-0.4-1.2-0.9-1.5-1.5c-0.4-0.7-0.6-1.4-0.6-2.2c0-0.8,0.2-1.5,0.6-2.2c0.4-0.7,0.9-1.2,1.5-1.5
		c0.7-0.4,1.4-0.6,2.2-0.6c0.7,0,1.3,0.1,1.9,0.4c0.6,0.3,1,0.6,1.4,1.1c0.4,0.5,0.6,1,0.7,1.7h-1.9c-0.1-0.5-0.4-0.9-0.8-1.1
		c-0.4-0.3-0.8-0.4-1.3-0.4c-0.4,0-0.8,0.1-1.2,0.3c-0.3,0.2-0.6,0.5-0.8,0.9c-0.2,0.4-0.3,0.8-0.3,1.3s0.1,0.9,0.3,1.3
		c0.2,0.4,0.5,0.7,0.8,0.9c0.4,0.2,0.7,0.3,1.2,0.3c0.5,0,0.9-0.1,1.3-0.4c0.4-0.3,0.6-0.6,0.8-1.1h1.9c-0.1,0.7-0.3,1.2-0.7,1.7
		c-0.4,0.5-0.8,0.8-1.4,1.1C162,333.1,161.4,333.2,160.7,333.2z M170.1,321.8h2.5l3.4,8.1l0.2,0.6l0.2-0.6l3.4-8.1h2.6V333h-2v-8
		l0-0.4l-3.5,8.4h-1.5l-3.5-8.3l0,0.4v8h-2V321.8z M188.5,333.2c-0.8,0-1.5-0.2-2.2-0.6c-0.6-0.4-1.1-0.9-1.5-1.5
		c-0.4-0.7-0.5-1.4-0.5-2.2c0-0.8,0.2-1.5,0.5-2.2c0.4-0.7,0.9-1.2,1.5-1.5c0.6-0.4,1.4-0.6,2.1-0.6c0.8,0,1.5,0.2,2.1,0.6
		c0.6,0.4,1.1,0.9,1.4,1.5c0.3,0.6,0.5,1.4,0.5,2.2v0.5h-6.2c0.1,0.4,0.2,0.8,0.4,1.1c0.2,0.3,0.5,0.6,0.8,0.8
		c0.3,0.2,0.7,0.3,1.1,0.3c0.5,0,0.9-0.1,1.2-0.2c0.3-0.1,0.6-0.3,0.8-0.6h1.9c-0.1,0.4-0.3,0.8-0.6,1.2c-0.3,0.4-0.8,0.7-1.3,0.9
		C189.9,333.1,189.2,333.2,188.5,333.2z M190.6,328.1c-0.1-0.6-0.3-1.1-0.7-1.4c-0.4-0.3-0.8-0.5-1.4-0.5c-0.6,0-1.1,0.2-1.5,0.5
		c-0.4,0.3-0.6,0.8-0.7,1.4H190.6z M194.3,324.8h1.8v1.2c0.2-0.5,0.6-0.8,1-1.1c0.4-0.2,0.9-0.4,1.4-0.4c0.6,0,1.1,0.1,1.5,0.4
		c0.4,0.3,0.8,0.6,1,1.1c0.3-0.5,0.6-0.9,1.1-1.1c0.5-0.3,1-0.4,1.6-0.4c0.6,0,1.1,0.1,1.5,0.4c0.4,0.3,0.8,0.6,1,1.1
		c0.2,0.5,0.4,1.1,0.4,1.7v5.2h-1.9v-4.9c0-0.5-0.1-1-0.4-1.3c-0.3-0.3-0.7-0.5-1.2-0.5c-0.4,0-0.7,0.1-0.9,0.2
		c-0.3,0.2-0.5,0.4-0.6,0.7c-0.1,0.3-0.2,0.6-0.2,1v4.8h-1.9v-4.9c0-0.5-0.1-1-0.4-1.3c-0.3-0.3-0.7-0.5-1.2-0.5
		c-0.5,0-1,0.2-1.3,0.5c-0.3,0.4-0.5,0.8-0.5,1.4v4.8h-1.9V324.8z M212.4,333.2c-0.8,0-1.6-0.2-2.2-0.6c-0.7-0.4-1.2-0.9-1.6-1.5
		c-0.4-0.7-0.6-1.4-0.6-2.2c0-0.8,0.2-1.6,0.6-2.2c0.4-0.7,0.9-1.2,1.6-1.5c0.7-0.4,1.4-0.6,2.2-0.6s1.6,0.2,2.2,0.6
		s1.2,0.9,1.5,1.5c0.4,0.7,0.6,1.4,0.6,2.2c0,0.8-0.2,1.6-0.6,2.2s-0.9,1.2-1.5,1.5C214,333,213.3,333.2,212.4,333.2z M210.1,328.9
		c0,0.5,0.1,1,0.3,1.3c0.2,0.4,0.5,0.7,0.8,0.9c0.4,0.2,0.8,0.3,1.2,0.3c0.4,0,0.8-0.1,1.2-0.3c0.4-0.2,0.6-0.5,0.8-0.9
		c0.2-0.4,0.3-0.8,0.3-1.3c0-0.5-0.1-1-0.3-1.3c-0.2-0.4-0.5-0.7-0.8-0.9c-0.4-0.2-0.7-0.3-1.2-0.3s-0.8,0.1-1.2,0.3
		c-0.4,0.2-0.6,0.5-0.8,0.9C210.2,327.9,210.1,328.4,210.1,328.9z M218.5,324.8h1.9v1.2c0.3-0.4,0.6-0.7,1-1
		c0.4-0.2,0.8-0.3,1.3-0.3h0.3v1.9h-0.5c-0.6,0-1.1,0.2-1.5,0.5c-0.4,0.3-0.6,0.8-0.6,1.4v4.4h-1.9V324.8z M224.1,334h1.1
		c0.2,0,0.4-0.1,0.6-0.2c0.2-0.1,0.3-0.3,0.4-0.5l0.4-0.8l-3.2-7.7h2l2.1,5.5l1.9-5.5h1.9l-3.4,8.7c-0.2,0.6-0.6,1.1-1,1.5
		c-0.4,0.4-1,0.5-1.6,0.5h-1.3V334z"/>
</g>
</svg>
