<svg width="894" height="730" viewBox="0 0 894 730" fill="none" xmlns="http://www.w3.org/2000/svg">
<rect width="894" height="730" fill="white"/>
<rect x="33" y="212" width="294" height="344" rx="8" fill="#FF7936"/>
<path d="M108.372 243H111.542L115.832 253.11L116.072 253.89L116.302 253.11L120.502 243H123.712V257H121.262V247.04L121.292 246.51L116.942 257H115.112L110.782 246.58L110.812 247.04V257H108.372V243ZM131.428 257.24C130.428 257.24 129.528 257.01 128.728 256.55C127.935 256.09 127.315 255.453 126.868 254.64C126.421 253.82 126.198 252.897 126.198 251.87C126.198 250.857 126.425 249.943 126.878 249.13C127.331 248.317 127.955 247.68 128.748 247.22C129.548 246.753 130.441 246.52 131.428 246.52C132.441 246.52 133.328 246.75 134.088 247.21C134.855 247.67 135.445 248.307 135.858 249.12C136.271 249.927 136.478 250.843 136.478 251.87V252.52H128.668C128.735 253.053 128.898 253.523 129.158 253.93C129.418 254.337 129.751 254.653 130.158 254.88C130.565 255.1 131.018 255.21 131.518 255.21C132.105 255.21 132.601 255.123 133.008 254.95C133.415 254.777 133.728 254.527 133.948 254.2H136.298C136.191 254.7 135.928 255.183 135.508 255.65C135.088 256.117 134.528 256.5 133.828 256.8C133.128 257.093 132.328 257.24 131.428 257.24ZM134.038 250.87C133.918 250.137 133.635 249.557 133.188 249.13C132.748 248.703 132.165 248.49 131.438 248.49C130.718 248.49 130.111 248.703 129.618 249.13C129.131 249.557 128.821 250.137 128.688 250.87H134.038ZM138.628 246.76H140.938V248.3C141.244 247.727 141.654 247.287 142.168 246.98C142.681 246.673 143.278 246.52 143.958 246.52C144.691 246.52 145.324 246.69 145.858 247.03C146.391 247.363 146.798 247.84 147.078 248.46C147.411 247.847 147.861 247.37 148.428 247.03C148.994 246.69 149.651 246.52 150.398 246.52C151.124 246.52 151.758 246.687 152.298 247.02C152.844 247.347 153.268 247.813 153.568 248.42C153.868 249.027 154.018 249.733 154.018 250.54V257H151.638V250.82C151.638 250.133 151.464 249.593 151.118 249.2C150.778 248.8 150.298 248.6 149.678 248.6C149.238 248.6 148.851 248.7 148.518 248.9C148.191 249.1 147.938 249.387 147.758 249.76C147.578 250.127 147.488 250.56 147.488 251.06V257H145.158V250.82C145.158 250.133 144.984 249.593 144.638 249.2C144.291 248.8 143.811 248.6 143.198 248.6C142.524 248.6 141.991 248.823 141.598 249.27C141.204 249.71 141.008 250.307 141.008 251.06V257H138.628V246.76ZM161.335 257.24C160.315 257.24 159.395 257.01 158.575 256.55C157.755 256.09 157.108 255.453 156.635 254.64C156.168 253.827 155.935 252.907 155.935 251.88C155.935 250.853 156.168 249.933 156.635 249.12C157.108 248.307 157.755 247.67 158.575 247.21C159.401 246.75 160.325 246.52 161.345 246.52C162.365 246.52 163.285 246.75 164.105 247.21C164.925 247.67 165.568 248.307 166.035 249.12C166.501 249.933 166.735 250.853 166.735 251.88C166.735 252.907 166.501 253.827 166.035 254.64C165.568 255.453 164.925 256.09 164.105 256.55C163.285 257.01 162.361 257.24 161.335 257.24ZM158.405 251.88C158.405 252.513 158.531 253.073 158.785 253.56C159.045 254.047 159.398 254.427 159.845 254.7C160.291 254.967 160.795 255.1 161.355 255.1C161.908 255.1 162.405 254.967 162.845 254.7C163.291 254.427 163.638 254.047 163.885 253.56C164.138 253.073 164.265 252.513 164.265 251.88C164.265 251.247 164.138 250.687 163.885 250.2C163.631 249.707 163.281 249.327 162.835 249.06C162.395 248.787 161.898 248.65 161.345 248.65C160.791 248.65 160.291 248.787 159.845 249.06C159.398 249.327 159.045 249.707 158.785 250.2C158.531 250.687 158.405 251.247 158.405 251.88ZM168.901 246.76H171.261V248.3C171.588 247.78 171.995 247.383 172.481 247.11C172.968 246.83 173.525 246.69 174.151 246.69H174.531V249.09H173.851C173.058 249.083 172.431 249.293 171.971 249.72C171.511 250.147 171.281 250.73 171.281 251.47V257H168.901V246.76ZM175.904 258.25H177.334C177.601 258.25 177.834 258.177 178.034 258.03C178.241 257.89 178.394 257.7 178.494 257.46L178.984 256.4L175.044 246.76H177.514L180.164 253.64L182.594 246.76H185.004L180.754 257.69C180.454 258.47 180.041 259.083 179.514 259.53C178.994 259.977 178.321 260.2 177.494 260.2H175.904V258.25ZM193.546 243V254.71H200.326V257H191.106V243H193.546ZM206.233 246.52C207.067 246.52 207.803 246.67 208.443 246.97C209.083 247.263 209.58 247.69 209.933 248.25C210.287 248.803 210.463 249.46 210.463 250.22V257H208.163V255.51C207.843 256.07 207.407 256.5 206.853 256.8C206.307 257.093 205.66 257.24 204.913 257.24C204.253 257.24 203.66 257.117 203.133 256.87C202.613 256.617 202.207 256.267 201.913 255.82C201.62 255.367 201.473 254.853 201.473 254.28C201.473 253.733 201.613 253.23 201.893 252.77C202.18 252.303 202.577 251.923 203.083 251.63C203.59 251.337 204.16 251.157 204.793 251.09L207.463 250.81C207.67 250.79 207.833 250.717 207.953 250.59C208.073 250.457 208.133 250.263 208.133 250.01C208.127 249.523 207.943 249.13 207.583 248.83C207.223 248.53 206.753 248.38 206.173 248.38C205.8 248.38 205.457 248.447 205.143 248.58C204.837 248.707 204.59 248.88 204.403 249.1C204.217 249.32 204.107 249.563 204.073 249.83H201.723C201.79 249.19 202.027 248.62 202.433 248.12C202.84 247.62 203.373 247.23 204.033 246.95C204.693 246.663 205.427 246.52 206.233 246.52ZM203.893 254.01C203.893 254.437 204.06 254.783 204.393 255.05C204.727 255.317 205.157 255.45 205.683 255.45C206.163 255.45 206.587 255.353 206.953 255.16C207.327 254.967 207.617 254.7 207.823 254.36C208.03 254.013 208.133 253.617 208.133 253.17V252.26L205.363 252.58C204.923 252.627 204.567 252.777 204.293 253.03C204.027 253.283 203.893 253.61 203.893 254.01ZM212.584 258.25H214.014C214.28 258.25 214.514 258.177 214.714 258.03C214.92 257.89 215.074 257.7 215.174 257.46L215.664 256.4L211.724 246.76H214.194L216.844 253.64L219.274 246.76H221.684L217.434 257.69C217.134 258.47 216.72 259.083 216.194 259.53C215.674 259.977 215 260.2 214.174 260.2H212.584V258.25ZM227.546 257.24C226.526 257.24 225.606 257.01 224.786 256.55C223.966 256.09 223.319 255.453 222.846 254.64C222.379 253.827 222.146 252.907 222.146 251.88C222.146 250.853 222.379 249.933 222.846 249.12C223.319 248.307 223.966 247.67 224.786 247.21C225.612 246.75 226.536 246.52 227.556 246.52C228.576 246.52 229.496 246.75 230.316 247.21C231.136 247.67 231.779 248.307 232.246 249.12C232.712 249.933 232.946 250.853 232.946 251.88C232.946 252.907 232.712 253.827 232.246 254.64C231.779 255.453 231.136 256.09 230.316 256.55C229.496 257.01 228.572 257.24 227.546 257.24ZM224.616 251.88C224.616 252.513 224.742 253.073 224.996 253.56C225.256 254.047 225.609 254.427 226.056 254.7C226.502 254.967 227.006 255.1 227.566 255.1C228.119 255.1 228.616 254.967 229.056 254.7C229.502 254.427 229.849 254.047 230.096 253.56C230.349 253.073 230.476 252.513 230.476 251.88C230.476 251.247 230.349 250.687 230.096 250.2C229.842 249.707 229.492 249.327 229.046 249.06C228.606 248.787 228.109 248.65 227.556 248.65C227.002 248.65 226.502 248.787 226.056 249.06C225.609 249.327 225.256 249.707 224.996 250.2C224.742 250.687 224.616 251.247 224.616 251.88ZM244.092 257H241.782V255.53C241.449 256.083 241.009 256.507 240.462 256.8C239.922 257.093 239.299 257.24 238.592 257.24C237.859 257.24 237.209 257.08 236.642 256.76C236.082 256.44 235.645 255.977 235.332 255.37C235.019 254.763 234.862 254.04 234.862 253.2V246.76H237.242V252.84C237.242 253.567 237.429 254.133 237.802 254.54C238.182 254.947 238.702 255.15 239.362 255.15C239.829 255.15 240.239 255.047 240.592 254.84C240.952 254.633 241.229 254.343 241.422 253.97C241.622 253.597 241.722 253.17 241.722 252.69V246.76H244.092V257ZM250.597 257C250.05 257 249.557 256.883 249.117 256.65C248.684 256.417 248.344 256.093 248.097 255.68C247.857 255.267 247.737 254.797 247.737 254.27L247.727 248.81H245.927L245.937 246.76H247.057C247.31 246.76 247.514 246.683 247.667 246.53C247.82 246.37 247.897 246.167 247.897 245.92V244.27H250.107V246.76H252.567L252.557 248.81H250.097L250.107 253.98C250.107 254.26 250.197 254.493 250.377 254.68C250.564 254.86 250.797 254.95 251.077 254.95H252.557V257H250.597Z" fill="white"/>
<rect x="57" y="288" width="246" height="48" rx="6" fill="white"/>
<path d="M163.48 318.192C162.68 318.192 161.971 318.048 161.352 317.76C160.734 317.467 160.248 317.059 159.896 316.536C159.55 316.008 159.374 315.405 159.368 314.728H161.36C161.36 315.075 161.451 315.381 161.632 315.648C161.814 315.915 162.064 316.123 162.384 316.272C162.71 316.421 163.083 316.496 163.504 316.496C163.915 316.496 164.275 316.429 164.584 316.296C164.894 316.157 165.131 315.968 165.296 315.728C165.467 315.483 165.552 315.2 165.552 314.88C165.552 314.48 165.43 314.136 165.184 313.848C164.944 313.56 164.624 313.381 164.224 313.312L162.304 312.992C161.766 312.901 161.296 312.712 160.896 312.424C160.496 312.131 160.187 311.765 159.968 311.328C159.755 310.891 159.648 310.411 159.648 309.888C159.648 309.259 159.811 308.696 160.136 308.2C160.462 307.699 160.912 307.309 161.488 307.032C162.07 306.749 162.728 306.608 163.464 306.608C164.216 306.608 164.883 306.744 165.464 307.016C166.051 307.288 166.507 307.669 166.832 308.16C167.158 308.651 167.323 309.211 167.328 309.84H165.344C165.344 309.541 165.267 309.277 165.112 309.048C164.958 308.813 164.739 308.632 164.456 308.504C164.179 308.371 163.856 308.304 163.488 308.304C163.126 308.304 162.803 308.368 162.52 308.496C162.243 308.619 162.027 308.795 161.872 309.024C161.718 309.248 161.64 309.507 161.64 309.8C161.64 310.147 161.752 310.448 161.976 310.704C162.2 310.955 162.496 311.112 162.864 311.176L164.728 311.48C165.283 311.571 165.774 311.776 166.2 312.096C166.632 312.416 166.966 312.811 167.2 313.28C167.44 313.749 167.56 314.251 167.56 314.784C167.56 315.429 167.387 316.011 167.04 316.528C166.699 317.045 166.219 317.453 165.6 317.752C164.982 318.045 164.275 318.192 163.48 318.192ZM172.392 318C171.954 318 171.56 317.907 171.208 317.72C170.861 317.533 170.589 317.275 170.392 316.944C170.2 316.613 170.104 316.237 170.104 315.816L170.096 311.448H168.656L168.664 309.808H169.56C169.762 309.808 169.925 309.747 170.048 309.624C170.17 309.496 170.232 309.333 170.232 309.136V307.816H172V309.808H173.968L173.96 311.448H171.992L172 315.584C172 315.808 172.072 315.995 172.216 316.144C172.365 316.288 172.552 316.36 172.776 316.36H173.96V318H172.392ZM179.073 309.616C179.739 309.616 180.329 309.736 180.841 309.976C181.353 310.211 181.75 310.552 182.033 311C182.315 311.443 182.457 311.968 182.457 312.576V318H180.617V316.808C180.361 317.256 180.011 317.6 179.569 317.84C179.131 318.075 178.614 318.192 178.017 318.192C177.489 318.192 177.014 318.093 176.593 317.896C176.177 317.693 175.851 317.413 175.617 317.056C175.382 316.693 175.265 316.283 175.265 315.824C175.265 315.387 175.377 314.984 175.601 314.616C175.83 314.243 176.147 313.939 176.553 313.704C176.958 313.469 177.414 313.325 177.921 313.272L180.057 313.048C180.222 313.032 180.353 312.973 180.449 312.872C180.545 312.765 180.593 312.611 180.593 312.408C180.587 312.019 180.441 311.704 180.153 311.464C179.865 311.224 179.489 311.104 179.025 311.104C178.726 311.104 178.451 311.157 178.201 311.264C177.955 311.365 177.758 311.504 177.609 311.68C177.459 311.856 177.371 312.051 177.345 312.264H175.465C175.518 311.752 175.707 311.296 176.033 310.896C176.358 310.496 176.785 310.184 177.313 309.96C177.841 309.731 178.427 309.616 179.073 309.616ZM177.201 315.608C177.201 315.949 177.334 316.227 177.601 316.44C177.867 316.653 178.211 316.76 178.633 316.76C179.017 316.76 179.355 316.683 179.649 316.528C179.947 316.373 180.179 316.16 180.345 315.888C180.51 315.611 180.593 315.293 180.593 314.936V314.208L178.377 314.464C178.025 314.501 177.739 314.621 177.521 314.824C177.307 315.027 177.201 315.288 177.201 315.608ZM188.27 318.192C187.47 318.192 186.744 318.005 186.094 317.632C185.443 317.259 184.931 316.747 184.558 316.096C184.19 315.44 184.006 314.709 184.006 313.904C184.006 313.099 184.19 312.371 184.558 311.72C184.931 311.064 185.443 310.549 186.094 310.176C186.744 309.803 187.47 309.616 188.27 309.616C188.968 309.616 189.603 309.744 190.174 310C190.744 310.251 191.211 310.616 191.574 311.096C191.942 311.571 192.174 312.139 192.27 312.8H190.366C190.222 312.315 189.96 311.947 189.582 311.696C189.203 311.445 188.768 311.32 188.278 311.32C187.84 311.32 187.446 311.432 187.094 311.656C186.747 311.875 186.475 312.181 186.278 312.576C186.08 312.965 185.982 313.408 185.982 313.904C185.982 314.4 186.08 314.845 186.278 315.24C186.475 315.629 186.747 315.936 187.094 316.16C187.446 316.379 187.84 316.488 188.278 316.488C188.768 316.488 189.203 316.363 189.582 316.112C189.96 315.861 190.222 315.493 190.366 315.008H192.27C192.174 315.659 191.939 316.224 191.566 316.704C191.192 317.184 190.72 317.552 190.15 317.808C189.579 318.064 188.952 318.192 188.27 318.192ZM193.988 306.8H195.892V313.464L199.1 309.808H201.284L197.964 313.704L201.428 318H199.132L195.892 314.024V318H193.988V306.8Z" fill="#FF7936"/>
<path d="M180 412L185.774 402L174.226 402L180 412ZM181 403.467L181 394.933L179 394.933L179 403.467L181 403.467ZM181 390.667L181 382.133L179 382.133L179 390.667L181 390.667ZM181 377.867L181 369.333L179 369.333L179 377.867L181 377.867ZM181 365.067L181 356.533L179 356.533L179 365.067L181 365.067ZM181 352.267L181 348L179 348L179 352.267L181 352.267Z" fill="white"/>
<rect x="57" y="424" width="246" height="48" rx="6" fill="white"/>
<path d="M161.299 442.8H163.259V447.376H168.363V442.8H170.323V454H168.363V449.208H163.259V454H161.299V442.8ZM176.494 454.192C175.694 454.192 174.974 454.008 174.334 453.64C173.699 453.272 173.203 452.763 172.846 452.112C172.489 451.456 172.31 450.717 172.31 449.896C172.31 449.085 172.491 448.355 172.854 447.704C173.217 447.053 173.715 446.544 174.35 446.176C174.99 445.803 175.705 445.616 176.494 445.616C177.305 445.616 178.014 445.8 178.622 446.168C179.235 446.536 179.707 447.045 180.038 447.696C180.369 448.341 180.534 449.075 180.534 449.896V450.416H174.286C174.339 450.843 174.47 451.219 174.678 451.544C174.886 451.869 175.153 452.123 175.478 452.304C175.803 452.48 176.166 452.568 176.566 452.568C177.035 452.568 177.433 452.499 177.758 452.36C178.083 452.221 178.334 452.021 178.51 451.76H180.39C180.305 452.16 180.094 452.547 179.758 452.92C179.422 453.293 178.974 453.6 178.414 453.84C177.854 454.075 177.214 454.192 176.494 454.192ZM178.582 449.096C178.486 448.509 178.259 448.045 177.902 447.704C177.55 447.363 177.083 447.192 176.502 447.192C175.926 447.192 175.441 447.363 175.046 447.704C174.657 448.045 174.409 448.509 174.302 449.096H178.582ZM185.526 445.616C186.192 445.616 186.782 445.736 187.294 445.976C187.806 446.211 188.203 446.552 188.486 447C188.768 447.443 188.91 447.968 188.91 448.576V454H187.07V452.808C186.814 453.256 186.464 453.6 186.022 453.84C185.584 454.075 185.067 454.192 184.47 454.192C183.942 454.192 183.467 454.093 183.046 453.896C182.63 453.693 182.304 453.413 182.07 453.056C181.835 452.693 181.718 452.283 181.718 451.824C181.718 451.387 181.83 450.984 182.054 450.616C182.283 450.243 182.6 449.939 183.006 449.704C183.411 449.469 183.867 449.325 184.374 449.272L186.51 449.048C186.675 449.032 186.806 448.973 186.902 448.872C186.998 448.765 187.046 448.611 187.046 448.408C187.04 448.019 186.894 447.704 186.606 447.464C186.318 447.224 185.942 447.104 185.478 447.104C185.179 447.104 184.904 447.157 184.654 447.264C184.408 447.365 184.211 447.504 184.062 447.68C183.912 447.856 183.824 448.051 183.798 448.264H181.918C181.971 447.752 182.16 447.296 182.486 446.896C182.811 446.496 183.238 446.184 183.766 445.96C184.294 445.731 184.88 445.616 185.526 445.616ZM183.654 451.608C183.654 451.949 183.787 452.227 184.054 452.44C184.32 452.653 184.664 452.76 185.086 452.76C185.47 452.76 185.808 452.683 186.102 452.528C186.4 452.373 186.632 452.16 186.798 451.888C186.963 451.611 187.046 451.293 187.046 450.936V450.208L184.83 450.464C184.478 450.501 184.192 450.621 183.974 450.824C183.76 451.027 183.654 451.288 183.654 451.608ZM192.907 445.808V447.088C193.2 446.619 193.592 446.256 194.083 446C194.573 445.744 195.131 445.616 195.755 445.616C196.491 445.616 197.147 445.797 197.723 446.16C198.304 446.517 198.755 447.021 199.075 447.672C199.4 448.323 199.563 449.067 199.563 449.904C199.563 450.741 199.4 451.485 199.075 452.136C198.755 452.787 198.304 453.293 197.723 453.656C197.147 454.013 196.491 454.192 195.755 454.192C195.147 454.192 194.6 454.069 194.115 453.824C193.635 453.579 193.245 453.232 192.947 452.784V456.576H191.051V445.808H192.907ZM192.947 449.904C192.947 450.411 193.045 450.861 193.243 451.256C193.44 451.645 193.715 451.949 194.067 452.168C194.419 452.381 194.821 452.488 195.275 452.488C195.728 452.488 196.128 452.381 196.475 452.168C196.827 451.949 197.099 451.645 197.291 451.256C197.488 450.861 197.587 450.411 197.587 449.904C197.587 449.397 197.488 448.949 197.291 448.56C197.099 448.165 196.827 447.861 196.475 447.648C196.128 447.429 195.728 447.32 195.275 447.32C194.821 447.32 194.419 447.429 194.067 447.648C193.715 447.861 193.44 448.165 193.243 448.56C193.045 448.949 192.947 449.397 192.947 449.904Z" fill="#FF7936"/>
<rect x="57" y="484" width="246" height="48" rx="6" fill="white"/>
<path d="M129.418 514.192C128.618 514.192 127.908 514.048 127.29 513.76C126.671 513.467 126.186 513.059 125.834 512.536C125.487 512.008 125.311 511.405 125.306 510.728H127.298C127.298 511.075 127.388 511.381 127.57 511.648C127.751 511.915 128.002 512.123 128.322 512.272C128.647 512.421 129.02 512.496 129.442 512.496C129.852 512.496 130.212 512.429 130.522 512.296C130.831 512.157 131.068 511.968 131.234 511.728C131.404 511.483 131.49 511.2 131.49 510.88C131.49 510.48 131.367 510.136 131.122 509.848C130.882 509.56 130.562 509.381 130.162 509.312L128.242 508.992C127.703 508.901 127.234 508.712 126.834 508.424C126.434 508.131 126.124 507.765 125.906 507.328C125.692 506.891 125.586 506.411 125.586 505.888C125.586 505.259 125.748 504.696 126.074 504.2C126.399 503.699 126.85 503.309 127.426 503.032C128.007 502.749 128.666 502.608 129.402 502.608C130.154 502.608 130.82 502.744 131.402 503.016C131.988 503.288 132.444 503.669 132.77 504.16C133.095 504.651 133.26 505.211 133.266 505.84H131.282C131.282 505.541 131.204 505.277 131.05 505.048C130.895 504.813 130.676 504.632 130.394 504.504C130.116 504.371 129.794 504.304 129.426 504.304C129.063 504.304 128.74 504.368 128.458 504.496C128.18 504.619 127.964 504.795 127.81 505.024C127.655 505.248 127.578 505.507 127.578 505.8C127.578 506.147 127.69 506.448 127.914 506.704C128.138 506.955 128.434 507.112 128.802 507.176L130.666 507.48C131.22 507.571 131.711 507.776 132.138 508.096C132.57 508.416 132.903 508.811 133.138 509.28C133.378 509.749 133.498 510.251 133.498 510.784C133.498 511.429 133.324 512.011 132.978 512.528C132.636 513.045 132.156 513.453 131.538 513.752C130.919 514.045 130.212 514.192 129.418 514.192ZM138.329 514C137.892 514 137.497 513.907 137.145 513.72C136.799 513.533 136.527 513.275 136.329 512.944C136.137 512.613 136.041 512.237 136.041 511.816L136.033 507.448H134.593L134.601 505.808H135.497C135.7 505.808 135.863 505.747 135.985 505.624C136.108 505.496 136.169 505.333 136.169 505.136V503.816H137.937V505.808H139.905L139.897 507.448H137.929L137.937 511.584C137.937 511.808 138.009 511.995 138.153 512.144C138.303 512.288 138.489 512.36 138.713 512.36H139.897V514H138.329ZM145.01 505.616C145.677 505.616 146.266 505.736 146.778 505.976C147.29 506.211 147.687 506.552 147.97 507C148.253 507.443 148.394 507.968 148.394 508.576V514H146.554V512.808C146.298 513.256 145.949 513.6 145.506 513.84C145.069 514.075 144.551 514.192 143.954 514.192C143.426 514.192 142.951 514.093 142.53 513.896C142.114 513.693 141.789 513.413 141.554 513.056C141.319 512.693 141.202 512.283 141.202 511.824C141.202 511.387 141.314 510.984 141.538 510.616C141.767 510.243 142.085 509.939 142.49 509.704C142.895 509.469 143.351 509.325 143.858 509.272L145.994 509.048C146.159 509.032 146.29 508.973 146.386 508.872C146.482 508.765 146.53 508.611 146.53 508.408C146.525 508.019 146.378 507.704 146.09 507.464C145.802 507.224 145.426 507.104 144.962 507.104C144.663 507.104 144.389 507.157 144.138 507.264C143.893 507.365 143.695 507.504 143.546 507.68C143.397 507.856 143.309 508.051 143.282 508.264H141.402C141.455 507.752 141.645 507.296 141.97 506.896C142.295 506.496 142.722 506.184 143.25 505.96C143.778 505.731 144.365 505.616 145.01 505.616ZM143.138 511.608C143.138 511.949 143.271 512.227 143.538 512.44C143.805 512.653 144.149 512.76 144.57 512.76C144.954 512.76 145.293 512.683 145.586 512.528C145.885 512.373 146.117 512.16 146.282 511.888C146.447 511.611 146.53 511.293 146.53 510.936V510.208L144.314 510.464C143.962 510.501 143.677 510.621 143.458 510.824C143.245 511.027 143.138 511.288 143.138 511.608ZM153.423 514C152.986 514 152.591 513.907 152.239 513.72C151.892 513.533 151.62 513.275 151.423 512.944C151.231 512.613 151.135 512.237 151.135 511.816L151.127 507.448H149.687L149.695 505.808H150.591C150.794 505.808 150.956 505.747 151.079 505.624C151.202 505.496 151.263 505.333 151.263 505.136V503.816H153.031V505.808H154.999L154.991 507.448H153.023L153.031 511.584C153.031 511.808 153.103 511.995 153.247 512.144C153.396 512.288 153.583 512.36 153.807 512.36H154.991V514H153.423ZM156.832 505.808H158.736V514H156.832V505.808ZM158.808 502.8V504.608H156.744V502.8H158.808ZM164.723 514.192C163.923 514.192 163.197 514.005 162.547 513.632C161.896 513.259 161.384 512.747 161.011 512.096C160.643 511.44 160.459 510.709 160.459 509.904C160.459 509.099 160.643 508.371 161.011 507.72C161.384 507.064 161.896 506.549 162.547 506.176C163.197 505.803 163.923 505.616 164.723 505.616C165.421 505.616 166.056 505.744 166.627 506C167.197 506.251 167.664 506.616 168.027 507.096C168.395 507.571 168.627 508.139 168.723 508.8H166.819C166.675 508.315 166.413 507.947 166.035 507.696C165.656 507.445 165.221 507.32 164.731 507.32C164.293 507.32 163.899 507.432 163.547 507.656C163.2 507.875 162.928 508.181 162.731 508.576C162.533 508.965 162.435 509.408 162.435 509.904C162.435 510.4 162.533 510.845 162.731 511.24C162.928 511.629 163.2 511.936 163.547 512.16C163.899 512.379 164.293 512.488 164.731 512.488C165.221 512.488 165.656 512.363 166.035 512.112C166.413 511.861 166.675 511.493 166.819 511.008H168.723C168.627 511.659 168.392 512.224 168.019 512.704C167.645 513.184 167.173 513.552 166.603 513.808C166.032 514.064 165.405 514.192 164.723 514.192ZM174.065 502.8H176.601L180.033 510.888L180.225 511.512L180.409 510.888L183.769 502.8H186.337V514H184.377V506.032L184.401 505.608L180.921 514H179.457L175.993 505.664L176.017 506.032V514H174.065V502.8ZM192.51 514.192C191.71 514.192 190.99 514.008 190.35 513.64C189.715 513.272 189.219 512.763 188.862 512.112C188.504 511.456 188.326 510.717 188.326 509.896C188.326 509.085 188.507 508.355 188.87 507.704C189.232 507.053 189.731 506.544 190.366 506.176C191.006 505.803 191.72 505.616 192.51 505.616C193.32 505.616 194.03 505.8 194.638 506.168C195.251 506.536 195.723 507.045 196.054 507.696C196.384 508.341 196.55 509.075 196.55 509.896V510.416H190.302C190.355 510.843 190.486 511.219 190.694 511.544C190.902 511.869 191.168 512.123 191.494 512.304C191.819 512.48 192.182 512.568 192.582 512.568C193.051 512.568 193.448 512.499 193.774 512.36C194.099 512.221 194.35 512.021 194.526 511.76H196.406C196.32 512.16 196.11 512.547 195.774 512.92C195.438 513.293 194.99 513.6 194.43 513.84C193.87 514.075 193.23 514.192 192.51 514.192ZM194.598 509.096C194.502 508.509 194.275 508.045 193.918 507.704C193.566 507.363 193.099 507.192 192.518 507.192C191.942 507.192 191.456 507.363 191.062 507.704C190.672 508.045 190.424 508.509 190.318 509.096H194.598ZM198.269 505.808H200.117V507.04C200.363 506.581 200.691 506.229 201.101 505.984C201.512 505.739 201.989 505.616 202.533 505.616C203.12 505.616 203.627 505.752 204.053 506.024C204.48 506.291 204.805 506.672 205.029 507.168C205.296 506.677 205.656 506.296 206.109 506.024C206.563 505.752 207.088 505.616 207.685 505.616C208.267 505.616 208.773 505.749 209.205 506.016C209.643 506.277 209.981 506.651 210.221 507.136C210.461 507.621 210.581 508.187 210.581 508.832V514H208.677V509.056C208.677 508.507 208.539 508.075 208.261 507.76C207.989 507.44 207.605 507.28 207.109 507.28C206.757 507.28 206.448 507.36 206.181 507.52C205.92 507.68 205.717 507.909 205.573 508.208C205.429 508.501 205.357 508.848 205.357 509.248V514H203.493V509.056C203.493 508.507 203.355 508.075 203.077 507.76C202.8 507.44 202.416 507.28 201.925 507.28C201.387 507.28 200.96 507.459 200.645 507.816C200.331 508.168 200.173 508.645 200.173 509.248V514H198.269V505.808ZM216.435 514.192C215.619 514.192 214.883 514.008 214.227 513.64C213.571 513.272 213.054 512.763 212.675 512.112C212.302 511.461 212.115 510.725 212.115 509.904C212.115 509.083 212.302 508.347 212.675 507.696C213.054 507.045 213.571 506.536 214.227 506.168C214.888 505.8 215.627 505.616 216.443 505.616C217.259 505.616 217.995 505.8 218.651 506.168C219.307 506.536 219.822 507.045 220.195 507.696C220.568 508.347 220.755 509.083 220.755 509.904C220.755 510.725 220.568 511.461 220.195 512.112C219.822 512.763 219.307 513.272 218.651 513.64C217.995 514.008 217.256 514.192 216.435 514.192ZM214.091 509.904C214.091 510.411 214.192 510.859 214.395 511.248C214.603 511.637 214.886 511.941 215.243 512.16C215.6 512.373 216.003 512.48 216.451 512.48C216.894 512.48 217.291 512.373 217.643 512.16C218 511.941 218.278 511.637 218.475 511.248C218.678 510.859 218.779 510.411 218.779 509.904C218.779 509.397 218.678 508.949 218.475 508.56C218.272 508.165 217.992 507.861 217.635 507.648C217.283 507.429 216.886 507.32 216.443 507.32C216 507.32 215.6 507.429 215.243 507.648C214.886 507.861 214.603 508.165 214.395 508.56C214.192 508.949 214.091 509.397 214.091 509.904ZM222.488 505.808H224.376V507.04C224.637 506.624 224.963 506.307 225.352 506.088C225.741 505.864 226.187 505.752 226.688 505.752H226.992V507.672H226.448C225.813 507.667 225.312 507.835 224.944 508.176C224.576 508.517 224.392 508.984 224.392 509.576V514H222.488V505.808ZM228.09 515H229.234C229.448 515 229.634 514.941 229.794 514.824C229.96 514.712 230.082 514.56 230.162 514.368L230.554 513.52L227.402 505.808H229.378L231.498 511.312L233.442 505.808H235.37L231.97 514.552C231.73 515.176 231.4 515.667 230.978 516.024C230.562 516.381 230.024 516.56 229.362 516.56H228.09V515Z" fill="#FF7936"/>
<rect x="447" y="40" width="294" height="650" rx="8" fill="#4CA6FF"/>
<path d="M557.863 97.42C556.113 97.42 554.561 97.105 553.208 96.475C551.855 95.8333 550.793 94.9408 550.023 93.7975C549.265 92.6425 548.88 91.3242 548.868 89.8425H553.226C553.226 90.6008 553.424 91.2717 553.821 91.855C554.217 92.4383 554.766 92.8933 555.466 93.22C556.177 93.5467 556.994 93.71 557.916 93.71C558.814 93.71 559.601 93.5642 560.278 93.2725C560.955 92.9692 561.474 92.555 561.836 92.03C562.209 91.4933 562.396 90.875 562.396 90.175C562.396 89.3 562.127 88.5475 561.591 87.9175C561.066 87.2875 560.366 86.8967 559.491 86.745L555.291 86.045C554.112 85.8467 553.086 85.4325 552.211 84.8025C551.336 84.1608 550.659 83.3617 550.181 82.405C549.714 81.4483 549.481 80.3983 549.481 79.255C549.481 77.8783 549.836 76.6475 550.548 75.5625C551.26 74.4658 552.246 73.6142 553.506 73.0075C554.777 72.3892 556.218 72.08 557.828 72.08C559.473 72.08 560.931 72.3775 562.203 72.9725C563.486 73.5675 564.484 74.4017 565.196 75.475C565.907 76.5483 566.269 77.7733 566.281 79.15H561.941C561.941 78.4967 561.771 77.9192 561.433 77.4175C561.095 76.9042 560.616 76.5075 559.998 76.2275C559.391 75.9358 558.686 75.79 557.881 75.79C557.087 75.79 556.381 75.93 555.763 76.21C555.156 76.4783 554.684 76.8633 554.346 77.365C554.007 77.855 553.838 78.4208 553.838 79.0625C553.838 79.8208 554.083 80.48 554.573 81.04C555.063 81.5883 555.711 81.9325 556.516 82.0725L560.593 82.7375C561.806 82.9358 562.88 83.385 563.813 84.085C564.758 84.785 565.487 85.6483 566.001 86.675C566.526 87.7017 566.788 88.7983 566.788 89.965C566.788 91.3767 566.409 92.6483 565.651 93.78C564.904 94.9117 563.854 95.8042 562.501 96.4575C561.147 97.0992 559.601 97.42 557.863 97.42ZM577.357 97C576.4 97 575.537 96.7958 574.767 96.3875C574.009 95.9792 573.414 95.4133 572.982 94.69C572.562 93.9667 572.352 93.1442 572.352 92.2225L572.334 82.6675H569.184L569.202 79.08H571.162C571.605 79.08 571.961 78.9458 572.229 78.6775C572.498 78.3975 572.632 78.0417 572.632 77.61V74.7225H576.499V79.08H580.804L580.787 82.6675H576.482L576.499 91.715C576.499 92.205 576.657 92.6133 576.972 92.94C577.299 93.255 577.707 93.4125 578.197 93.4125H580.787V97H577.357ZM591.971 78.66C593.43 78.66 594.719 78.9225 595.839 79.4475C596.959 79.9608 597.828 80.7075 598.446 81.6875C599.065 82.6558 599.374 83.805 599.374 85.135V97H595.349V94.3925C594.789 95.3725 594.025 96.125 593.056 96.65C592.1 97.1633 590.968 97.42 589.661 97.42C588.506 97.42 587.468 97.2042 586.546 96.7725C585.636 96.3292 584.925 95.7167 584.411 94.935C583.898 94.1417 583.641 93.2433 583.641 92.24C583.641 91.2833 583.886 90.4025 584.376 89.5975C584.878 88.7808 585.572 88.1158 586.459 87.6025C587.346 87.0892 588.343 86.7742 589.451 86.6575L594.124 86.1675C594.486 86.1325 594.771 86.0042 594.981 85.7825C595.191 85.5492 595.296 85.2108 595.296 84.7675C595.285 83.9158 594.964 83.2275 594.334 82.7025C593.704 82.1775 592.881 81.915 591.866 81.915C591.213 81.915 590.612 82.0317 590.064 82.265C589.527 82.4867 589.096 82.79 588.769 83.175C588.442 83.56 588.25 83.9858 588.191 84.4525H584.079C584.196 83.3325 584.61 82.335 585.321 81.46C586.033 80.585 586.966 79.9025 588.121 79.4125C589.276 78.9108 590.56 78.66 591.971 78.66ZM587.876 91.7675C587.876 92.5142 588.168 93.1208 588.751 93.5875C589.335 94.0542 590.087 94.2875 591.009 94.2875C591.849 94.2875 592.59 94.1183 593.231 93.78C593.885 93.4417 594.392 92.975 594.754 92.38C595.116 91.7733 595.296 91.0792 595.296 90.2975V88.705L590.449 89.265C589.679 89.3467 589.055 89.6092 588.576 90.0525C588.11 90.4958 587.876 91.0675 587.876 91.7675ZM612.09 97.42C610.34 97.42 608.753 97.0117 607.33 96.195C605.906 95.3783 604.786 94.2583 603.97 92.835C603.165 91.4 602.762 89.8017 602.762 88.04C602.762 86.2783 603.165 84.6858 603.97 83.2625C604.786 81.8275 605.906 80.7017 607.33 79.885C608.753 79.0683 610.34 78.66 612.09 78.66C613.618 78.66 615.006 78.94 616.255 79.5C617.503 80.0483 618.524 80.8475 619.317 81.8975C620.122 82.9358 620.63 84.1783 620.84 85.625H616.675C616.36 84.5633 615.788 83.7583 614.96 83.21C614.131 82.6617 613.18 82.3875 612.107 82.3875C611.15 82.3875 610.287 82.6325 609.517 83.1225C608.759 83.6008 608.164 84.2717 607.732 85.135C607.3 85.9867 607.085 86.955 607.085 88.04C607.085 89.125 607.3 90.0992 607.732 90.9625C608.164 91.8142 608.759 92.485 609.517 92.975C610.287 93.4533 611.15 93.6925 612.107 93.6925C613.18 93.6925 614.131 93.4183 614.96 92.87C615.788 92.3217 616.36 91.5167 616.675 90.455H620.84C620.63 91.8783 620.116 93.115 619.3 94.165C618.483 95.215 617.45 96.02 616.202 96.58C614.954 97.14 613.583 97.42 612.09 97.42ZM624.599 72.5H628.764V87.0775L635.782 79.08H640.559L633.297 87.6025L640.874 97H635.852L628.764 88.3025V97H624.599V72.5Z" fill="white"/>
<rect x="471.5" y="130.5" width="245" height="39" fill="white"/>
<rect x="471.5" y="130.5" width="245" height="39" stroke="#4CA6FF"/>
<rect x="471.5" y="169.5" width="245" height="39" fill="white"/>
<rect x="471.5" y="169.5" width="245" height="39" stroke="#4CA6FF"/>
<rect x="471.5" y="208.5" width="245" height="39" fill="white"/>
<rect x="471.5" y="208.5" width="245" height="39" stroke="#4CA6FF"/>
<rect x="471.5" y="247.5" width="245" height="39" fill="white"/>
<rect x="471.5" y="247.5" width="245" height="39" stroke="#4CA6FF"/>
<rect x="471.5" y="286.5" width="245" height="39" fill="white"/>
<rect x="471.5" y="286.5" width="245" height="39" stroke="#4CA6FF"/>
<rect x="471.5" y="325.5" width="245" height="39" fill="white"/>
<path d="M594.051 351.16C593.304 351.16 592.648 351.021 592.083 350.744C591.528 350.456 591.096 350.056 590.787 349.544C590.478 349.021 590.323 348.408 590.323 347.704V345.496C590.323 344.792 590.478 344.184 590.787 343.672C591.096 343.149 591.528 342.749 592.083 342.472C592.648 342.184 593.304 342.04 594.051 342.04C595.16 342.04 596.046 342.328 596.707 342.904C597.368 343.469 597.715 344.243 597.747 345.224H595.747C595.715 344.765 595.55 344.413 595.251 344.168C594.952 343.912 594.552 343.784 594.051 343.784C593.518 343.784 593.096 343.933 592.787 344.232C592.478 344.52 592.323 344.936 592.323 345.48V347.704C592.323 348.248 592.478 348.669 592.787 348.968C593.096 349.267 593.518 349.416 594.051 349.416C594.563 349.416 594.963 349.293 595.251 349.048C595.55 348.792 595.715 348.435 595.747 347.976H597.747C597.715 348.957 597.368 349.736 596.707 350.312C596.046 350.877 595.16 351.16 594.051 351.16Z" fill="#4CA6FF"/>
<rect x="471.5" y="325.5" width="245" height="39" stroke="#4CA6FF"/>
<rect x="471.5" y="364.5" width="245" height="39" fill="white"/>
<path d="M593.251 390.16C592.366 390.16 591.656 389.861 591.123 389.264C590.59 388.656 590.323 387.835 590.323 386.8V384.416C590.323 383.381 590.59 382.56 591.123 381.952C591.656 381.344 592.366 381.04 593.251 381.04C593.902 381.04 594.43 381.205 594.835 381.536C595.24 381.856 595.491 382.304 595.587 382.88H595.635L595.571 380.784V378.32H597.571V390H595.619V388.32H595.587C595.502 388.907 595.251 389.36 594.835 389.68C594.43 390 593.902 390.16 593.251 390.16ZM593.955 388.432C594.467 388.432 594.862 388.283 595.139 387.984C595.427 387.675 595.571 387.248 595.571 386.704V384.496C595.571 383.952 595.427 383.531 595.139 383.232C594.862 382.923 594.467 382.768 593.955 382.768C593.443 382.768 593.043 382.917 592.755 383.216C592.467 383.515 592.323 383.941 592.323 384.496V386.704C592.323 387.259 592.467 387.685 592.755 387.984C593.043 388.283 593.443 388.432 593.955 388.432Z" fill="#4CA6FF"/>
<rect x="471.5" y="364.5" width="245" height="39" stroke="#4CA6FF"/>
<rect x="471.5" y="403.5" width="245" height="39" fill="white"/>
<rect x="471.5" y="403.5" width="245" height="39" stroke="#4CA6FF"/>
<rect x="471.5" y="442.5" width="245" height="39" fill="white"/>
<rect x="471.5" y="442.5" width="245" height="39" stroke="#4CA6FF"/>
<rect x="471.5" y="481.5" width="245" height="39" fill="white"/>
<path d="M593.027 507.16C592.12 507.16 591.406 506.925 590.883 506.456C590.36 505.976 590.099 505.325 590.099 504.504C590.099 503.64 590.387 502.973 590.963 502.504C591.55 502.035 592.366 501.8 593.411 501.8H595.603V501.048C595.603 500.621 595.464 500.291 595.187 500.056C594.91 499.811 594.531 499.688 594.051 499.688C593.614 499.688 593.251 499.784 592.963 499.976C592.675 500.168 592.504 500.429 592.451 500.76H590.499C590.595 499.928 590.968 499.267 591.619 498.776C592.27 498.285 593.102 498.04 594.115 498.04C595.182 498.04 596.03 498.312 596.659 498.856C597.288 499.389 597.603 500.115 597.603 501.032V507H595.667V505.464H595.635C595.528 505.987 595.24 506.403 594.771 506.712C594.312 507.011 593.731 507.16 593.027 507.16ZM593.683 505.656C594.248 505.656 594.707 505.512 595.059 505.224C595.422 504.936 595.603 504.563 595.603 504.104V503.032H593.443C593.038 503.032 592.712 503.149 592.467 503.384C592.222 503.619 592.099 503.928 592.099 504.312C592.099 504.728 592.238 505.059 592.515 505.304C592.803 505.539 593.192 505.656 593.683 505.656Z" fill="#4CA6FF"/>
<rect x="471.5" y="481.5" width="245" height="39" stroke="#4CA6FF"/>
<rect x="471.5" y="520.5" width="245" height="39" fill="white"/>
<path d="M594.755 546.16C594.104 546.16 593.571 546 593.155 545.68C592.75 545.36 592.504 544.907 592.419 544.32H592.387V546H590.435V534.32H592.435V536.784L592.371 538.88H592.419C592.515 538.304 592.766 537.856 593.171 537.536C593.576 537.205 594.104 537.04 594.755 537.04C595.64 537.04 596.35 537.344 596.883 537.952C597.416 538.56 597.683 539.381 597.683 540.416V542.8C597.683 543.835 597.416 544.656 596.883 545.264C596.35 545.861 595.64 546.16 594.755 546.16ZM594.051 544.432C594.563 544.432 594.963 544.283 595.251 543.984C595.539 543.685 595.683 543.259 595.683 542.704V540.496C595.683 539.941 595.539 539.515 595.251 539.216C594.963 538.917 594.563 538.768 594.051 538.768C593.539 538.768 593.139 538.923 592.851 539.232C592.574 539.531 592.435 539.952 592.435 540.496V542.704C592.435 543.248 592.574 543.675 592.851 543.984C593.139 544.283 593.539 544.432 594.051 544.432Z" fill="#4CA6FF"/>
<rect x="471.5" y="520.5" width="245" height="39" stroke="#4CA6FF"/>
<rect x="471.5" y="559.5" width="245" height="39" fill="white"/>
<rect x="471.5" y="559.5" width="245" height="39" stroke="#4CA6FF"/>
<path d="M471.5 598.5H716.5V644.179C716.5 645.048 715.94 645.819 715.114 646.088L698.383 651.528C671.307 660.334 641.702 656.429 617.834 640.906C602.376 630.852 584.333 625.5 565.893 625.5H553.921C539.676 625.5 525.521 627.744 511.975 632.149L476.082 643.821C473.821 644.557 471.5 642.871 471.5 640.493V598.5Z" fill="#D2D2D2" stroke="#4CA6FF"/>
<path d="M449 90.5L376.097 90.5C373.888 90.5 372.097 92.2909 372.097 94.5L372.097 310C372.097 312.209 370.306 314 368.097 314L300 314" stroke="#8473FF" stroke-width="2"/>
<circle cx="4" cy="4" r="4" transform="matrix(4.37114e-08 1 1 -4.37114e-08 443 87)" fill="#8473FF"/>
<circle cx="4" cy="4" r="4" transform="matrix(4.37114e-08 1 1 -4.37114e-08 299 310)" fill="#8473FF"/>
<path d="M752.056 202V193.2H753.32V194.256H753.416C753.48 193.883 753.635 193.589 753.88 193.376C754.136 193.152 754.456 193.04 754.84 193.04C755.597 193.04 756.077 193.445 756.28 194.256H756.344C756.408 193.883 756.568 193.589 756.824 193.376C757.091 193.152 757.416 193.04 757.8 193.04C758.355 193.04 758.781 193.248 759.08 193.664C759.389 194.08 759.544 194.629 759.544 195.312V202H758.216V195.296C758.216 194.933 758.136 194.651 757.976 194.448C757.827 194.245 757.603 194.144 757.304 194.144C757.016 194.144 756.787 194.245 756.616 194.448C756.456 194.64 756.376 194.917 756.376 195.28V202H755.224V195.296C755.224 194.923 755.139 194.64 754.968 194.448C754.808 194.245 754.579 194.144 754.28 194.144C753.981 194.144 753.757 194.245 753.608 194.448C753.459 194.64 753.384 194.917 753.384 195.28V202H752.056ZM764.626 202.16C763.698 202.16 762.967 201.925 762.434 201.456C761.9 200.976 761.634 200.331 761.634 199.52C761.634 198.699 761.9 198.053 762.434 197.584C762.967 197.115 763.687 196.88 764.594 196.88H767.314V196C767.314 195.467 767.148 195.051 766.818 194.752C766.498 194.453 766.039 194.304 765.442 194.304C764.919 194.304 764.487 194.416 764.146 194.64C763.804 194.853 763.596 195.147 763.522 195.52H762.082C762.178 194.763 762.535 194.16 763.154 193.712C763.772 193.264 764.546 193.04 765.474 193.04C766.487 193.04 767.287 193.301 767.874 193.824C768.46 194.347 768.754 195.056 768.754 195.952V202H767.346V200.32H767.33C767.266 200.885 766.988 201.333 766.498 201.664C766.018 201.995 765.394 202.16 764.626 202.16ZM764.978 201.024C765.66 201.024 766.22 200.853 766.658 200.512C767.095 200.171 767.314 199.733 767.314 199.2V197.952H764.626C764.146 197.952 763.767 198.085 763.49 198.352C763.212 198.619 763.074 198.981 763.074 199.44C763.074 199.931 763.239 200.32 763.57 200.608C763.911 200.885 764.38 201.024 764.978 201.024ZM771.548 202V200.688H774.668V194.512H771.948V193.2H776.108V200.688H779.068V202H771.548ZM775.228 191.616C774.876 191.616 774.598 191.525 774.396 191.344C774.193 191.163 774.092 190.917 774.092 190.608C774.092 190.288 774.193 190.037 774.396 189.856C774.598 189.664 774.876 189.568 775.228 189.568C775.58 189.568 775.857 189.664 776.06 189.856C776.262 190.037 776.364 190.288 776.364 190.608C776.364 190.917 776.262 191.163 776.06 191.344C775.857 191.525 775.58 191.616 775.228 191.616ZM781.253 202V193.2H782.693V194.88H782.709C782.784 194.293 783.024 193.84 783.429 193.52C783.835 193.2 784.373 193.04 785.045 193.04C785.931 193.04 786.635 193.312 787.157 193.856C787.68 194.4 787.941 195.141 787.941 196.08V202H786.501V196.24C786.501 195.611 786.331 195.131 785.989 194.8C785.659 194.459 785.205 194.288 784.629 194.288C784.032 194.288 783.557 194.469 783.205 194.832C782.864 195.195 782.693 195.717 782.693 196.4V202H781.253ZM755.528 226.128C754.621 226.128 753.901 225.925 753.368 225.52C752.835 225.104 752.525 224.544 752.44 223.84H753.88C753.944 224.149 754.115 224.395 754.392 224.576C754.68 224.757 755.059 224.848 755.528 224.848H756.2C756.765 224.848 757.187 224.736 757.464 224.512C757.741 224.277 757.88 223.968 757.88 223.584C757.88 222.859 757.384 222.416 756.392 222.256L755.208 222.064C754.344 221.915 753.699 221.648 753.272 221.264C752.856 220.869 752.648 220.299 752.648 219.552C752.648 218.763 752.899 218.155 753.4 217.728C753.901 217.291 754.653 217.072 755.656 217.072H756.264C757.107 217.072 757.784 217.269 758.296 217.664C758.808 218.059 759.117 218.592 759.224 219.264H757.784C757.72 218.987 757.56 218.768 757.304 218.608C757.048 218.437 756.701 218.352 756.264 218.352H755.656C755.112 218.352 754.712 218.453 754.456 218.656C754.211 218.859 754.088 219.163 754.088 219.568C754.088 219.931 754.195 220.197 754.408 220.368C754.621 220.539 754.957 220.661 755.416 220.736L756.6 220.928C757.549 221.077 758.237 221.355 758.664 221.76C759.101 222.165 759.32 222.752 759.32 223.52C759.32 224.331 759.059 224.971 758.536 225.44C758.024 225.899 757.245 226.128 756.2 226.128H755.528ZM766.354 226C765.596 226 765.004 225.797 764.578 225.392C764.162 224.987 763.954 224.416 763.954 223.68V218.512H761.474V217.2H763.954V214.72H765.394V217.2H768.914V218.512H765.394V223.68C765.394 224.352 765.714 224.688 766.354 224.688H768.754V226H766.354ZM774.22 226.16C773.292 226.16 772.561 225.925 772.028 225.456C771.494 224.976 771.228 224.331 771.228 223.52C771.228 222.699 771.494 222.053 772.028 221.584C772.561 221.115 773.281 220.88 774.188 220.88H776.908V220C776.908 219.467 776.742 219.051 776.412 218.752C776.092 218.453 775.633 218.304 775.036 218.304C774.513 218.304 774.081 218.416 773.74 218.64C773.398 218.853 773.19 219.147 773.116 219.52H771.676C771.772 218.763 772.129 218.16 772.748 217.712C773.366 217.264 774.14 217.04 775.068 217.04C776.081 217.04 776.881 217.301 777.468 217.824C778.054 218.347 778.348 219.056 778.348 219.952V226H776.94V224.32H776.924C776.86 224.885 776.582 225.333 776.092 225.664C775.612 225.995 774.988 226.16 774.22 226.16ZM774.572 225.024C775.254 225.024 775.814 224.853 776.252 224.512C776.689 224.171 776.908 223.733 776.908 223.2V221.952H774.22C773.74 221.952 773.361 222.085 773.084 222.352C772.806 222.619 772.668 222.981 772.668 223.44C772.668 223.931 772.833 224.32 773.164 224.608C773.505 224.885 773.974 225.024 774.572 225.024ZM784.645 226.16C783.579 226.16 782.725 225.861 782.085 225.264C781.456 224.667 781.141 223.845 781.141 222.8V220.4C781.141 219.355 781.456 218.533 782.085 217.936C782.725 217.339 783.579 217.04 784.645 217.04C785.659 217.04 786.475 217.312 787.093 217.856C787.712 218.4 788.037 219.141 788.069 220.08H786.629C786.597 219.515 786.405 219.083 786.053 218.784C785.712 218.475 785.243 218.32 784.645 218.32C784.016 218.32 783.515 218.501 783.141 218.864C782.768 219.216 782.581 219.723 782.581 220.384V222.8C782.581 223.461 782.768 223.973 783.141 224.336C783.515 224.699 784.016 224.88 784.645 224.88C785.243 224.88 785.712 224.725 786.053 224.416C786.405 224.107 786.597 223.675 786.629 223.12H788.069C788.037 224.059 787.712 224.8 787.093 225.344C786.475 225.888 785.659 226.16 784.645 226.16ZM790.895 226V214.32H792.335V220.832H794.031L796.591 217.2H798.239L795.279 221.392L798.287 226H796.607L794.047 222.08H792.335V226H790.895ZM812.083 226V219.392H809.523V218.08H812.083V216.56C812.083 215.867 812.301 215.323 812.739 214.928C813.176 214.523 813.779 214.32 814.547 214.32H817.123V215.632H814.547C813.864 215.632 813.523 215.941 813.523 216.56V218.08H817.123V219.392H813.523V226H812.083ZM819.932 226V217.2H821.34V218.768C821.628 217.616 822.402 217.04 823.66 217.04C824.588 217.04 825.324 217.333 825.868 217.92C826.423 218.496 826.7 219.28 826.7 220.272V220.8H825.26V220.4C825.26 219.707 825.09 219.179 824.748 218.816C824.418 218.443 823.943 218.256 823.324 218.256C822.716 218.256 822.236 218.443 821.884 218.816C821.543 219.189 821.372 219.717 821.372 220.4V226H819.932ZM831.782 226.16C830.854 226.16 830.123 225.925 829.59 225.456C829.057 224.976 828.79 224.331 828.79 223.52C828.79 222.699 829.057 222.053 829.59 221.584C830.123 221.115 830.843 220.88 831.75 220.88H834.47V220C834.47 219.467 834.305 219.051 833.974 218.752C833.654 218.453 833.195 218.304 832.598 218.304C832.075 218.304 831.643 218.416 831.302 218.64C830.961 218.853 830.753 219.147 830.678 219.52H829.238C829.334 218.763 829.691 218.16 830.31 217.712C830.929 217.264 831.702 217.04 832.63 217.04C833.643 217.04 834.443 217.301 835.03 217.824C835.617 218.347 835.91 219.056 835.91 219.952V226H834.502V224.32H834.486C834.422 224.885 834.145 225.333 833.654 225.664C833.174 225.995 832.55 226.16 831.782 226.16ZM832.134 225.024C832.817 225.024 833.377 224.853 833.814 224.512C834.251 224.171 834.47 223.733 834.47 223.2V221.952H831.782C831.302 221.952 830.923 222.085 830.646 222.352C830.369 222.619 830.23 222.981 830.23 223.44C830.23 223.931 830.395 224.32 830.726 224.608C831.067 224.885 831.537 225.024 832.134 225.024ZM838.4 226V217.2H839.664V218.256H839.76C839.824 217.883 839.978 217.589 840.224 217.376C840.48 217.152 840.8 217.04 841.184 217.04C841.941 217.04 842.421 217.445 842.624 218.256H842.688C842.752 217.883 842.912 217.589 843.168 217.376C843.434 217.152 843.76 217.04 844.144 217.04C844.698 217.04 845.125 217.248 845.424 217.664C845.733 218.08 845.888 218.629 845.888 219.312V226H844.56V219.296C844.56 218.933 844.48 218.651 844.32 218.448C844.17 218.245 843.946 218.144 843.648 218.144C843.36 218.144 843.13 218.245 842.96 218.448C842.8 218.64 842.72 218.917 842.72 219.28V226H841.568V219.296C841.568 218.923 841.482 218.64 841.312 218.448C841.152 218.245 840.922 218.144 840.624 218.144C840.325 218.144 840.101 218.245 839.952 218.448C839.802 218.64 839.728 218.917 839.728 219.28V226H838.4ZM851.738 226.16C851.044 226.16 850.436 226.021 849.914 225.744C849.402 225.467 849.002 225.077 848.714 224.576C848.436 224.064 848.298 223.472 848.298 222.8V220.4C848.298 219.717 848.436 219.125 848.714 218.624C849.002 218.123 849.402 217.733 849.914 217.456C850.436 217.179 851.044 217.04 851.738 217.04C852.431 217.04 853.034 217.179 853.546 217.456C854.068 217.733 854.468 218.123 854.746 218.624C855.034 219.125 855.178 219.717 855.178 220.4V221.952H849.706V222.8C849.706 223.493 849.882 224.027 850.234 224.4C850.586 224.763 851.087 224.944 851.738 224.944C852.292 224.944 852.74 224.848 853.082 224.656C853.423 224.453 853.631 224.155 853.706 223.76H855.146C855.05 224.496 854.687 225.083 854.058 225.52C853.439 225.947 852.666 226.16 851.738 226.16ZM849.706 220.864H853.77V220.4C853.77 219.707 853.594 219.173 853.242 218.8C852.9 218.427 852.399 218.24 851.738 218.24C851.087 218.24 850.586 218.427 850.234 218.8C849.882 219.173 849.706 219.707 849.706 220.4V220.864Z" fill="#8473FF"/>
<path d="M754.52 359V352.392H751.96V351.08H754.52V349.56C754.52 348.867 754.739 348.323 755.176 347.928C755.613 347.523 756.216 347.32 756.984 347.32H759.56V348.632H756.984C756.301 348.632 755.96 348.941 755.96 349.56V351.08H759.56V352.392H755.96V359H754.52ZM755.528 383.128C754.621 383.128 753.901 382.925 753.368 382.52C752.835 382.104 752.525 381.544 752.44 380.84H753.88C753.944 381.149 754.115 381.395 754.392 381.576C754.68 381.757 755.059 381.848 755.528 381.848H756.2C756.765 381.848 757.187 381.736 757.464 381.512C757.741 381.277 757.88 380.968 757.88 380.584C757.88 379.859 757.384 379.416 756.392 379.256L755.208 379.064C754.344 378.915 753.699 378.648 753.272 378.264C752.856 377.869 752.648 377.299 752.648 376.552C752.648 375.763 752.899 375.155 753.4 374.728C753.901 374.291 754.653 374.072 755.656 374.072H756.264C757.107 374.072 757.784 374.269 758.296 374.664C758.808 375.059 759.117 375.592 759.224 376.264H757.784C757.72 375.987 757.56 375.768 757.304 375.608C757.048 375.437 756.701 375.352 756.264 375.352H755.656C755.112 375.352 754.712 375.453 754.456 375.656C754.211 375.859 754.088 376.163 754.088 376.568C754.088 376.931 754.195 377.197 754.408 377.368C754.621 377.539 754.957 377.661 755.416 377.736L756.6 377.928C757.549 378.077 758.237 378.355 758.664 378.76C759.101 379.165 759.32 379.752 759.32 380.52C759.32 381.331 759.059 381.971 758.536 382.44C758.024 382.899 757.245 383.128 756.2 383.128H755.528ZM766.354 383C765.596 383 765.004 382.797 764.578 382.392C764.162 381.987 763.954 381.416 763.954 380.68V375.512H761.474V374.2H763.954V371.72H765.394V374.2H768.914V375.512H765.394V380.68C765.394 381.352 765.714 381.688 766.354 381.688H768.754V383H766.354ZM774.22 383.16C773.292 383.16 772.561 382.925 772.028 382.456C771.494 381.976 771.228 381.331 771.228 380.52C771.228 379.699 771.494 379.053 772.028 378.584C772.561 378.115 773.281 377.88 774.188 377.88H776.908V377C776.908 376.467 776.742 376.051 776.412 375.752C776.092 375.453 775.633 375.304 775.036 375.304C774.513 375.304 774.081 375.416 773.74 375.64C773.398 375.853 773.19 376.147 773.116 376.52H771.676C771.772 375.763 772.129 375.16 772.748 374.712C773.366 374.264 774.14 374.04 775.068 374.04C776.081 374.04 776.881 374.301 777.468 374.824C778.054 375.347 778.348 376.056 778.348 376.952V383H776.94V381.32H776.924C776.86 381.885 776.582 382.333 776.092 382.664C775.612 382.995 774.988 383.16 774.22 383.16ZM774.572 382.024C775.254 382.024 775.814 381.853 776.252 381.512C776.689 381.171 776.908 380.733 776.908 380.2V378.952H774.22C773.74 378.952 773.361 379.085 773.084 379.352C772.806 379.619 772.668 379.981 772.668 380.44C772.668 380.931 772.833 381.32 773.164 381.608C773.505 381.885 773.974 382.024 774.572 382.024ZM784.645 383.16C783.579 383.16 782.725 382.861 782.085 382.264C781.456 381.667 781.141 380.845 781.141 379.8V377.4C781.141 376.355 781.456 375.533 782.085 374.936C782.725 374.339 783.579 374.04 784.645 374.04C785.659 374.04 786.475 374.312 787.093 374.856C787.712 375.4 788.037 376.141 788.069 377.08H786.629C786.597 376.515 786.405 376.083 786.053 375.784C785.712 375.475 785.243 375.32 784.645 375.32C784.016 375.32 783.515 375.501 783.141 375.864C782.768 376.216 782.581 376.723 782.581 377.384V379.8C782.581 380.461 782.768 380.973 783.141 381.336C783.515 381.699 784.016 381.88 784.645 381.88C785.243 381.88 785.712 381.725 786.053 381.416C786.405 381.107 786.597 380.675 786.629 380.12H788.069C788.037 381.059 787.712 381.8 787.093 382.344C786.475 382.888 785.659 383.16 784.645 383.16ZM790.895 383V371.32H792.335V377.832H794.031L796.591 374.2H798.239L795.279 378.392L798.287 383H796.607L794.047 379.08H792.335V383H790.895ZM812.083 383V376.392H809.523V375.08H812.083V373.56C812.083 372.867 812.301 372.323 812.739 371.928C813.176 371.523 813.779 371.32 814.547 371.32H817.123V372.632H814.547C813.864 372.632 813.523 372.941 813.523 373.56V375.08H817.123V376.392H813.523V383H812.083ZM819.932 383V374.2H821.34V375.768C821.628 374.616 822.402 374.04 823.66 374.04C824.588 374.04 825.324 374.333 825.868 374.92C826.423 375.496 826.7 376.28 826.7 377.272V377.8H825.26V377.4C825.26 376.707 825.09 376.179 824.748 375.816C824.418 375.443 823.943 375.256 823.324 375.256C822.716 375.256 822.236 375.443 821.884 375.816C821.543 376.189 821.372 376.717 821.372 377.4V383H819.932ZM831.782 383.16C830.854 383.16 830.123 382.925 829.59 382.456C829.057 381.976 828.79 381.331 828.79 380.52C828.79 379.699 829.057 379.053 829.59 378.584C830.123 378.115 830.843 377.88 831.75 377.88H834.47V377C834.47 376.467 834.305 376.051 833.974 375.752C833.654 375.453 833.195 375.304 832.598 375.304C832.075 375.304 831.643 375.416 831.302 375.64C830.961 375.853 830.753 376.147 830.678 376.52H829.238C829.334 375.763 829.691 375.16 830.31 374.712C830.929 374.264 831.702 374.04 832.63 374.04C833.643 374.04 834.443 374.301 835.03 374.824C835.617 375.347 835.91 376.056 835.91 376.952V383H834.502V381.32H834.486C834.422 381.885 834.145 382.333 833.654 382.664C833.174 382.995 832.55 383.16 831.782 383.16ZM832.134 382.024C832.817 382.024 833.377 381.853 833.814 381.512C834.251 381.171 834.47 380.733 834.47 380.2V378.952H831.782C831.302 378.952 830.923 379.085 830.646 379.352C830.369 379.619 830.23 379.981 830.23 380.44C830.23 380.931 830.395 381.32 830.726 381.608C831.067 381.885 831.537 382.024 832.134 382.024ZM838.4 383V374.2H839.664V375.256H839.76C839.824 374.883 839.978 374.589 840.224 374.376C840.48 374.152 840.8 374.04 841.184 374.04C841.941 374.04 842.421 374.445 842.624 375.256H842.688C842.752 374.883 842.912 374.589 843.168 374.376C843.434 374.152 843.76 374.04 844.144 374.04C844.698 374.04 845.125 374.248 845.424 374.664C845.733 375.08 845.888 375.629 845.888 376.312V383H844.56V376.296C844.56 375.933 844.48 375.651 844.32 375.448C844.17 375.245 843.946 375.144 843.648 375.144C843.36 375.144 843.13 375.245 842.96 375.448C842.8 375.64 842.72 375.917 842.72 376.28V383H841.568V376.296C841.568 375.923 841.482 375.64 841.312 375.448C841.152 375.245 840.922 375.144 840.624 375.144C840.325 375.144 840.101 375.245 839.952 375.448C839.802 375.64 839.728 375.917 839.728 376.28V383H838.4ZM851.738 383.16C851.044 383.16 850.436 383.021 849.914 382.744C849.402 382.467 849.002 382.077 848.714 381.576C848.436 381.064 848.298 380.472 848.298 379.8V377.4C848.298 376.717 848.436 376.125 848.714 375.624C849.002 375.123 849.402 374.733 849.914 374.456C850.436 374.179 851.044 374.04 851.738 374.04C852.431 374.04 853.034 374.179 853.546 374.456C854.068 374.733 854.468 375.123 854.746 375.624C855.034 376.125 855.178 376.717 855.178 377.4V378.952H849.706V379.8C849.706 380.493 849.882 381.027 850.234 381.4C850.586 381.763 851.087 381.944 851.738 381.944C852.292 381.944 852.74 381.848 853.082 381.656C853.423 381.453 853.631 381.155 853.706 380.76H855.146C855.05 381.496 854.687 382.083 854.058 382.52C853.439 382.947 852.666 383.16 851.738 383.16ZM849.706 377.864H853.77V377.4C853.77 376.707 853.594 376.173 853.242 375.8C852.9 375.427 852.399 375.24 851.738 375.24C851.087 375.24 850.586 375.427 850.234 375.8C849.882 376.173 849.706 376.707 849.706 377.4V377.864Z" fill="#8473FF"/>
<path d="M753.576 517.88V516.568H756.376C757.24 516.568 757.672 516.152 757.672 515.32V514.2L757.704 512.6H757.672C757.619 513.165 757.379 513.613 756.952 513.944C756.536 514.275 755.997 514.44 755.336 514.44C754.429 514.44 753.715 514.147 753.192 513.56C752.669 512.963 752.408 512.163 752.408 511.16V509.304C752.408 508.301 752.669 507.507 753.192 506.92C753.715 506.333 754.429 506.04 755.336 506.04C755.997 506.04 756.536 506.205 756.952 506.536C757.379 506.867 757.619 507.315 757.672 507.88H757.688V506.2H759.112V515.32C759.112 516.109 758.867 516.733 758.376 517.192C757.896 517.651 757.224 517.88 756.36 517.88H753.576ZM755.768 513.192C756.365 513.192 756.835 513.005 757.176 512.632C757.517 512.259 757.688 511.741 757.688 511.08V509.4C757.688 508.739 757.517 508.221 757.176 507.848C756.835 507.475 756.365 507.288 755.768 507.288C755.16 507.288 754.685 507.469 754.344 507.832C754.013 508.195 753.848 508.717 753.848 509.4V511.08C753.848 511.763 754.013 512.285 754.344 512.648C754.685 513.011 755.16 513.192 755.768 513.192ZM755.528 539.128C754.621 539.128 753.901 538.925 753.368 538.52C752.835 538.104 752.525 537.544 752.44 536.84H753.88C753.944 537.149 754.115 537.395 754.392 537.576C754.68 537.757 755.059 537.848 755.528 537.848H756.2C756.765 537.848 757.187 537.736 757.464 537.512C757.741 537.277 757.88 536.968 757.88 536.584C757.88 535.859 757.384 535.416 756.392 535.256L755.208 535.064C754.344 534.915 753.699 534.648 753.272 534.264C752.856 533.869 752.648 533.299 752.648 532.552C752.648 531.763 752.899 531.155 753.4 530.728C753.901 530.291 754.653 530.072 755.656 530.072H756.264C757.107 530.072 757.784 530.269 758.296 530.664C758.808 531.059 759.117 531.592 759.224 532.264H757.784C757.72 531.987 757.56 531.768 757.304 531.608C757.048 531.437 756.701 531.352 756.264 531.352H755.656C755.112 531.352 754.712 531.453 754.456 531.656C754.211 531.859 754.088 532.163 754.088 532.568C754.088 532.931 754.195 533.197 754.408 533.368C754.621 533.539 754.957 533.661 755.416 533.736L756.6 533.928C757.549 534.077 758.237 534.355 758.664 534.76C759.101 535.165 759.32 535.752 759.32 536.52C759.32 537.331 759.059 537.971 758.536 538.44C758.024 538.899 757.245 539.128 756.2 539.128H755.528ZM766.354 539C765.596 539 765.004 538.797 764.578 538.392C764.162 537.987 763.954 537.416 763.954 536.68V531.512H761.474V530.2H763.954V527.72H765.394V530.2H768.914V531.512H765.394V536.68C765.394 537.352 765.714 537.688 766.354 537.688H768.754V539H766.354ZM774.22 539.16C773.292 539.16 772.561 538.925 772.028 538.456C771.494 537.976 771.228 537.331 771.228 536.52C771.228 535.699 771.494 535.053 772.028 534.584C772.561 534.115 773.281 533.88 774.188 533.88H776.908V533C776.908 532.467 776.742 532.051 776.412 531.752C776.092 531.453 775.633 531.304 775.036 531.304C774.513 531.304 774.081 531.416 773.74 531.64C773.398 531.853 773.19 532.147 773.116 532.52H771.676C771.772 531.763 772.129 531.16 772.748 530.712C773.366 530.264 774.14 530.04 775.068 530.04C776.081 530.04 776.881 530.301 777.468 530.824C778.054 531.347 778.348 532.056 778.348 532.952V539H776.94V537.32H776.924C776.86 537.885 776.582 538.333 776.092 538.664C775.612 538.995 774.988 539.16 774.22 539.16ZM774.572 538.024C775.254 538.024 775.814 537.853 776.252 537.512C776.689 537.171 776.908 536.733 776.908 536.2V534.952H774.22C773.74 534.952 773.361 535.085 773.084 535.352C772.806 535.619 772.668 535.981 772.668 536.44C772.668 536.931 772.833 537.32 773.164 537.608C773.505 537.885 773.974 538.024 774.572 538.024ZM784.645 539.16C783.579 539.16 782.725 538.861 782.085 538.264C781.456 537.667 781.141 536.845 781.141 535.8V533.4C781.141 532.355 781.456 531.533 782.085 530.936C782.725 530.339 783.579 530.04 784.645 530.04C785.659 530.04 786.475 530.312 787.093 530.856C787.712 531.4 788.037 532.141 788.069 533.08H786.629C786.597 532.515 786.405 532.083 786.053 531.784C785.712 531.475 785.243 531.32 784.645 531.32C784.016 531.32 783.515 531.501 783.141 531.864C782.768 532.216 782.581 532.723 782.581 533.384V535.8C782.581 536.461 782.768 536.973 783.141 537.336C783.515 537.699 784.016 537.88 784.645 537.88C785.243 537.88 785.712 537.725 786.053 537.416C786.405 537.107 786.597 536.675 786.629 536.12H788.069C788.037 537.059 787.712 537.8 787.093 538.344C786.475 538.888 785.659 539.16 784.645 539.16ZM790.895 539V527.32H792.335V533.832H794.031L796.591 530.2H798.239L795.279 534.392L798.287 539H796.607L794.047 535.08H792.335V539H790.895ZM812.083 539V532.392H809.523V531.08H812.083V529.56C812.083 528.867 812.301 528.323 812.739 527.928C813.176 527.523 813.779 527.32 814.547 527.32H817.123V528.632H814.547C813.864 528.632 813.523 528.941 813.523 529.56V531.08H817.123V532.392H813.523V539H812.083ZM819.932 539V530.2H821.34V531.768C821.628 530.616 822.402 530.04 823.66 530.04C824.588 530.04 825.324 530.333 825.868 530.92C826.423 531.496 826.7 532.28 826.7 533.272V533.8H825.26V533.4C825.26 532.707 825.09 532.179 824.748 531.816C824.418 531.443 823.943 531.256 823.324 531.256C822.716 531.256 822.236 531.443 821.884 531.816C821.543 532.189 821.372 532.717 821.372 533.4V539H819.932ZM831.782 539.16C830.854 539.16 830.123 538.925 829.59 538.456C829.057 537.976 828.79 537.331 828.79 536.52C828.79 535.699 829.057 535.053 829.59 534.584C830.123 534.115 830.843 533.88 831.75 533.88H834.47V533C834.47 532.467 834.305 532.051 833.974 531.752C833.654 531.453 833.195 531.304 832.598 531.304C832.075 531.304 831.643 531.416 831.302 531.64C830.961 531.853 830.753 532.147 830.678 532.52H829.238C829.334 531.763 829.691 531.16 830.31 530.712C830.929 530.264 831.702 530.04 832.63 530.04C833.643 530.04 834.443 530.301 835.03 530.824C835.617 531.347 835.91 532.056 835.91 532.952V539H834.502V537.32H834.486C834.422 537.885 834.145 538.333 833.654 538.664C833.174 538.995 832.55 539.16 831.782 539.16ZM832.134 538.024C832.817 538.024 833.377 537.853 833.814 537.512C834.251 537.171 834.47 536.733 834.47 536.2V534.952H831.782C831.302 534.952 830.923 535.085 830.646 535.352C830.369 535.619 830.23 535.981 830.23 536.44C830.23 536.931 830.395 537.32 830.726 537.608C831.067 537.885 831.537 538.024 832.134 538.024ZM838.4 539V530.2H839.664V531.256H839.76C839.824 530.883 839.978 530.589 840.224 530.376C840.48 530.152 840.8 530.04 841.184 530.04C841.941 530.04 842.421 530.445 842.624 531.256H842.688C842.752 530.883 842.912 530.589 843.168 530.376C843.434 530.152 843.76 530.04 844.144 530.04C844.698 530.04 845.125 530.248 845.424 530.664C845.733 531.08 845.888 531.629 845.888 532.312V539H844.56V532.296C844.56 531.933 844.48 531.651 844.32 531.448C844.17 531.245 843.946 531.144 843.648 531.144C843.36 531.144 843.13 531.245 842.96 531.448C842.8 531.64 842.72 531.917 842.72 532.28V539H841.568V532.296C841.568 531.923 841.482 531.64 841.312 531.448C841.152 531.245 840.922 531.144 840.624 531.144C840.325 531.144 840.101 531.245 839.952 531.448C839.802 531.64 839.728 531.917 839.728 532.28V539H838.4ZM851.738 539.16C851.044 539.16 850.436 539.021 849.914 538.744C849.402 538.467 849.002 538.077 848.714 537.576C848.436 537.064 848.298 536.472 848.298 535.8V533.4C848.298 532.717 848.436 532.125 848.714 531.624C849.002 531.123 849.402 530.733 849.914 530.456C850.436 530.179 851.044 530.04 851.738 530.04C852.431 530.04 853.034 530.179 853.546 530.456C854.068 530.733 854.468 531.123 854.746 531.624C855.034 532.125 855.178 532.717 855.178 533.4V534.952H849.706V535.8C849.706 536.493 849.882 537.027 850.234 537.4C850.586 537.763 851.087 537.944 851.738 537.944C852.292 537.944 852.74 537.848 853.082 537.656C853.423 537.453 853.631 537.155 853.706 536.76H855.146C855.05 537.496 854.687 538.083 854.058 538.52C853.439 538.947 852.666 539.16 851.738 539.16ZM849.706 533.864H853.77V533.4C853.77 532.707 853.594 532.173 853.242 531.8C852.9 531.427 852.399 531.24 851.738 531.24C851.087 531.24 850.586 531.427 850.234 531.8C849.882 532.173 849.706 532.707 849.706 533.4V533.864Z" fill="#8473FF"/>
<path d="M858 130L717 130" stroke="#8473FF" stroke-dasharray="8 4"/>
<path d="M858 287H717" stroke="#8473FF" stroke-dasharray="8 4"/>
<path d="M858 443H717" stroke="#8473FF" stroke-dasharray="8 4"/>
<path d="M858 599H717" stroke="#8473FF" stroke-dasharray="8 4"/>
</svg>
