<svg width="721" height="405" viewBox="0 0 721 405" fill="none" xmlns="http://www.w3.org/2000/svg">
<rect width="721" height="405" fill="white"/>
<rect x="400" y="31" width="294" height="344" rx="8" fill="#FF7936"/>
<path d="M475.372 62H478.542L482.832 72.11L483.072 72.89L483.302 72.11L487.502 62H490.712V76H488.262V66.04L488.292 65.51L483.942 76H482.112L477.782 65.58L477.812 66.04V76H475.372V62ZM498.428 76.24C497.428 76.24 496.528 76.01 495.728 75.55C494.935 75.09 494.315 74.4533 493.868 73.64C493.421 72.82 493.198 71.8967 493.198 70.87C493.198 69.8567 493.425 68.9433 493.878 68.13C494.331 67.3167 494.955 66.68 495.748 66.22C496.548 65.7533 497.441 65.52 498.428 65.52C499.441 65.52 500.328 65.75 501.088 66.21C501.855 66.67 502.445 67.3067 502.858 68.12C503.271 68.9267 503.478 69.8433 503.478 70.87V71.52H495.668C495.735 72.0533 495.898 72.5233 496.158 72.93C496.418 73.3367 496.751 73.6533 497.158 73.88C497.565 74.1 498.018 74.21 498.518 74.21C499.105 74.21 499.601 74.1233 500.008 73.95C500.415 73.7767 500.728 73.5267 500.948 73.2H503.298C503.191 73.7 502.928 74.1833 502.508 74.65C502.088 75.1167 501.528 75.5 500.828 75.8C500.128 76.0933 499.328 76.24 498.428 76.24ZM501.038 69.87C500.918 69.1367 500.635 68.5567 500.188 68.13C499.748 67.7033 499.165 67.49 498.438 67.49C497.718 67.49 497.111 67.7033 496.618 68.13C496.131 68.5567 495.821 69.1367 495.688 69.87H501.038ZM505.628 65.76H507.938V67.3C508.244 66.7267 508.654 66.2867 509.168 65.98C509.681 65.6733 510.278 65.52 510.958 65.52C511.691 65.52 512.324 65.69 512.858 66.03C513.391 66.3633 513.798 66.84 514.078 67.46C514.411 66.8467 514.861 66.37 515.428 66.03C515.994 65.69 516.651 65.52 517.398 65.52C518.124 65.52 518.758 65.6867 519.298 66.02C519.844 66.3467 520.268 66.8133 520.568 67.42C520.868 68.0267 521.018 68.7333 521.018 69.54V76H518.638V69.82C518.638 69.1333 518.464 68.5933 518.118 68.2C517.778 67.8 517.298 67.6 516.678 67.6C516.238 67.6 515.851 67.7 515.518 67.9C515.191 68.1 514.938 68.3867 514.758 68.76C514.578 69.1267 514.488 69.56 514.488 70.06V76H512.158V69.82C512.158 69.1333 511.984 68.5933 511.638 68.2C511.291 67.8 510.811 67.6 510.198 67.6C509.524 67.6 508.991 67.8233 508.598 68.27C508.204 68.71 508.008 69.3067 508.008 70.06V76H505.628V65.76ZM528.335 76.24C527.315 76.24 526.395 76.01 525.575 75.55C524.755 75.09 524.108 74.4533 523.635 73.64C523.168 72.8267 522.935 71.9067 522.935 70.88C522.935 69.8533 523.168 68.9333 523.635 68.12C524.108 67.3067 524.755 66.67 525.575 66.21C526.401 65.75 527.325 65.52 528.345 65.52C529.365 65.52 530.285 65.75 531.105 66.21C531.925 66.67 532.568 67.3067 533.035 68.12C533.501 68.9333 533.735 69.8533 533.735 70.88C533.735 71.9067 533.501 72.8267 533.035 73.64C532.568 74.4533 531.925 75.09 531.105 75.55C530.285 76.01 529.361 76.24 528.335 76.24ZM525.405 70.88C525.405 71.5133 525.531 72.0733 525.785 72.56C526.045 73.0467 526.398 73.4267 526.845 73.7C527.291 73.9667 527.795 74.1 528.355 74.1C528.908 74.1 529.405 73.9667 529.845 73.7C530.291 73.4267 530.638 73.0467 530.885 72.56C531.138 72.0733 531.265 71.5133 531.265 70.88C531.265 70.2467 531.138 69.6867 530.885 69.2C530.631 68.7067 530.281 68.3267 529.835 68.06C529.395 67.7867 528.898 67.65 528.345 67.65C527.791 67.65 527.291 67.7867 526.845 68.06C526.398 68.3267 526.045 68.7067 525.785 69.2C525.531 69.6867 525.405 70.2467 525.405 70.88ZM535.901 65.76H538.261V67.3C538.588 66.78 538.995 66.3833 539.481 66.11C539.968 65.83 540.525 65.69 541.151 65.69H541.531V68.09H540.851C540.058 68.0833 539.431 68.2933 538.971 68.72C538.511 69.1467 538.281 69.73 538.281 70.47V76H535.901V65.76ZM542.904 77.25H544.334C544.601 77.25 544.834 77.1767 545.034 77.03C545.241 76.89 545.394 76.7 545.494 76.46L545.984 75.4L542.044 65.76H544.514L547.164 72.64L549.594 65.76H552.004L547.754 76.69C547.454 77.47 547.041 78.0833 546.514 78.53C545.994 78.9767 545.321 79.2 544.494 79.2H542.904V77.25ZM560.546 62V73.71H567.326V76H558.106V62H560.546ZM573.233 65.52C574.067 65.52 574.803 65.67 575.443 65.97C576.083 66.2633 576.58 66.69 576.933 67.25C577.287 67.8033 577.463 68.46 577.463 69.22V76H575.163V74.51C574.843 75.07 574.407 75.5 573.853 75.8C573.307 76.0933 572.66 76.24 571.913 76.24C571.253 76.24 570.66 76.1167 570.133 75.87C569.613 75.6167 569.207 75.2667 568.913 74.82C568.62 74.3667 568.473 73.8533 568.473 73.28C568.473 72.7333 568.613 72.23 568.893 71.77C569.18 71.3033 569.577 70.9233 570.083 70.63C570.59 70.3367 571.16 70.1567 571.793 70.09L574.463 69.81C574.67 69.79 574.833 69.7167 574.953 69.59C575.073 69.4567 575.133 69.2633 575.133 69.01C575.127 68.5233 574.943 68.13 574.583 67.83C574.223 67.53 573.753 67.38 573.173 67.38C572.8 67.38 572.457 67.4467 572.143 67.58C571.837 67.7067 571.59 67.88 571.403 68.1C571.217 68.32 571.107 68.5633 571.073 68.83H568.723C568.79 68.19 569.027 67.62 569.433 67.12C569.84 66.62 570.373 66.23 571.033 65.95C571.693 65.6633 572.427 65.52 573.233 65.52ZM570.893 73.01C570.893 73.4367 571.06 73.7833 571.393 74.05C571.727 74.3167 572.157 74.45 572.683 74.45C573.163 74.45 573.587 74.3533 573.953 74.16C574.327 73.9667 574.617 73.7 574.823 73.36C575.03 73.0133 575.133 72.6167 575.133 72.17V71.26L572.363 71.58C571.923 71.6267 571.567 71.7767 571.293 72.03C571.027 72.2833 570.893 72.61 570.893 73.01ZM579.584 77.25H581.014C581.28 77.25 581.514 77.1767 581.714 77.03C581.92 76.89 582.074 76.7 582.174 76.46L582.664 75.4L578.724 65.76H581.194L583.844 72.64L586.274 65.76H588.684L584.434 76.69C584.134 77.47 583.72 78.0833 583.194 78.53C582.674 78.9767 582 79.2 581.174 79.2H579.584V77.25ZM594.546 76.24C593.526 76.24 592.606 76.01 591.786 75.55C590.966 75.09 590.319 74.4533 589.846 73.64C589.379 72.8267 589.146 71.9067 589.146 70.88C589.146 69.8533 589.379 68.9333 589.846 68.12C590.319 67.3067 590.966 66.67 591.786 66.21C592.612 65.75 593.536 65.52 594.556 65.52C595.576 65.52 596.496 65.75 597.316 66.21C598.136 66.67 598.779 67.3067 599.246 68.12C599.712 68.9333 599.946 69.8533 599.946 70.88C599.946 71.9067 599.712 72.8267 599.246 73.64C598.779 74.4533 598.136 75.09 597.316 75.55C596.496 76.01 595.572 76.24 594.546 76.24ZM591.616 70.88C591.616 71.5133 591.742 72.0733 591.996 72.56C592.256 73.0467 592.609 73.4267 593.056 73.7C593.502 73.9667 594.006 74.1 594.566 74.1C595.119 74.1 595.616 73.9667 596.056 73.7C596.502 73.4267 596.849 73.0467 597.096 72.56C597.349 72.0733 597.476 71.5133 597.476 70.88C597.476 70.2467 597.349 69.6867 597.096 69.2C596.842 68.7067 596.492 68.3267 596.046 68.06C595.606 67.7867 595.109 67.65 594.556 67.65C594.002 67.65 593.502 67.7867 593.056 68.06C592.609 68.3267 592.256 68.7067 591.996 69.2C591.742 69.6867 591.616 70.2467 591.616 70.88ZM611.092 76H608.782V74.53C608.449 75.0833 608.009 75.5067 607.462 75.8C606.922 76.0933 606.299 76.24 605.592 76.24C604.859 76.24 604.209 76.08 603.642 75.76C603.082 75.44 602.645 74.9767 602.332 74.37C602.019 73.7633 601.862 73.04 601.862 72.2V65.76H604.242V71.84C604.242 72.5667 604.429 73.1333 604.802 73.54C605.182 73.9467 605.702 74.15 606.362 74.15C606.829 74.15 607.239 74.0467 607.592 73.84C607.952 73.6333 608.229 73.3433 608.422 72.97C608.622 72.5967 608.722 72.17 608.722 71.69V65.76H611.092V76ZM617.597 76C617.05 76 616.557 75.8833 616.117 75.65C615.684 75.4167 615.344 75.0933 615.097 74.68C614.857 74.2667 614.737 73.7967 614.737 73.27L614.727 67.81H612.927L612.937 65.76H614.057C614.31 65.76 614.514 65.6833 614.667 65.53C614.82 65.37 614.897 65.1667 614.897 64.92V63.27H617.107V65.76H619.567L619.557 67.81H617.097L617.107 72.98C617.107 73.26 617.197 73.4933 617.377 73.68C617.564 73.86 617.797 73.95 618.077 73.95H619.557V76H617.597Z" fill="white"/>
<rect x="424" y="107" width="246" height="48" rx="6" fill="white"/>
<path d="M530.48 137.192C529.68 137.192 528.971 137.048 528.352 136.76C527.734 136.467 527.248 136.059 526.896 135.536C526.55 135.008 526.374 134.405 526.368 133.728H528.36C528.36 134.075 528.451 134.381 528.632 134.648C528.814 134.915 529.064 135.123 529.384 135.272C529.71 135.421 530.083 135.496 530.504 135.496C530.915 135.496 531.275 135.429 531.584 135.296C531.894 135.157 532.131 134.968 532.296 134.728C532.467 134.483 532.552 134.2 532.552 133.88C532.552 133.48 532.43 133.136 532.184 132.848C531.944 132.56 531.624 132.381 531.224 132.312L529.304 131.992C528.766 131.901 528.296 131.712 527.896 131.424C527.496 131.131 527.187 130.765 526.968 130.328C526.755 129.891 526.648 129.411 526.648 128.888C526.648 128.259 526.811 127.696 527.136 127.2C527.462 126.699 527.912 126.309 528.488 126.032C529.07 125.749 529.728 125.608 530.464 125.608C531.216 125.608 531.883 125.744 532.464 126.016C533.051 126.288 533.507 126.669 533.832 127.16C534.158 127.651 534.323 128.211 534.328 128.84H532.344C532.344 128.541 532.267 128.277 532.112 128.048C531.958 127.813 531.739 127.632 531.456 127.504C531.179 127.371 530.856 127.304 530.488 127.304C530.126 127.304 529.803 127.368 529.52 127.496C529.243 127.619 529.027 127.795 528.872 128.024C528.718 128.248 528.64 128.507 528.64 128.8C528.64 129.147 528.752 129.448 528.976 129.704C529.2 129.955 529.496 130.112 529.864 130.176L531.728 130.48C532.283 130.571 532.774 130.776 533.2 131.096C533.632 131.416 533.966 131.811 534.2 132.28C534.44 132.749 534.56 133.251 534.56 133.784C534.56 134.429 534.387 135.011 534.04 135.528C533.699 136.045 533.219 136.453 532.6 136.752C531.982 137.045 531.275 137.192 530.48 137.192ZM539.392 137C538.954 137 538.56 136.907 538.208 136.72C537.861 136.533 537.589 136.275 537.392 135.944C537.2 135.613 537.104 135.237 537.104 134.816L537.096 130.448H535.656L535.664 128.808H536.56C536.762 128.808 536.925 128.747 537.048 128.624C537.17 128.496 537.232 128.333 537.232 128.136V126.816H539V128.808H540.968L540.96 130.448H538.992L539 134.584C539 134.808 539.072 134.995 539.216 135.144C539.365 135.288 539.552 135.36 539.776 135.36H540.96V137H539.392ZM546.073 128.616C546.739 128.616 547.329 128.736 547.841 128.976C548.353 129.211 548.75 129.552 549.033 130C549.315 130.443 549.457 130.968 549.457 131.576V137H547.617V135.808C547.361 136.256 547.011 136.6 546.569 136.84C546.131 137.075 545.614 137.192 545.017 137.192C544.489 137.192 544.014 137.093 543.593 136.896C543.177 136.693 542.851 136.413 542.617 136.056C542.382 135.693 542.265 135.283 542.265 134.824C542.265 134.387 542.377 133.984 542.601 133.616C542.83 133.243 543.147 132.939 543.553 132.704C543.958 132.469 544.414 132.325 544.921 132.272L547.057 132.048C547.222 132.032 547.353 131.973 547.449 131.872C547.545 131.765 547.593 131.611 547.593 131.408C547.587 131.019 547.441 130.704 547.153 130.464C546.865 130.224 546.489 130.104 546.025 130.104C545.726 130.104 545.451 130.157 545.201 130.264C544.955 130.365 544.758 130.504 544.609 130.68C544.459 130.856 544.371 131.051 544.345 131.264H542.465C542.518 130.752 542.707 130.296 543.033 129.896C543.358 129.496 543.785 129.184 544.313 128.96C544.841 128.731 545.427 128.616 546.073 128.616ZM544.201 134.608C544.201 134.949 544.334 135.227 544.601 135.44C544.867 135.653 545.211 135.76 545.633 135.76C546.017 135.76 546.355 135.683 546.649 135.528C546.947 135.373 547.179 135.16 547.345 134.888C547.51 134.611 547.593 134.293 547.593 133.936V133.208L545.377 133.464C545.025 133.501 544.739 133.621 544.521 133.824C544.307 134.027 544.201 134.288 544.201 134.608ZM555.27 137.192C554.47 137.192 553.744 137.005 553.094 136.632C552.443 136.259 551.931 135.747 551.558 135.096C551.19 134.44 551.006 133.709 551.006 132.904C551.006 132.099 551.19 131.371 551.558 130.72C551.931 130.064 552.443 129.549 553.094 129.176C553.744 128.803 554.47 128.616 555.27 128.616C555.968 128.616 556.603 128.744 557.174 129C557.744 129.251 558.211 129.616 558.574 130.096C558.942 130.571 559.174 131.139 559.27 131.8H557.366C557.222 131.315 556.96 130.947 556.582 130.696C556.203 130.445 555.768 130.32 555.278 130.32C554.84 130.32 554.446 130.432 554.094 130.656C553.747 130.875 553.475 131.181 553.278 131.576C553.08 131.965 552.982 132.408 552.982 132.904C552.982 133.4 553.08 133.845 553.278 134.24C553.475 134.629 553.747 134.936 554.094 135.16C554.446 135.379 554.84 135.488 555.278 135.488C555.768 135.488 556.203 135.363 556.582 135.112C556.96 134.861 557.222 134.493 557.366 134.008H559.27C559.174 134.659 558.939 135.224 558.566 135.704C558.192 136.184 557.72 136.552 557.15 136.808C556.579 137.064 555.952 137.192 555.27 137.192ZM560.988 125.8H562.892V132.464L566.1 128.808H568.284L564.964 132.704L568.428 137H566.132L562.892 133.024V137H560.988V125.8Z" fill="#FF7936"/>
<path d="M547 231L552.774 221L541.226 221L547 231ZM548 222.467L548 213.933L546 213.933L546 222.467L548 222.467ZM548 209.667L548 201.133L546 201.133L546 209.667L548 209.667ZM548 196.867L548 188.333L546 188.333L546 196.867L548 196.867ZM548 184.067L548 175.533L546 175.533L546 184.067L548 184.067ZM548 171.267L548 167L546 167L546 171.267L548 171.267Z" fill="white"/>
<rect x="424" y="243" width="246" height="48" rx="6" fill="white"/>
<path d="M528.299 261.8H530.259V266.376H535.363V261.8H537.323V273H535.363V268.208H530.259V273H528.299V261.8ZM543.494 273.192C542.694 273.192 541.974 273.008 541.334 272.64C540.699 272.272 540.203 271.763 539.846 271.112C539.489 270.456 539.31 269.717 539.31 268.896C539.31 268.085 539.491 267.355 539.854 266.704C540.217 266.053 540.715 265.544 541.35 265.176C541.99 264.803 542.705 264.616 543.494 264.616C544.305 264.616 545.014 264.8 545.622 265.168C546.235 265.536 546.707 266.045 547.038 266.696C547.369 267.341 547.534 268.075 547.534 268.896V269.416H541.286C541.339 269.843 541.47 270.219 541.678 270.544C541.886 270.869 542.153 271.123 542.478 271.304C542.803 271.48 543.166 271.568 543.566 271.568C544.035 271.568 544.433 271.499 544.758 271.36C545.083 271.221 545.334 271.021 545.51 270.76H547.39C547.305 271.16 547.094 271.547 546.758 271.92C546.422 272.293 545.974 272.6 545.414 272.84C544.854 273.075 544.214 273.192 543.494 273.192ZM545.582 268.096C545.486 267.509 545.259 267.045 544.902 266.704C544.55 266.363 544.083 266.192 543.502 266.192C542.926 266.192 542.441 266.363 542.046 266.704C541.657 267.045 541.409 267.509 541.302 268.096H545.582ZM552.526 264.616C553.192 264.616 553.782 264.736 554.294 264.976C554.806 265.211 555.203 265.552 555.486 266C555.768 266.443 555.91 266.968 555.91 267.576V273H554.07V271.808C553.814 272.256 553.464 272.6 553.022 272.84C552.584 273.075 552.067 273.192 551.47 273.192C550.942 273.192 550.467 273.093 550.046 272.896C549.63 272.693 549.304 272.413 549.07 272.056C548.835 271.693 548.718 271.283 548.718 270.824C548.718 270.387 548.83 269.984 549.054 269.616C549.283 269.243 549.6 268.939 550.006 268.704C550.411 268.469 550.867 268.325 551.374 268.272L553.51 268.048C553.675 268.032 553.806 267.973 553.902 267.872C553.998 267.765 554.046 267.611 554.046 267.408C554.04 267.019 553.894 266.704 553.606 266.464C553.318 266.224 552.942 266.104 552.478 266.104C552.179 266.104 551.904 266.157 551.654 266.264C551.408 266.365 551.211 266.504 551.062 266.68C550.912 266.856 550.824 267.051 550.798 267.264H548.918C548.971 266.752 549.16 266.296 549.486 265.896C549.811 265.496 550.238 265.184 550.766 264.96C551.294 264.731 551.88 264.616 552.526 264.616ZM550.654 270.608C550.654 270.949 550.787 271.227 551.054 271.44C551.32 271.653 551.664 271.76 552.086 271.76C552.47 271.76 552.808 271.683 553.102 271.528C553.4 271.373 553.632 271.16 553.798 270.888C553.963 270.611 554.046 270.293 554.046 269.936V269.208L551.83 269.464C551.478 269.501 551.192 269.621 550.974 269.824C550.76 270.027 550.654 270.288 550.654 270.608ZM559.907 264.808V266.088C560.2 265.619 560.592 265.256 561.083 265C561.573 264.744 562.131 264.616 562.755 264.616C563.491 264.616 564.147 264.797 564.723 265.16C565.304 265.517 565.755 266.021 566.075 266.672C566.4 267.323 566.563 268.067 566.563 268.904C566.563 269.741 566.4 270.485 566.075 271.136C565.755 271.787 565.304 272.293 564.723 272.656C564.147 273.013 563.491 273.192 562.755 273.192C562.147 273.192 561.6 273.069 561.115 272.824C560.635 272.579 560.245 272.232 559.947 271.784V275.576H558.051V264.808H559.907ZM559.947 268.904C559.947 269.411 560.045 269.861 560.243 270.256C560.44 270.645 560.715 270.949 561.067 271.168C561.419 271.381 561.821 271.488 562.275 271.488C562.728 271.488 563.128 271.381 563.475 271.168C563.827 270.949 564.099 270.645 564.291 270.256C564.488 269.861 564.587 269.411 564.587 268.904C564.587 268.397 564.488 267.949 564.291 267.56C564.099 267.165 563.827 266.861 563.475 266.648C563.128 266.429 562.728 266.32 562.275 266.32C561.821 266.32 561.419 266.429 561.067 266.648C560.715 266.861 560.44 267.165 560.243 267.56C560.045 267.949 559.947 268.397 559.947 268.904Z" fill="#FF7936"/>
<rect x="424" y="303" width="246" height="48" rx="6" fill="white"/>
<path d="M496.418 333.192C495.618 333.192 494.908 333.048 494.29 332.76C493.671 332.467 493.186 332.059 492.834 331.536C492.487 331.008 492.311 330.405 492.306 329.728H494.298C494.298 330.075 494.388 330.381 494.57 330.648C494.751 330.915 495.002 331.123 495.322 331.272C495.647 331.421 496.02 331.496 496.442 331.496C496.852 331.496 497.212 331.429 497.522 331.296C497.831 331.157 498.068 330.968 498.234 330.728C498.404 330.483 498.49 330.2 498.49 329.88C498.49 329.48 498.367 329.136 498.122 328.848C497.882 328.56 497.562 328.381 497.162 328.312L495.242 327.992C494.703 327.901 494.234 327.712 493.834 327.424C493.434 327.131 493.124 326.765 492.906 326.328C492.692 325.891 492.586 325.411 492.586 324.888C492.586 324.259 492.748 323.696 493.074 323.2C493.399 322.699 493.85 322.309 494.426 322.032C495.007 321.749 495.666 321.608 496.402 321.608C497.154 321.608 497.82 321.744 498.402 322.016C498.988 322.288 499.444 322.669 499.77 323.16C500.095 323.651 500.26 324.211 500.266 324.84H498.282C498.282 324.541 498.204 324.277 498.05 324.048C497.895 323.813 497.676 323.632 497.394 323.504C497.116 323.371 496.794 323.304 496.426 323.304C496.063 323.304 495.74 323.368 495.458 323.496C495.18 323.619 494.964 323.795 494.81 324.024C494.655 324.248 494.578 324.507 494.578 324.8C494.578 325.147 494.69 325.448 494.914 325.704C495.138 325.955 495.434 326.112 495.802 326.176L497.666 326.48C498.22 326.571 498.711 326.776 499.138 327.096C499.57 327.416 499.903 327.811 500.138 328.28C500.378 328.749 500.498 329.251 500.498 329.784C500.498 330.429 500.324 331.011 499.978 331.528C499.636 332.045 499.156 332.453 498.538 332.752C497.919 333.045 497.212 333.192 496.418 333.192ZM505.329 333C504.892 333 504.497 332.907 504.145 332.72C503.799 332.533 503.527 332.275 503.329 331.944C503.137 331.613 503.041 331.237 503.041 330.816L503.033 326.448H501.593L501.601 324.808H502.497C502.7 324.808 502.863 324.747 502.985 324.624C503.108 324.496 503.169 324.333 503.169 324.136V322.816H504.937V324.808H506.905L506.897 326.448H504.929L504.937 330.584C504.937 330.808 505.009 330.995 505.153 331.144C505.303 331.288 505.489 331.36 505.713 331.36H506.897V333H505.329ZM512.01 324.616C512.677 324.616 513.266 324.736 513.778 324.976C514.29 325.211 514.687 325.552 514.97 326C515.253 326.443 515.394 326.968 515.394 327.576V333H513.554V331.808C513.298 332.256 512.949 332.6 512.506 332.84C512.069 333.075 511.551 333.192 510.954 333.192C510.426 333.192 509.951 333.093 509.53 332.896C509.114 332.693 508.789 332.413 508.554 332.056C508.319 331.693 508.202 331.283 508.202 330.824C508.202 330.387 508.314 329.984 508.538 329.616C508.767 329.243 509.085 328.939 509.49 328.704C509.895 328.469 510.351 328.325 510.858 328.272L512.994 328.048C513.159 328.032 513.29 327.973 513.386 327.872C513.482 327.765 513.53 327.611 513.53 327.408C513.525 327.019 513.378 326.704 513.09 326.464C512.802 326.224 512.426 326.104 511.962 326.104C511.663 326.104 511.389 326.157 511.138 326.264C510.893 326.365 510.695 326.504 510.546 326.68C510.397 326.856 510.309 327.051 510.282 327.264H508.402C508.455 326.752 508.645 326.296 508.97 325.896C509.295 325.496 509.722 325.184 510.25 324.96C510.778 324.731 511.365 324.616 512.01 324.616ZM510.138 330.608C510.138 330.949 510.271 331.227 510.538 331.44C510.805 331.653 511.149 331.76 511.57 331.76C511.954 331.76 512.293 331.683 512.586 331.528C512.885 331.373 513.117 331.16 513.282 330.888C513.447 330.611 513.53 330.293 513.53 329.936V329.208L511.314 329.464C510.962 329.501 510.677 329.621 510.458 329.824C510.245 330.027 510.138 330.288 510.138 330.608ZM520.423 333C519.986 333 519.591 332.907 519.239 332.72C518.892 332.533 518.62 332.275 518.423 331.944C518.231 331.613 518.135 331.237 518.135 330.816L518.127 326.448H516.687L516.695 324.808H517.591C517.794 324.808 517.956 324.747 518.079 324.624C518.202 324.496 518.263 324.333 518.263 324.136V322.816H520.031V324.808H521.999L521.991 326.448H520.023L520.031 330.584C520.031 330.808 520.103 330.995 520.247 331.144C520.396 331.288 520.583 331.36 520.807 331.36H521.991V333H520.423ZM523.832 324.808H525.736V333H523.832V324.808ZM525.808 321.8V323.608H523.744V321.8H525.808ZM531.723 333.192C530.923 333.192 530.197 333.005 529.547 332.632C528.896 332.259 528.384 331.747 528.011 331.096C527.643 330.44 527.459 329.709 527.459 328.904C527.459 328.099 527.643 327.371 528.011 326.72C528.384 326.064 528.896 325.549 529.547 325.176C530.197 324.803 530.923 324.616 531.723 324.616C532.421 324.616 533.056 324.744 533.627 325C534.197 325.251 534.664 325.616 535.027 326.096C535.395 326.571 535.627 327.139 535.723 327.8H533.819C533.675 327.315 533.413 326.947 533.035 326.696C532.656 326.445 532.221 326.32 531.731 326.32C531.293 326.32 530.899 326.432 530.547 326.656C530.2 326.875 529.928 327.181 529.731 327.576C529.533 327.965 529.435 328.408 529.435 328.904C529.435 329.4 529.533 329.845 529.731 330.24C529.928 330.629 530.2 330.936 530.547 331.16C530.899 331.379 531.293 331.488 531.731 331.488C532.221 331.488 532.656 331.363 533.035 331.112C533.413 330.861 533.675 330.493 533.819 330.008H535.723C535.627 330.659 535.392 331.224 535.019 331.704C534.645 332.184 534.173 332.552 533.603 332.808C533.032 333.064 532.405 333.192 531.723 333.192ZM541.065 321.8H543.601L547.033 329.888L547.225 330.512L547.409 329.888L550.769 321.8H553.337V333H551.377V325.032L551.401 324.608L547.921 333H546.457L542.993 324.664L543.017 325.032V333H541.065V321.8ZM559.51 333.192C558.71 333.192 557.99 333.008 557.35 332.64C556.715 332.272 556.219 331.763 555.862 331.112C555.504 330.456 555.326 329.717 555.326 328.896C555.326 328.085 555.507 327.355 555.87 326.704C556.232 326.053 556.731 325.544 557.366 325.176C558.006 324.803 558.72 324.616 559.51 324.616C560.32 324.616 561.03 324.8 561.638 325.168C562.251 325.536 562.723 326.045 563.054 326.696C563.384 327.341 563.55 328.075 563.55 328.896V329.416H557.302C557.355 329.843 557.486 330.219 557.694 330.544C557.902 330.869 558.168 331.123 558.494 331.304C558.819 331.48 559.182 331.568 559.582 331.568C560.051 331.568 560.448 331.499 560.774 331.36C561.099 331.221 561.35 331.021 561.526 330.76H563.406C563.32 331.16 563.11 331.547 562.774 331.92C562.438 332.293 561.99 332.6 561.43 332.84C560.87 333.075 560.23 333.192 559.51 333.192ZM561.598 328.096C561.502 327.509 561.275 327.045 560.918 326.704C560.566 326.363 560.099 326.192 559.518 326.192C558.942 326.192 558.456 326.363 558.062 326.704C557.672 327.045 557.424 327.509 557.318 328.096H561.598ZM565.269 324.808H567.117V326.04C567.363 325.581 567.691 325.229 568.101 324.984C568.512 324.739 568.989 324.616 569.533 324.616C570.12 324.616 570.627 324.752 571.053 325.024C571.48 325.291 571.805 325.672 572.029 326.168C572.296 325.677 572.656 325.296 573.109 325.024C573.563 324.752 574.088 324.616 574.685 324.616C575.267 324.616 575.773 324.749 576.205 325.016C576.643 325.277 576.981 325.651 577.221 326.136C577.461 326.621 577.581 327.187 577.581 327.832V333H575.677V328.056C575.677 327.507 575.539 327.075 575.261 326.76C574.989 326.44 574.605 326.28 574.109 326.28C573.757 326.28 573.448 326.36 573.181 326.52C572.92 326.68 572.717 326.909 572.573 327.208C572.429 327.501 572.357 327.848 572.357 328.248V333H570.493V328.056C570.493 327.507 570.355 327.075 570.077 326.76C569.8 326.44 569.416 326.28 568.925 326.28C568.387 326.28 567.96 326.459 567.645 326.816C567.331 327.168 567.173 327.645 567.173 328.248V333H565.269V324.808ZM583.435 333.192C582.619 333.192 581.883 333.008 581.227 332.64C580.571 332.272 580.054 331.763 579.675 331.112C579.302 330.461 579.115 329.725 579.115 328.904C579.115 328.083 579.302 327.347 579.675 326.696C580.054 326.045 580.571 325.536 581.227 325.168C581.888 324.8 582.627 324.616 583.443 324.616C584.259 324.616 584.995 324.8 585.651 325.168C586.307 325.536 586.822 326.045 587.195 326.696C587.568 327.347 587.755 328.083 587.755 328.904C587.755 329.725 587.568 330.461 587.195 331.112C586.822 331.763 586.307 332.272 585.651 332.64C584.995 333.008 584.256 333.192 583.435 333.192ZM581.091 328.904C581.091 329.411 581.192 329.859 581.395 330.248C581.603 330.637 581.886 330.941 582.243 331.16C582.6 331.373 583.003 331.48 583.451 331.48C583.894 331.48 584.291 331.373 584.643 331.16C585 330.941 585.278 330.637 585.475 330.248C585.678 329.859 585.779 329.411 585.779 328.904C585.779 328.397 585.678 327.949 585.475 327.56C585.272 327.165 584.992 326.861 584.635 326.648C584.283 326.429 583.886 326.32 583.443 326.32C583 326.32 582.6 326.429 582.243 326.648C581.886 326.861 581.603 327.165 581.395 327.56C581.192 327.949 581.091 328.397 581.091 328.904ZM589.488 324.808H591.376V326.04C591.637 325.624 591.963 325.307 592.352 325.088C592.741 324.864 593.187 324.752 593.688 324.752H593.992V326.672H593.448C592.813 326.667 592.312 326.835 591.944 327.176C591.576 327.517 591.392 327.984 591.392 328.576V333H589.488V324.808ZM595.09 334H596.234C596.448 334 596.634 333.941 596.794 333.824C596.96 333.712 597.082 333.56 597.162 333.368L597.554 332.52L594.402 324.808H596.378L598.498 330.312L600.442 324.808H602.37L598.97 333.552C598.73 334.176 598.4 334.667 597.978 335.024C597.562 335.381 597.024 335.56 596.362 335.56H595.09V334Z" fill="#FF7936"/>
<rect x="27" y="126" width="294" height="154" rx="8" fill="#1FBBA1"/>
<path d="M63.3513 183.42C61.6013 183.42 60.0497 183.105 58.6963 182.475C57.343 181.833 56.2813 180.941 55.5113 179.797C54.753 178.642 54.368 177.324 54.3563 175.842H58.7138C58.7138 176.601 58.9122 177.272 59.3088 177.855C59.7055 178.438 60.2538 178.893 60.9538 179.22C61.6655 179.547 62.4822 179.71 63.4038 179.71C64.3022 179.71 65.0897 179.564 65.7663 179.272C66.443 178.969 66.9622 178.555 67.3238 178.03C67.6972 177.493 67.8838 176.875 67.8838 176.175C67.8838 175.3 67.6155 174.547 67.0788 173.917C66.5538 173.287 65.8538 172.897 64.9788 172.745L60.7788 172.045C59.6005 171.847 58.5738 171.432 57.6988 170.802C56.8238 170.161 56.1472 169.362 55.6688 168.405C55.2022 167.448 54.9688 166.398 54.9688 165.255C54.9688 163.878 55.3247 162.647 56.0363 161.562C56.748 160.466 57.7338 159.614 58.9938 159.007C60.2655 158.389 61.7063 158.08 63.3163 158.08C64.9613 158.08 66.4197 158.377 67.6913 158.972C68.9747 159.567 69.9722 160.402 70.6838 161.475C71.3955 162.548 71.7572 163.773 71.7688 165.15H67.4288C67.4288 164.497 67.2597 163.919 66.9213 163.417C66.583 162.904 66.1047 162.507 65.4863 162.227C64.8797 161.936 64.1738 161.79 63.3688 161.79C62.5755 161.79 61.8697 161.93 61.2513 162.21C60.6447 162.478 60.1722 162.863 59.8338 163.365C59.4955 163.855 59.3263 164.421 59.3263 165.062C59.3263 165.821 59.5713 166.48 60.0613 167.04C60.5513 167.588 61.1988 167.932 62.0038 168.072L66.0813 168.737C67.2947 168.936 68.368 169.385 69.3013 170.085C70.2463 170.785 70.9755 171.648 71.4888 172.675C72.0138 173.702 72.2763 174.798 72.2763 175.965C72.2763 177.377 71.8972 178.648 71.1388 179.78C70.3922 180.912 69.3422 181.804 67.9888 182.457C66.6355 183.099 65.0897 183.42 63.3513 183.42ZM82.8452 183C81.8886 183 81.0252 182.796 80.2552 182.387C79.4969 181.979 78.9019 181.413 78.4702 180.69C78.0502 179.967 77.8402 179.144 77.8402 178.222L77.8227 168.667H74.6727L74.6902 165.08H76.6502C77.0936 165.08 77.4494 164.946 77.7177 164.677C77.9861 164.397 78.1202 164.042 78.1202 163.61V160.722H81.9877V165.08H86.2927L86.2752 168.667H81.9702L81.9877 177.715C81.9877 178.205 82.1452 178.613 82.4602 178.94C82.7869 179.255 83.1952 179.412 83.6852 179.412H86.2752V183H82.8452ZM97.4596 164.66C98.918 164.66 100.207 164.922 101.327 165.447C102.447 165.961 103.316 166.707 103.935 167.687C104.553 168.656 104.862 169.805 104.862 171.135V183H100.837V180.392C100.277 181.372 99.513 182.125 98.5446 182.65C97.588 183.163 96.4563 183.42 95.1496 183.42C93.9946 183.42 92.9563 183.204 92.0346 182.772C91.1246 182.329 90.413 181.717 89.8996 180.935C89.3863 180.142 89.1296 179.243 89.1296 178.24C89.1296 177.283 89.3746 176.402 89.8646 175.597C90.3663 174.781 91.0605 174.116 91.9471 173.602C92.8338 173.089 93.8313 172.774 94.9396 172.657L99.6121 172.167C99.9738 172.132 100.26 172.004 100.47 171.782C100.68 171.549 100.785 171.211 100.785 170.767C100.773 169.916 100.452 169.227 99.8221 168.702C99.1921 168.177 98.3696 167.915 97.3546 167.915C96.7013 167.915 96.1005 168.032 95.5521 168.265C95.0155 168.487 94.5838 168.79 94.2571 169.175C93.9305 169.56 93.738 169.986 93.6796 170.452H89.5671C89.6838 169.332 90.098 168.335 90.8096 167.46C91.5213 166.585 92.4546 165.902 93.6096 165.413C94.7646 164.911 96.048 164.66 97.4596 164.66ZM93.3646 177.767C93.3646 178.514 93.6563 179.121 94.2396 179.587C94.823 180.054 95.5755 180.287 96.4971 180.287C97.3371 180.287 98.078 180.118 98.7196 179.78C99.373 179.442 99.8805 178.975 100.242 178.38C100.604 177.773 100.785 177.079 100.785 176.297V174.705L95.9371 175.265C95.1671 175.347 94.543 175.609 94.0646 176.052C93.598 176.496 93.3646 177.067 93.3646 177.767ZM115.863 183C114.906 183 114.043 182.796 113.273 182.387C112.514 181.979 111.919 181.413 111.488 180.69C111.068 179.967 110.858 179.144 110.858 178.222L110.84 168.667H107.69L107.708 165.08H109.668C110.111 165.08 110.467 164.946 110.735 164.677C111.004 164.397 111.138 164.042 111.138 163.61V160.722H115.005V165.08H119.31L119.293 168.667H114.988L115.005 177.715C115.005 178.205 115.163 178.613 115.478 178.94C115.804 179.255 116.213 179.412 116.703 179.412H119.293V183H115.863ZM123.32 165.08H127.485V183H123.32V165.08ZM127.642 158.5V162.455H123.127V158.5H127.642ZM140.581 183.42C138.831 183.42 137.244 183.012 135.821 182.195C134.397 181.378 133.277 180.258 132.461 178.835C131.656 177.4 131.253 175.802 131.253 174.04C131.253 172.278 131.656 170.686 132.461 169.262C133.277 167.827 134.397 166.702 135.821 165.885C137.244 165.068 138.831 164.66 140.581 164.66C142.109 164.66 143.497 164.94 144.746 165.5C145.994 166.048 147.015 166.847 147.808 167.897C148.613 168.936 149.121 170.178 149.331 171.625H145.166C144.851 170.563 144.279 169.758 143.451 169.21C142.622 168.662 141.672 168.387 140.598 168.387C139.642 168.387 138.778 168.632 138.008 169.122C137.25 169.601 136.655 170.272 136.223 171.135C135.792 171.987 135.576 172.955 135.576 174.04C135.576 175.125 135.792 176.099 136.223 176.962C136.655 177.814 137.25 178.485 138.008 178.975C138.778 179.453 139.642 179.692 140.598 179.692C141.672 179.692 142.622 179.418 143.451 178.87C144.279 178.322 144.851 177.517 145.166 176.455H149.331C149.121 177.878 148.607 179.115 147.791 180.165C146.974 181.215 145.942 182.02 144.693 182.58C143.445 183.14 142.074 183.42 140.581 183.42ZM161.016 158.5H166.564L174.071 176.192L174.491 177.557L174.894 176.192L182.244 158.5H187.861V183H183.574V165.57L183.626 164.642L176.014 183H172.811L165.234 164.765L165.286 165.57V183H161.016V158.5ZM201.365 183.42C199.615 183.42 198.04 183.017 196.64 182.212C195.251 181.407 194.166 180.293 193.385 178.87C192.603 177.435 192.212 175.819 192.212 174.022C192.212 172.249 192.609 170.651 193.402 169.227C194.196 167.804 195.286 166.69 196.675 165.885C198.075 165.068 199.638 164.66 201.365 164.66C203.138 164.66 204.69 165.062 206.02 165.867C207.361 166.672 208.394 167.787 209.117 169.21C209.841 170.622 210.202 172.226 210.202 174.022V175.16H196.535C196.651 176.093 196.937 176.916 197.392 177.627C197.847 178.339 198.431 178.893 199.142 179.29C199.854 179.675 200.647 179.867 201.522 179.867C202.549 179.867 203.418 179.716 204.13 179.412C204.841 179.109 205.39 178.672 205.775 178.1H209.887C209.701 178.975 209.24 179.821 208.505 180.637C207.77 181.454 206.79 182.125 205.565 182.65C204.34 183.163 202.94 183.42 201.365 183.42ZM205.932 172.272C205.722 170.989 205.226 169.974 204.445 169.227C203.675 168.481 202.654 168.107 201.382 168.107C200.122 168.107 199.061 168.481 198.197 169.227C197.346 169.974 196.803 170.989 196.57 172.272H205.932ZM213.964 165.08H218.007V167.775C218.543 166.772 219.261 166.002 220.159 165.465C221.058 164.928 222.102 164.66 223.292 164.66C224.575 164.66 225.683 164.957 226.617 165.552C227.55 166.136 228.262 166.97 228.752 168.055C229.335 166.982 230.123 166.147 231.114 165.552C232.106 164.957 233.255 164.66 234.562 164.66C235.833 164.66 236.942 164.952 237.887 165.535C238.843 166.107 239.584 166.923 240.109 167.985C240.634 169.047 240.897 170.283 240.897 171.695V183H236.732V172.185C236.732 170.983 236.428 170.038 235.822 169.35C235.227 168.65 234.387 168.3 233.302 168.3C232.532 168.3 231.855 168.475 231.272 168.825C230.7 169.175 230.257 169.677 229.942 170.33C229.627 170.972 229.469 171.73 229.469 172.605V183H225.392V172.185C225.392 170.983 225.088 170.038 224.482 169.35C223.875 168.65 223.035 168.3 221.962 168.3C220.783 168.3 219.85 168.691 219.162 169.472C218.473 170.242 218.129 171.287 218.129 172.605V183H213.964V165.08ZM253.701 183.42C251.916 183.42 250.306 183.017 248.871 182.212C247.436 181.407 246.305 180.293 245.476 178.87C244.66 177.447 244.251 175.837 244.251 174.04C244.251 172.243 244.66 170.633 245.476 169.21C246.305 167.787 247.436 166.672 248.871 165.867C250.318 165.062 251.934 164.66 253.719 164.66C255.504 164.66 257.114 165.062 258.549 165.867C259.984 166.672 261.11 167.787 261.926 169.21C262.743 170.633 263.151 172.243 263.151 174.04C263.151 175.837 262.743 177.447 261.926 178.87C261.11 180.293 259.984 181.407 258.549 182.212C257.114 183.017 255.498 183.42 253.701 183.42ZM248.574 174.04C248.574 175.148 248.795 176.128 249.239 176.98C249.694 177.832 250.312 178.497 251.094 178.975C251.875 179.442 252.756 179.675 253.736 179.675C254.705 179.675 255.574 179.442 256.344 178.975C257.125 178.497 257.732 177.832 258.164 176.98C258.607 176.128 258.829 175.148 258.829 174.04C258.829 172.932 258.607 171.952 258.164 171.1C257.72 170.237 257.108 169.572 256.326 169.105C255.556 168.627 254.687 168.387 253.719 168.387C252.75 168.387 251.875 168.627 251.094 169.105C250.312 169.572 249.694 170.237 249.239 171.1C248.795 171.952 248.574 172.932 248.574 174.04ZM266.943 165.08H271.073V167.775C271.644 166.865 272.356 166.171 273.208 165.692C274.059 165.202 275.034 164.957 276.13 164.957H276.795V169.157H275.605C274.217 169.146 273.12 169.513 272.315 170.26C271.51 171.007 271.108 172.027 271.108 173.322V183H266.943V165.08ZM279.198 185.188H281.7C282.167 185.188 282.575 185.059 282.925 184.803C283.287 184.558 283.555 184.225 283.73 183.805L284.588 181.95L277.693 165.08H282.015L286.653 177.12L290.905 165.08H295.123L287.685 184.208C287.16 185.573 286.437 186.646 285.515 187.428C284.605 188.209 283.427 188.6 281.98 188.6H279.198V185.188Z" fill="white"/>
<rect x="57" y="216.5" width="78" height="39" fill="white"/>
<path d="M95.0271 242.16C94.1205 242.16 93.4058 241.925 92.8831 241.456C92.3605 240.976 92.0991 240.325 92.0991 239.504C92.0991 238.64 92.3871 237.973 92.9631 237.504C93.5498 237.035 94.3658 236.8 95.4111 236.8H97.6031V236.048C97.6031 235.621 97.4645 235.291 97.1871 235.056C96.9098 234.811 96.5311 234.688 96.0511 234.688C95.6138 234.688 95.2511 234.784 94.9631 234.976C94.6751 235.168 94.5045 235.429 94.4511 235.76H92.4991C92.5951 234.928 92.9685 234.267 93.6191 233.776C94.2698 233.285 95.1018 233.04 96.1151 233.04C97.1818 233.04 98.0298 233.312 98.6591 233.856C99.2885 234.389 99.6031 235.115 99.6031 236.032V242H97.6671V240.464H97.6351C97.5285 240.987 97.2405 241.403 96.7711 241.712C96.3125 242.011 95.7311 242.16 95.0271 242.16ZM95.6831 240.656C96.2485 240.656 96.7071 240.512 97.0591 240.224C97.4218 239.936 97.6031 239.563 97.6031 239.104V238.032H95.4431C95.0378 238.032 94.7125 238.149 94.4671 238.384C94.2218 238.619 94.0991 238.928 94.0991 239.312C94.0991 239.728 94.2378 240.059 94.5151 240.304C94.8031 240.539 95.1925 240.656 95.6831 240.656Z" fill="#1FBBA1"/>
<rect x="57" y="216.5" width="78" height="39" stroke="#1FBBA1"/>
<rect x="135" y="216.5" width="78" height="39" fill="white"/>
<path d="M174.755 242.16C174.104 242.16 173.571 242 173.155 241.68C172.75 241.36 172.504 240.907 172.419 240.32H172.387V242H170.435V230.32H172.435V232.784L172.371 234.88H172.419C172.515 234.304 172.766 233.856 173.171 233.536C173.576 233.205 174.104 233.04 174.755 233.04C175.64 233.04 176.35 233.344 176.883 233.952C177.416 234.56 177.683 235.381 177.683 236.416V238.8C177.683 239.835 177.416 240.656 176.883 241.264C176.35 241.861 175.64 242.16 174.755 242.16ZM174.051 240.432C174.563 240.432 174.963 240.283 175.251 239.984C175.539 239.685 175.683 239.259 175.683 238.704V236.496C175.683 235.941 175.539 235.515 175.251 235.216C174.963 234.917 174.563 234.768 174.051 234.768C173.539 234.768 173.139 234.923 172.851 235.232C172.574 235.531 172.435 235.952 172.435 236.496V238.704C172.435 239.248 172.574 239.675 172.851 239.984C173.139 240.283 173.539 240.432 174.051 240.432Z" fill="#1FBBA1"/>
<rect x="135" y="216.5" width="78" height="39" stroke="#1FBBA1"/>
<rect x="213" y="216.5" width="78" height="39" fill="white"/>
<path d="M255.027 242.16C254.75 242.16 254.526 242.075 254.355 241.904C254.184 241.723 254.099 241.483 254.099 241.184V240.16C254.099 239.872 254.184 239.637 254.355 239.456C254.526 239.275 254.75 239.184 255.027 239.184C255.315 239.184 255.544 239.275 255.715 239.456C255.896 239.637 255.987 239.872 255.987 240.16V241.184C255.987 241.483 255.896 241.723 255.715 241.904C255.544 242.075 255.315 242.16 255.027 242.16ZM248.947 242.16C248.67 242.16 248.446 242.075 248.275 241.904C248.104 241.723 248.019 241.483 248.019 241.184V240.16C248.019 239.872 248.104 239.637 248.275 239.456C248.446 239.275 248.67 239.184 248.947 239.184C249.235 239.184 249.464 239.275 249.635 239.456C249.816 239.637 249.907 239.872 249.907 240.16V241.184C249.907 241.483 249.816 241.723 249.635 241.904C249.464 242.075 249.235 242.16 248.947 242.16ZM251.987 242.16C251.71 242.16 251.486 242.075 251.315 241.904C251.144 241.723 251.059 241.483 251.059 241.184V240.16C251.059 239.872 251.144 239.637 251.315 239.456C251.486 239.275 251.71 239.184 251.987 239.184C252.275 239.184 252.504 239.275 252.675 239.456C252.856 239.637 252.947 239.872 252.947 240.16V241.184C252.947 241.483 252.856 241.723 252.675 241.904C252.504 242.075 252.275 242.16 251.987 242.16Z" fill="#1FBBA1"/>
<rect x="213" y="216.5" width="78" height="39" stroke="#1FBBA1"/>
<circle cx="4" cy="4" r="4" transform="matrix(1.19249e-08 1 1 -1.19249e-08 317 199)" fill="#8473FF"/>
<path d="M423 329L394.338 329C392.129 329 390.338 327.209 390.338 325L390.338 207C390.338 204.791 388.547 203 386.338 203L322 203" stroke="#8473FF" stroke-width="2"/>
<circle cx="4" cy="4" r="4" transform="matrix(1.19249e-08 1 1 -1.19249e-08 420 325)" fill="#8473FF"/>
</svg>
